<?xml version="1.0" encoding="UTF-8"?>
<svg id="_图层_2" data-name="图层 2" xmlns="http://www.w3.org/2000/svg" viewBox="0 0 594.26 256.42">
  <g id="_图层_1-2" data-name="图层 1">
    <path d="m382.1,141.89c.62-20.86,3.41-41.4,9.29-61.47,1.89-6.46,4.34-12.72,7.06-18.86,3-6.78,7.06-12.91,12.01-18.42,7.93-8.84,16.66-16.81,26.42-23.61,4.34-3.03,8.9-5.68,13.76-7.79,3.11-1.35,6.34-2.25,9.76-2.18,1.59.03,3.39-.02,4.33,1.51,1.03,1.68-.22,3.12-1.2,4.31-6.46,7.76-13.78,14.27-24.19,16.11-1.1.19-2.2.41-3.29.68-2.42.61-4.4,1.87-5.7,4.07-.98,1.65-2.07,3.25-2.88,4.98-4.5,9.63-6.94,19.91-9.25,30.22-.1.46-.03.99.52,1.13.25.07.65-.07.86-.25.95-.86,1.88-1.74,2.76-2.66,9.49-9.98,19.78-19.12,29.8-28.53,2.07-1.94,3.63-3.89,4.03-6.8.5-3.6,2.37-6.56,4.87-9.17,2.45-2.55,5.17-4.78,8.13-6.69,1.06-.68,2.26-1.19,3.46-1.62,1.23-.44,2.08.1,2.59,1.4q1.23,3.17,3.94,1.27c1.84-1.28,3.65-2.61,5.53-3.81,3.66-2.32,7.12-4.86,10.13-8.01,2.34-2.44,5.17-4.28,8.06-6.01.95-.57,1.98-1.06,3.03-1.42,2.24-.76,3.38.12,3.28,2.45-.07,1.6-.16,3.19-.28,4.79-.24,3.05.83,5.63,2.72,7.96,5.7,6.99,12.83,11.17,21.93,12.46,7.59,1.08,15,.5,22.43-.67,7.42-1.16,14.82-2.5,22.2-3.91,2.47-.47,4.58-.53,6.76,1.13,2.17,1.66,2.49,2.06.82,3.92-2.39,2.66-5.34,4.53-8.53,6.1-7.17,3.54-14.41,6.94-21.26,11.1-5.35,3.25-10.3,7.02-14.97,11.18-6.81,6.06-13.66,12.08-20.49,18.11-.48.42-.99.82-1.39,1.31-.16.19-.1.59-.06.88.01.1.24.24.37.25.79.04,1.59.11,2.37.04,4.77-.46,9.55-.9,14.31-1.44,7.65-.88,14.68,1.11,21.1,4.99,8.31,5.02,15.23,11.63,20.7,19.68,3.6,5.3,6.65,10.93,9.36,16.73,2.66,5.71,3.93,11.82,5.04,17.97.74,4.1,1.23,8.22,1.17,12.4-.02,1.75.02,3.54.33,5.26.99,5.36.11,10.51-1.45,15.61-2.46,8.08-6.74,15.14-12.1,21.63-10.28,12.45-22.43,22.75-35.87,31.58-4.02,2.64-8.27,4.89-12.71,6.72-2.98,1.23-5.71,2.83-8.44,4.5-8.6,5.27-17.39,10.2-27.07,13.28-4.75,1.51-9.6,2.4-14.61,2.41-3.03,0-6.07.49-9.1.42-10.57-.25-21.05-.97-31.06-5.02-10.01-4.05-19.35-9.19-27.81-15.88-6.77-5.35-11.7-12.21-15.89-19.64-4.51-7.99-7.71-16.43-9.45-25.51-1.75-9.1-3.69-18.17-5.32-27.3-.82-4.61-.95-9.21-.86-13.86Zm116.58,42.64h-.29c0,9.12,0,18.23,0,27.35,0,1.28-.03,2.56.07,3.84.16,1.88.79,2.65,2.55,2.96,12.16,2.17,23.88,1.42,34.82-5.06,3.98-2.36,7.98-4.69,12.24-6.59,4.24-1.9,8.06-4.45,10.8-8.47,4.34-6.38,6.85-13.37,7.4-21.02.56-7.69-.22-15.36-1.14-22.96-1.52-12.57-6.45-24.01-12.84-34.87-3.46-5.89-8.34-10.49-13.17-15.16-3.02-2.92-6.55-5.12-10.18-7.15-2.69-1.5-5.61-2.3-8.73-2.29-4.96.02-9.92.02-14.88.07-1.11.01-2.24.15-3.33.37-1.4.28-2.23,1.2-2.35,2.65-.07.8-.11,1.6-.11,2.39-.24,20.15,0,40.3-.81,60.44-.32,7.82-.05,15.67-.05,23.51Zm-6.42-49.87h.29c0-9.44,0-18.87,0-28.31,0-.96.02-1.92.01-2.88,0-.64,0-1.28-.05-1.92-.06-.64-.18-1.37-.94-1.46-.4-.05-.95.24-1.26.55-4.09,4.05-8.1,8.19-12.23,12.19-2.01,1.94-2.77,4.19-2.6,6.9.36,5.74.62,11.49,1.01,17.23.08,1.26.33,2.57.81,3.73,1.35,3.24.29,5.83-1.69,8.43-3.44,4.53-7.84,7.96-12.37,11.25-1.67,1.22-3.47,2.32-5.33,3.22-3.26,1.57-3.82,1.08-5.22-2.18-3.46-8.07-7.53-15.68-17.17-17.85-.15-.03-.3-.13-.45-.17-2.74-.8-4.66-2.69-6.44-4.79-.77-.91-.58-1.77.08-2.58,1.75-2.12,3.69-4.09,6.28-5.07,5.08-1.91,9.73-4.9,15.13-6,2.02-.41,2.99-1.69,2.95-3.75-.01-.64.03-1.28.04-1.92.34-15.34-.22-30.69.78-46.03.46-7.01.21-14.07.24-21.11,0-1.23.61-3-.59-3.56-1.55-.72-2.42,1.12-3.37,2.05-6.5,6.39-12.95,12.83-19.38,19.29-3.29,3.3-6.7,6.47-10.85,8.62-2.27,1.17-3.34,2.83-3.56,5.24-.49,5.41-1.28,10.8-1.45,16.22-.27,8.47-.17,16.95-.16,25.43,0,2.07.08,4.17.41,6.21,2.26,14.14,6.42,27.7,12.44,40.69,1.95,4.22,4.19,8.29,7,11.99,4.95,6.54,10.76,12.17,17.54,16.88,10.37,7.19,21.59,12.44,33.78,15.61,4.82,1.25,5.4.79,5.46-4.01.22-17.75.06-35.49.78-53.23.34-8.3.06-16.63.06-24.95Zm-8.74-112.78c-1.55.38-2.55,1.77-3.92,2.49-3.37,1.77-4.84,4.49-4.37,8.26.04.31,0,.64,0,.96.07,22.69.14,45.39.21,68.08,0,1.12.04,2.24.12,3.35.03.48.27.96.81,1.01.28.03.65-.14.86-.34,3.42-3.35,6.84-6.72,10.22-10.11.44-.44.75-1.03,1.07-1.58,4.07-6.84,10.04-11.49,17.19-14.72,1.92-.86,3.66-1.88,5.31-3.18,9.4-7.46,18.13-15.67,27.11-23.61.47-.41.83-.96,1.14-1.5.07-.13-.26-.71-.41-.71-.78-.01-1.58.01-2.34.17-2.97.62-5.91,1.43-8.9,1.92-3.62.59-7.24,1.38-10.94,1.13-3.03-.2-6.05-.47-9.06-.85-5.64-.71-11.05-2.31-15.43-6.03-6.85-5.81-11.13-12.78-8.57-22.29.2-.73.6-1.51-.09-2.45Z"/>
    <path d="m227.34,174.69c7.37.12,14.67.85,21.94,2.08.79.13,1.57.29,2.35.46,2.3.5,4.09-.17,5.3-2.25.4-.69.84-1.36,1.24-2.05,3.95-6.76,7.91-13.53,11.85-20.3.4-.69.79-1.4,1.09-2.13.48-1.19.2-2.2-.98-2.87-1.67-.94-3.4-1.79-5.16-2.53-8.99-3.79-17.94-7.67-27-11.27-10.07-4.01-18.94-9.85-27.31-16.66-6.79-5.53-12.33-12.06-16.96-19.4-3.54-5.6-4.7-11.78-3.87-18.37.48-3.83,2.13-6.99,4.9-9.62.58-.55,1.11-1.17,1.75-1.63,1.69-1.21,1.89-2.65,1.32-4.61-2.12-7.34-1.45-14.64,1.3-21.63,2.4-6.09,5.17-12.07,9.66-17.01.64-.71,1.17-1.54,1.9-2.13,3.49-2.8,7.03-5.54,10.56-8.29,8.98-6.99,19.39-9.5,30.53-9.74,4.08-.09,7.89,1.17,11.63,2.62,8.83,3.42,17.17,7.8,25.09,12.98,4.01,2.63,8.06,5.2,12.11,7.77,2.73,1.73,5.71,2.78,8.86,3.54,4.76,1.16,9.19.45,13.51-1.63,6.36-3.05,12.42-6.6,18.2-10.65,2.62-1.83,5.3-3.58,8.03-5.23,1.18-.71,2.83-1.81,3.95-.6,1.47,1.59-.41,2.86-1.25,4.08-1.94,2.8-4.61,4.9-7.25,6.95-9.61,7.46-19.63,14.33-30.36,20.11-2.25,1.21-4.56,2.32-6.9,3.35-9.39,4.11-18.41,3.24-26.93-2.32-5.49-3.58-10.78-7.47-16.23-11.1-6.81-4.53-14.02-8.31-21.61-11.38-4.43-1.79-8.92-2.37-13.63-1.52-1.89.34-3.81.5-5.69.84-2.18.39-3.78,1.57-4.68,3.68-2.29,5.37-3.71,10.9-3.33,16.78.35,5.44,2.97,9.7,7.05,13.14,4.71,3.97,10.21,6.59,15.87,8.83,6.69,2.65,13.48,5.04,20.27,7.43,8.76,3.08,17.31,6.65,25.75,10.51,6.83,3.13,13.7,6.18,20.55,9.26.29.13.58.26.88.38,2.86,1.1,3.43,1.02,5.33-1.36,4.8-6,9.98-11.66,15.45-17.06,13.37-13.21,28.04-24.73,44.15-34.44,4.65-2.81,9.19-5.81,13.78-8.72,1.35-.86,2.66-1.77,4.03-2.59,1.45-.87,2.84-.97,3.02-.3.33,1.31-.56,2.14-1.44,2.8-2.68,2.01-5.35,4.07-8.19,5.85-9.34,5.89-18.45,12.12-27.29,18.72-13.79,10.29-26.22,21.97-36.41,35.91-3.65,4.99-3.64,5.21,1.87,7.96,6.87,3.43,13.64,7.02,20.23,10.98,5.52,3.32,10.76,7.06,15.22,11.6,4.68,4.77,9.44,9.54,13.27,15.11,3.73,5.43,5.79,11.37,5.95,17.94.08,3.36.05,6.72.11,10.07.06,3.42-.68,6.67-2.1,9.77-3.42,7.46-7.5,14.45-13.58,20.15-4.08,3.82-7.36,8.44-11.78,11.94-.77.61-1.23,1.46-1.49,2.41-.8,2.89-2.69,5.06-4.8,7.04-2.8,2.64-5.82,4.99-9.28,6.74-1.93.97-3.88,1.34-6.03.87-4.21-.94-8.44-1.78-12.55-3.16-3.33-1.12-6.72-2.07-10.11-3.01-9.4-2.59-18.82-5.16-28.24-7.69-4.48-1.2-9-2.23-13.46-3.48-3.23-.91-6.38-2.08-9.59-3.08-2.22-.69-2.72-.56-4.05,1.34-1.83,2.62-3.57,5.31-5.33,7.98-3.35,5.08-6.86,10.04-10.76,14.71-5.37,6.44-11.61,11.88-18.82,16.19-3.17,1.9-6.57,3.27-10.04,4.52-4.33,1.56-8.79,1.69-13.26,1.15-4.52-.54-8.12-2.84-10.7-6.59-5.07-7.37-7.48-15.49-6.55-24.48.18-1.75.45-3.49.57-5.24.31-4.44,1.76-8.48,4.47-11.97,8.2-10.54,18.08-18.94,30.76-23.69,6.26-2.34,12.77-2.77,19.36-2.76Zm121.16,5.25c.44-9.9-2.07-18.14-7.61-25.43-1.35-1.78-2.9-3.4-4.31-5.14-6.19-7.67-13.56-13.98-22.02-19.01-3.84-2.29-7.78-4.43-11.67-6.63-4.17-2.35-5.38-2-7.5,2.15-1.09,2.13-.87,2.94,1.47,4.16,3.68,1.93,7.46,3.67,11.12,5.63,4.08,2.19,8.29,4.24,12.05,6.91,8.17,5.8,12.94,13.52,12.33,23.98-.16,2.84-.95,5.27-2.65,7.53-4.2,5.61-9.63,9.75-15.58,13.29-.41.24-.85.44-1.3.61-2.89,1.12-4.32.3-4.63-2.68-.07-.63-.08-1.28-.07-1.92.15-8.94-4.29-15.53-10.94-20.85-4.01-3.2-8.56-5.59-13.21-7.75-.43-.2-.88-.39-1.33-.55-1.18-.42-2.21-.19-2.99.82-.39.5-.74,1.04-1.08,1.58-4.1,6.67-8.19,13.35-12.28,20.03-.42.68-.83,1.37-1.16,2.09-.39.84-.12,1.61.64,2.06.68.41,1.44.69,2.19.94,4.85,1.63,9.66,3.37,14.57,4.82,8.28,2.44,16.63,4.65,24.92,7.04,10.12,2.93,20.53,4.96,30.16,9.47,1.77.83,2.37.58,3.57-1.21,4.62-6.87,8.58-13.96,7.3-21.97Zm-156.47,26.23c-.54,7.49,1.7,14.15,5.85,20.3,3.02,4.47,7.29,6.5,12.56,6.67,4.42.15,8.02-1.15,10.63-5.08,5.73-8.63,11.68-17.12,17.53-25.68.18-.26.35-.54.47-.83.34-.83.25-1.6-.59-2.04-.7-.37-1.46-.64-2.22-.85-7.54-2.13-15.22-3.65-22.99-4.44-5.06-.51-10.2-.42-15.29-.34-3.92.07-5.02,1.19-5.53,5.13-.3,2.36-.29,4.77-.42,7.16Zm98.22-87.28c.06-1.04-.24-1.61-.8-1.95-1.09-.66-2.21-1.28-3.35-1.84-7.76-3.75-15.56-7.42-23.3-11.21-8.03-3.94-16.18-7.6-24.46-10.98-3.69-1.51-7.37-3.08-10.95-4.82-6.02-2.93-12.19-5.63-17.47-9.89-.33-.27-1-.48-1.31-.32-.79.4-.38,1.13-.08,1.65,2.24,3.89,4.7,7.61,8.2,10.52,11.74,9.76,24.35,18.05,38.77,23.37,8.69,3.2,17.32,6.53,25.99,9.8.9.34,1.79.7,2.72.92.6.14,1.39.28,1.86,0,2.15-1.27,3.28-3.38,4.2-5.24Z"/>
    <path d="m115.03,62.49c0-8.09-.08-13.53.03-18.97.05-2.47-.64-4.34-2.84-5.63-2.09-1.22-3.72-3.01-5.43-4.7-.79-.78-1.62-1.54-2.49-2.24-.61-.49-1.81-.11-2,.64-.23.92-.47,1.87-.45,2.81.2,7.99-.25,16,.73,23.96.19,1.58.15,3.19.16,4.79.04,11.04.07,22.07.07,33.11,0,2.73.13,5.4,1.17,8.01.52,1.3.75,2.8.76,4.21.05,4.79.34,9.58-.57,14.35-.48,2.5-.53,5.08-.81,7.62-.33,2.97-1.61,5.47-3.64,7.65-3.17,3.41-6.6,6.52-10.47,9.12-1.73,1.16-3.52,2.23-5.56,2.76-1.44.37-2.5-.5-2.55-2.03,0-.32.01-.64.04-.96.69-9.11.07-18.23.39-27.33.15-4.09-1.75-6.62-5.02-8.54-1.98-1.16-4.13-1.68-6.41-1.76-3.68-.12-7.35-.16-11.02.24-1.36.15-2.01-1.02-1.36-2.25.22-.42.45-.86.75-1.22,3.94-4.71,8.42-8.76,13.99-11.47,1.75-.85,3.62-1.21,5.52-1.54,3.05-.54,3.35-.92,3.53-4.06.05-.96.04-1.92.04-2.88.04-4.48.19-8.96.07-13.43-.18-6.57.93-13.08.89-19.64,0-.8.02-1.6.05-2.4.11-3.28-.26-4.43-3.64-2.68-.56.29-1.21.48-1.83.52-.41.03-1-.17-1.23-.47-.24-.31-.3-.92-.19-1.33.4-1.43,1.46-2.45,2.43-3.52,2.92-3.22,6.37-5.82,9.77-8.48,2.14-1.67,4.31-3.31,6.54-4.87,2.68-1.87,4.75-4.24,6.38-7.05,3.99-6.89,10.15-11.42,16.97-15.12,2.73-1.48,3.65-1.29,5.84,1.19,2.65,3,5.32,5.92,8.47,8.43,4.54,3.61,9.5,4.96,15.24,3.91,7.6-1.39,14.76-4.19,22-6.73,2.72-.95,5.39-2.02,8.09-3.02,1.05-.39,2.1-.82,3.18-1.06,1.2-.27,2.64-1.01,3.6.19,1,1.24-.11,2.4-.77,3.45-.5.81-1.07,1.61-1.73,2.3-5.24,5.5-11.08,10.15-18.27,12.87-7.93,3-15.85,6-23.82,8.91-4.82,1.76-9.78,2.96-14.95,3.25-2.84.16-3.33.75-3.52,3.47-.08,1.12-.05,2.24-.06,3.36-.02,4.16.01,8.32-.05,12.48-.81,50.85-.75,101.71-.95,152.57,0,1.92-.02,3.84.13,5.75.15,1.77,1.2,2.59,2.92,2.37,1.1-.14,2.19-.44,3.26-.76,6.93-2.1,13.38-5.25,19.59-8.95,4.6-2.74,8.46-6.29,11.8-10.44,7.72-9.59,15.41-19.21,23.11-28.82,2.91-3.63,5.46-7.5,7.83-11.49,2.49-4.2,5.74-7.67,9.83-10.35,1.07-.7,2.14-1.4,3.45-1.61.96-.15,1.97.78,1.78,1.73-.16.77-.36,1.57-.72,2.26-1.04,1.98-2.01,4.03-3.3,5.84-7.61,10.68-14.78,21.67-22.65,32.17-8.42,11.23-18.49,20.75-29.61,29.23-7.64,5.83-15.51,11.32-24.08,15.71-2.22,1.13-3.44,2.61-3.46,5.2-.02,3.19-.31,6.38-.48,9.57-.06,1.12-.03,2.24-.17,3.35-.19,1.55-1,2.24-2.53,2.35-1.78.13-2.96-.57-3.12-2.22-.23-2.22-.24-4.46-.25-6.7-.03-6.4-.06-6.52-5.97-4.14-8.55,3.44-17.42,4.04-26.43,3.11-9.63-1-18.81-3.67-27.46-8.11-4.74-2.43-8.97-5.55-12.85-9.16-2.81-2.62-5.4-5.46-8.2-8.09-4.82-4.54-8.44-10.02-12.04-15.49-6.45-9.79-11.39-20.38-15.66-31.26C1.73,166.43-.11,158.17,0,149.55c.15-11.53,1.05-23,3.09-34.35,1.64-9.18,4.82-17.92,8.68-26.37,6.07-13.29,13.26-25.94,22.82-37.07,9.2-10.71,19.31-20.48,31.19-28.26,1.6-1.05,3.28-1.98,4.98-2.89.98-.53,2.03-.95,3.09-1.3,1.07-.35,2.3-.65,3.11.38.85,1.07.19,2.16-.5,3.05-2.87,3.71-6.2,7.11-10.43,9.05-7.75,3.56-13.22,9.54-17.94,16.21-11.21,15.82-19.51,33.02-23.16,52.22-1.01,5.34-1.54,10.76-1.64,16.2-.08,4-.06,8-.06,12,.01,10.41,2.34,20.27,6.94,29.62,3.53,7.18,7.19,14.28,11.49,21.04,7.9,12.41,17.56,23.17,29.77,31.49,5.33,3.63,11.14,6.23,17.33,8.05,5.38,1.58,10.83,2.86,16.4,3.54,2.05.25,4.14.32,6.21.28,1.58-.03,2.36-.84,2.49-2.37.14-1.59.13-3.19.13-4.79.13-41.91.29-83.81.38-125.72.02-9.92,1.05-19.81.64-27.08Z"/>
  </g>
</svg>