<?xml version="1.0" encoding="utf-8"?>
<!-- Generator: Adobe Illustrator 25.0.0, SVG Export Plug-In . SVG Version: 6.00 Build 0)  -->
<svg version="1.1" id="图层_1" xmlns="http://www.w3.org/2000/svg" xmlns:xlink="http://www.w3.org/1999/xlink" x="0px" y="0px"
	 viewBox="0 0 5402 4281" style="enable-background:new 0 0 5402 4281;" xml:space="preserve">
<style type="text/css">
	.st0{fill:#B12A1C;}
	.st1{fill:#B4CBE6;}
	.st2{fill:#FEBA12;}
	.st3{fill:#4A82C3;}
	.st4{fill:#4B83C3;}
	.st5{fill:#4C84C4;}
	.st6{fill:#4C83C4;}
	.st7{fill:#4D84C4;}
	.st8{fill:#4C83C3;}
	.st9{fill:#4B82C3;}
	.st10{fill:#4E85C4;}
	.st11{fill:#5085C5;}
	.st12{fill:#5187C5;}
	.st13{fill:#4F84C4;}
	.st14{fill:#FFFFFE;}
	.st15{fill:#FFFFFF;}
	.st16{fill:#FFFEFD;}
	.st17{fill:#FEFEFF;}
	.st18{fill:#FDFEFF;}
	.st19{fill:#FDFEFE;}
	.st20{fill:#FEFFFF;}
	.st21{fill:#FCFDFE;}
</style>
<path class="st0" d="M5402,2710.14c-3.52,3.78-3.26,8.63-3.4,13.21c-0.34,11.5-3.45,22.28-7.6,32.88
	c-28.61,73.06-81.36,118.49-157.52,136.4c-16.12,3.79-32.83,4.95-49.6,4.89c-66.61-0.26-133.22-0.1-199.84-0.1
	c-223.82,0-447.64,0-671.45,0c-7.16,0-14.32,0-21.5,0c-0.07-4.41,3.42-4.76,5.45-5.3c38.85-10.26,74.42-28.56,110.52-45.39
	c114.17-53.19,224.41-113.44,328.17-185.09c64.24-44.37,125.07-92.9,179.48-149.14c48.96-50.6,90.22-106.69,121.36-169.98
	c24.63-50.06,40.59-102.73,45.23-158.41c5-59.97-4.01-118.16-24.96-174.53c-23.47-63.13-59.07-119.04-101.73-170.73
	c-46.84-56.76-100.54-106.43-158.01-152.18c-10.37-8.26-20.83-16.4-31.99-25.18c4.96-4.67,10.45-2.85,15.22-2.85
	c119.9-0.13,239.8-0.11,359.71-0.1c17.98,0,35.97,0.02,53.96,0.07c83.22,0.26,167.8,53.65,199.55,145.89
	c3.04,8.83,5.34,17.81,5.54,27.27c0.08,3.82-0.49,8.14,3.41,10.89C5402,2131.83,5402,2420.99,5402,2710.14z"/>
<path class="st1" d="M7.35,2706.51c-2.4-2.28-3.21-5.2-3.38-8.38c-0.18-3.22-1.17-6.05-3.97-7.97c0-274.5,0-549,0-823.5
	c2.86-1.9,3.77-4.75,3.94-7.97c0.17-3.19,1.01-6.1,3.39-8.39c8.11,7.09,7.07,16.87,7.07,25.99c0.21,268.07,0.2,536.15,0,804.22
	C14.4,2689.63,15.45,2699.41,7.35,2706.51z"/>
<path class="st2" d="M2219.49,1661.35c1.15,13.22,2.22,27.12,3.6,41c8.28,83.26,30.31,162.14,75.54,233.39
	c43.34,68.27,102.46,118.25,176.23,151.31c26.69,11.96,22.01,4.02,25.47,33.74c4.77,40.98,10.15,81.89,15.31,122.82
	c3.75,29.71,7.54,59.41,11.38,89.11c1.26,9.73,2.28,10.52,12.82,10.91c3.33,0.12,6.66,0.04,9.99,0.04
	c102.62,0,205.24,0.09,307.85-0.07c21.32-0.03,21.44,4.22,25.16-22.59c5.94-42.84,12.34-85.62,18.55-128.42
	c4.3-29.63,8.82-59.24,12.76-88.92c0.82-6.19,3.55-9.19,8.97-11.59c131.06-58.27,211.29-159.95,251.47-295.48
	c11.98-40.4,17.2-82,19.7-123.97c0.16-2.66,0.21-5.32,0.43-7.97c0.33-3.96,2.79-5.73,6.53-5.9c3.33-0.15,6.66-0.22,9.99-0.21
	c21.32,0.02,42.65,0.03,63.97,0.11c101.86,0.37,191.3,77.06,208.29,178.35c2.45,14.58,3.16,29.09,3.17,43.74
	c0.03,78.61,0.02,157.22,0.02,235.83c0,185.87,0,371.73-0.01,557.6c0,16.65-0.48,33.19-3.54,49.71
	c-14.79,79.88-77.59,155.41-177.27,172.78c-7.78,1.36-15.95,0.73-23.93,0.73c-324.51,0.03-649.02,0.03-973.53,0.03
	c-57.31,0-114.62-0.66-171.91,0.22c-42.32,0.65-80.2-12.07-114.26-35.69c-61.76-42.84-94.11-102.6-94.33-177.79
	c-0.62-209.18-0.23-418.37-0.23-627.55c0-61.29-0.19-122.58,0.07-183.87c0.39-93.86,61.25-175.4,148.73-203.87
	c19.67-6.4,39.86-10.39,60.76-10.22c22.65,0.19,45.31-0.1,67.97-0.06C2209.77,1658.59,2214.59,1657.64,2219.49,1661.35z"/>
<path class="st0" d="M3849.64,2278.45c0-133.9,0.11-267.8-0.1-401.7c-0.04-24.89,2.54-49.29,11.25-72.62
	c30.92-82.91,90.6-130.81,177.83-144.44c9.15-1.43,18.61-1.08,27.93-1.09c190.57-0.06,381.14,0.04,571.72-0.27
	c11.35-0.02,20.06,3.61,29.22,9.75c66.66,44.67,128.28,95.32,183.82,153.26c44.45,46.38,83.66,96.69,113.53,153.82
	c20.17,38.57,35.1,78.97,42.04,122.17c8.85,55.1,3.56,108.82-14.71,161.39c-17.45,50.2-44.09,95.34-76.14,137.45
	c-46.72,61.39-102.52,113.66-162.97,161.19c-68.22,53.63-141.23,99.93-217.19,141.72c-131.5,72.34-269.48,129.79-411.19,178.65
	c-16.34,5.63-32.89,10.67-49.16,16.5c-8.42,3.01-16.86,3.48-25.55,2.78c-107.18-8.61-181.79-86.75-197.87-179.01
	c-2.41-13.86-2.46-27.84-2.46-41.83C3849.64,2543.59,3849.64,2411.02,3849.64,2278.45z"/>
<path class="st3" d="M7.35,2706.51c0.12-11.29,0.34-22.58,0.34-33.87c0.02-262.82,0.02-525.64,0-788.47
	c0-11.29-0.23-22.58-0.36-33.87c13.17-89.22,62.1-149.49,146.84-180.33c20.76-7.55,42.53-10.83,64.71-10.83
	c4.66,0,9.33-0.04,13.99-0.04c368.51,0,737.02,0.03,1105.53-0.08c22.08-0.01,43.99,0.89,65.29,7.1
	c88.42,25.81,140.94,84.63,158.69,174.49c2.68,13.57,2.06,27.88,2.13,41.85c0.24,48.63,0.1,97.27,0.11,145.9
	c0,74.62,0.01,149.23-0.02,223.85c0,5.98-0.05,11.99-0.57,17.94c-0.27,3.07-2.86,4.7-5.66,3.14c-5.22-2.9-10.17-6.3-15.13-9.62
	c-55.07-36.9-113.49-67.09-176.73-87.41c-46.57-14.96-94.13-23.49-143.36-22.59c-68.95,1.27-130.63,22.6-185.56,64.08
	c-6.25,4.72-11.64,10.87-19.19,13.38c-5.6-3.91-7.99-9.6-11.58-14.35c-31.71-41.94-73.12-57.88-124.76-46.81
	c-23.06,4.94-44.21,14.51-64.6,26.02c-3.48,1.96-6.75,4.29-10.22,6.28c-6.66,3.82-7.97,3.45-12.54-3.69
	c-2.51-3.93-4.64-8.1-7.21-11.99c-26.37-39.96-60.09-71.18-105.93-87.45c-30.6-10.86-61.94-14.45-94.38-9.51
	c-55.66,8.49-106.7,28.26-152.19,61.38c-22.89,16.66-40.98,37.87-53.8,63.43c-15.94,31.79-17.62,65.18-11.62,99.38
	c2.42,13.78,7.13,26.99,12.29,40.03c3.02,7.64,2.41,9.15-3.93,13.07c-7.36,4.55-14.94,8.77-22.25,13.4
	c-28.27,17.85-54.75,37.97-77.66,62.46c-15.57,16.65-28.74,34.9-37.24,56.32c-13.64,34.37-9.25,66.5,11.34,96.74
	c9.06,13.31,20.25,24.67,32.71,34.85c23.39,19.12,49.54,33.65,76.71,46.51c3.61,1.71,7.26,3.34,10.87,5.05
	c14.08,6.68,14.23,6.77,6.77,20.18c-16.62,29.84-29.6,61.07-36.67,94.6c-6.12,28.99-7.88,57.99,0.2,86.95
	c0.36,1.28,0.65,2.58,0.89,3.89c1.19,6.41-0.53,8.99-6.48,9.36c-3.99,0.24-7.99,0.21-11.99,0.21c-34.65,0.01-69.3,0.13-103.96-0.04
	c-44.55-0.23-85.56-12.56-122-38.19C46.21,2821.96,15.56,2770.89,7.35,2706.51z"/>
<path class="st3" d="M1566.51,2666.53c-3.19,8.3-2.13,14.96-2.12,21.45c0.11,91.82-70.08,189.07-180.35,206.56
	c-13.24,2.1-26.43,2.94-39.78,2.94c-303.87-0.02-607.74-0.01-911.6-0.02c-20.92,0-22.8-1.58-28.49-22.07
	c-6.45-23.21-4.02-46.21,1.53-69.1c8.73-36.02,25.05-68.71,44.88-99.73c7.89-12.34,16.66-24.11,24.77-36.3
	c2.86-4.29,7.51-7.79,7.13-14.73c-5.97-1.95-12.19-3.98-18.42-6.02c-36.81-12.02-72.62-26.32-106.02-46.16
	c-16.07-9.54-31.8-19.6-44.62-33.44c-4.05-4.38-7.82-9.07-11.25-13.95c-8.84-12.55-9.18-25.98-3.43-39.86
	c5.16-12.46,12.63-23.37,21.87-33.17c13.32-14.12,28.16-26.39,44.16-37.35c30.37-20.79,63.12-37.1,96.72-51.83
	c17.1-7.49,18.86-7.22,4.67-21.86c-15.51-16.01-26.89-34.82-33.55-56.12c-12-38.35-4.11-72.29,23.83-101.34
	c16.92-17.59,37.71-29.47,59.74-39.29c35.04-15.62,72.08-23.44,110.08-27c10.76-1.01,21.15,1.89,31.24,5.44
	c27.9,9.8,50.07,27.3,67.7,50.8c18.24,24.31,30.17,51.63,38.29,80.75c6.95,24.93,4.3,28.4,25.53,7.77
	c22.99-22.35,48.11-42.12,77.12-56.42c11.42-5.63,23.19-9.85,35.87-11.84c16.35-2.57,30.3,2.03,42.5,12.63
	c12.32,10.7,20.73,24.15,27.04,39.08c8.64,20.44,12.52,42.03,15.77,63.78c0.49,3.29,0.46,6.7,1.29,9.89
	c0.63,2.44,1.71,6.02,3.48,6.66c3.95,1.44,5.41-2.74,6.85-5.38c12.53-22.99,28.14-43.53,46.98-61.79
	c53.69-52.04,117.56-78.93,192.54-79.21c48.05-0.18,93.73,10.98,138,28.59c56.1,22.31,107.07,53.66,155.38,89.54
	c9.09,6.75,18,13.75,27.13,20.45c3.53,2.59,5.29,5.81,5.31,10.09c0.03,5.33,0.08,10.66,0.08,15.99c0,89.94-0.05,179.88,0.14,269.82
	c0.01,5.56-3.25,13.57,3.33,16.13c4.78,1.86,8.59-5.15,12.52-8.54c22.3-19.28,41.87-41,57.97-65.74
	c14.72-22.63,25.21-47.1,27.93-74.09c3.11-30.89-5.23-59.39-21.16-85.75c-13.23-21.88-30.15-40.59-49.88-56.79
	c-6.18-5.07-12.52-9.94-18.94-14.71c-3.4-2.53-5.95-5.45-5.9-9.82c0.22-17.79-1.37-35.65,0.91-53.28c2.14-0.17,3.75-0.83,4.61-0.29
	c39.7,25.17,75.27,55.02,103.34,93.05c18,24.39,30.89,51.14,36.82,81.17c7.2,36.48,2.55,71.53-11.46,105.58
	c-12.04,29.27-29.26,55.24-50.82,78.38c-3.13,3.36-6.17,6.82-8.93,9.88c0.99,5.69,4.71,8.8,7.51,12.45
	c30.71,40.08,41.54,85.19,36.39,135.21c-5.21,50.6-26.01,94.76-53.89,135.96c-56.18,83.04-135.35,132.11-232.23,153.99
	c-23.4,5.28-47.11,8.62-71.23,8.85c-13.29,0.12-26.57,2.5-39.84,2.37c-48.2-0.47-95.43-8.42-141.96-20.52
	c-65.97-17.15-129.09-42.03-190.59-71.2c-3.01-1.43-6.14-2.71-8.9-4.52c-5.39-3.54-9.94-2.16-14.56,1.52
	c-15.13,12.04-30.93,23.14-47.39,33.3c-34.82,21.48-71.68,38.04-111.69,47.35c-90.18,20.97-165.59-4.9-227.75-72.03
	c-9.92-10.71-18.48-22.73-27.1-34.56c-3.59-4.93-7.51-6.72-13.41-6.51c-12.64,0.46-25.34,1.03-37.96,0.38
	c-27.1-1.41-52.49-8.79-74.91-24.6c-15.51-10.94-27.63-24.96-36-42.07c-5.26-10.74-3.98-13.13,7.25-13.3
	c11.99-0.18,23.99,0.08,35.98-0.11c6.28-0.1,11.51,1.28,16.12,6.11c15.72,16.48,35.88,21.94,57.93,22.59
	c19.46,0.58,38.51-1.42,57.23-7.05c8.88-2.67,10.03-1.85,14.57,5.75c7.16,12,13.68,24.43,21.48,36
	c16.55,24.56,36.97,45.38,62.25,61.19c26.04,16.28,53.98,24.83,85.07,24.55c31.9-0.29,62.08-7.03,91.17-19.41
	c42.74-18.19,80.64-43.84,114.72-75.27c2.94-2.71,5.67-5.66,8.76-8.18c2.14-1.74,4.77-2.16,7.44-0.73
	c5.87,3.16,11.76,6.26,17.62,9.42c61.79,33.27,126.05,60.44,194.04,78.37c56.92,15.01,114.52,24.86,173.68,22.03
	c67.84-3.25,131.7-19.66,187.64-59.84c59.89-43.03,101.59-99.32,120.56-171.21c7.21-27.33,9.63-55.15,2.11-82.93
	C1625.16,2707.08,1604.03,2680.59,1566.51,2666.53z"/>
<path class="st0" d="M4867.38,1135.63c8.83-0.93,16.75-1.75,24.67-2.6c29.41-3.19,58.62-2.34,87.08,6.33
	c29.02,8.84,50.76,26.27,60.35,56.05c8.27,25.67,7.06,51.29-3.21,76.21c-7.39,17.93-20.28,31.09-37.63,39.75
	c-14.48,7.22-29.84,10.92-46.04,11.87c-35.75,2.1-70.3-4.55-104.44-13.92c-32.09-8.81-63.32-20.2-94.25-32.45
	c-5.29-2.09-10.24-6.42-16.78-4.78c-1.07,4.39,1.64,7.42,3.26,10.69c21.05,42.32,42.17,84.61,63.22,126.93
	c2.36,4.74,4.51,9.6,6.5,14.51c0.87,2.16-0.72,4.32-2.51,4.53c-5.27,0.62-10.61,0.75-15.92,0.76c-60.64,0.04-121.27-0.02-181.91,0.1
	c-6.5,0.01-13.31-1.58-19.65,2.17c-1.59,7.48,0.85,14.4,2.67,21.42c20.4,78.94,65.78,140.15,132.33,186.32
	c4.37,3.03,8.94,5.79,13.25,8.91c0.78,0.57,1.01,2.26,1.03,3.44c0.02,1.72-1.09,2.25-2.81,2.01c-1.3-0.18-2.66,0.07-3.99,0.07
	c-21.99,0.01-43.99-0.33-65.96,0.19c-7.96,0.19-14.02-2.35-19.91-7.22c-28.56-23.62-51.87-51.65-70.35-83.68
	c-21.53-37.31-35.39-77.36-41.99-119.92c-0.31-1.97-0.55-3.96-0.69-5.96c-0.32-4.74-2.98-7.34-7.54-7.61
	c-5.31-0.31-10.66-0.22-15.99-0.22c-28.65-0.02-57.3,0-85.96-0.03c-2.65,0-5.35-0.01-7.94-0.48c-3.1-0.56-4.42-2.71-3.29-5.75
	c1.86-4.98,3.86-9.92,5.95-14.81c14.93-34.88,29.9-69.73,44.85-104.6c1.26-2.94,3.59-5.69,1.53-9.41c-3.44-1.62-6.05,0.99-8.76,2.28
	c-56.95,27.25-117.21,38.89-180.04,37.61c-22.68-0.46-45.09-3.84-66.75-11.02c-13.36-4.43-25.97-10.33-36.77-19.56
	c-21.62-18.46-28.73-43.17-19.57-70.25c10.63-31.44,32.01-53.17,62.08-66.62c22.3-9.98,45.93-13.13,70.09-13.5
	c32.83-0.5,65.04,4.05,96.85,11.86c2.51,0.62,5.07,1,9.75,1.9c-4.48-7.29-10-10.62-14.76-14.6
	c-42.55-35.58-81.52-74.66-116.1-118.08c-80.58-101.18-130.23-215.96-151.42-343.34c-8.33-50.08-12.79-100.43-10.61-151.18
	c3.18-73.94,17.8-145.25,50.98-212c47.19-94.96,120.63-162.96,215.79-208.1c57.02-27.05,117.28-42.57,180.1-48.96
	c104.83-10.67,205.91,3.68,302.71,45.27c81.07,34.83,149.84,86.09,202.88,157.25c40.94,54.92,66.25,116.58,78.38,183.86
	c12.96,71.81,9.23,143.25-4.62,214.43c-16.25,83.47-42.93,163.35-82.8,238.69c-42.18,79.71-96.45,149.92-163.7,210.06
	c-3.97,3.55-7.81,7.23-11.64,10.92C4867.11,1131.67,4867.38,1132.56,4867.38,1135.63z"/>
<path class="st2" d="M2732.22,1967.69c0.07,6-4.14,7.66-7.06,10.1c-11.75,9.83-23.54,19.62-35.55,29.14
	c-5.65,4.47-8.46,9.66-8.29,17.03c0.34,14.65,0.09,29.31,0.09,43.97c0,61.96,0.46,123.92-0.17,185.87
	c-0.39,38.84,3.44,31.45-31.61,32.09c-21.32,0.39-42.65,0.17-63.97-0.04c-8.09-0.08-9.17-1.23-10.18-9.14
	c-5.6-44.23-11.14-88.48-16.67-132.72c-2.97-23.77-6.17-47.52-8.67-71.35c-1.23-11.71-5.89-18.21-17.74-22.84
	c-48.9-19.11-92.46-46.85-129.64-84.34c-44.59-44.97-74.6-98.46-93.61-158.42c-13.34-42.09-20.92-85.27-22.66-129.43
	c-0.13-3.33-0.27-6.66-0.18-9.99c0.18-7.39,1.59-8.68,9.76-9.01c3.33-0.14,6.66-0.08,9.99-0.08c119.28,0,238.56-0.02,357.84,0.08
	c5.1,0,10.46-1.38,16.55,2.02c-2.58,5.59-7.47,9-11.57,12.94c-4.8,4.61-9.9,8.92-14.83,13.4c-4.44,4.03-8.82,8.13-13.23,12.19
	c-4.41,4.06-8.82,8.13-13.24,12.18c-4.92,4.49-9.87,8.95-14.79,13.44c-4.43,4.04-8.83,8.11-13.24,12.18
	c-4.41,4.06-8.81,8.14-13.22,12.2c-4.9,4.52-9.88,8.94-14.68,13.57c-4.23,4.09-9.7,7.08-12.59,14.32
	c12.73,7.04,27.09,9.19,40.56,13.64c13.25,4.38,26.7,8.16,40.06,12.22c14,4.25,28,8.48,41.98,12.8c13.22,4.08,26.4,8.27,39.74,12.46
	c-2.19,8.09-9.49,7.91-14.51,9.99c-52.83,21.92-105.9,43.28-158.76,65.14c-5.12,2.12-12.02,2.33-15.07,9.86
	C2599.86,1931.45,2666.17,1949.6,2732.22,1967.69z"/>
<path class="st2" d="M2885.11,1815.29c-73.46-20.66-146.92-41.31-219.9-61.83c-1.24-4.93,1.54-7.11,3.88-9.35
	c27.81-26.8,55.72-53.5,83.44-80.39c3.61-3.5,7.34-5.4,12.33-5.19c3.99,0.17,7.99,0,11.99,0c110.57,0,221.13-0.03,331.7,0.02
	c24.49,0.01,23.88-2.11,21.63,22.65c-13.61,150.13-79.05,268.88-212.11,345.87c-14.35,8.31-29.32,15.75-44.59,22.2
	c-8.69,3.67-12.2,9.34-13.34,17.8c-3.02,22.41-6.06,44.83-9.22,67.22c-6.68,47.42-13.4,94.84-20.18,142.25
	c-1.14,7.99-2.3,9.24-10.07,9.29c-25.97,0.16-51.95,0.12-77.93-0.04c-6.19-0.04-7.66-1.96-8.01-8.76c-0.17-3.32-0.12-6.66-0.12-9.99
	c-0.01-71.25,0.25-142.51-0.27-213.75c-0.08-11.2,3.49-18.35,12.14-25.17c28.24-22.25,55.92-45.21,83.67-68.08
	c4.41-3.63,10.32-6.1,12.27-13.85c-50.6-15.97-102.23-28.18-155.95-44.93c35.34-15.66,68.48-28.5,101.25-42.17
	c32.41-13.52,64.93-26.75,97.41-40.1C2885.13,1817.76,2885.12,1816.53,2885.11,1815.29z"/>
<path class="st3" d="M904.45,3977c0,10.25,0,16.84,0,23.42c0,65.29,0.03,130.58-0.02,195.86c-0.02,26.86,2.29,24.09-25.12,24.2
	c-17.32,0.07-34.65-0.06-51.97-0.15c-4.76-0.02-7.41-2.55-7.59-7.29c-0.2-5.32-0.21-10.66-0.21-15.98
	c-0.01-209.19-0.01-418.37,0-627.56c0-4.66-0.09-9.33,0.13-13.99c0.36-7.38,1.85-8.95,9.95-9.02c21.32-0.18,42.65-0.18,63.97,0.01
	c7.54,0.07,9.12,1.81,9.28,9.76c0.25,11.99-0.02,23.98,0.2,35.97c0.07,3.68-1.42,7.9,3.46,11.72c4.45-4.32,9.18-8.65,13.62-13.25
	c29.19-30.33,64.57-49.17,106.13-55.28c110.54-16.26,190.13,47.3,220.89,123.74c11.83,29.39,17.38,60.16,19.27,91.45
	c2.63,43.39-0.45,86.52-11.26,128.83c-10.93,42.82-30.02,81.14-63.11,111.35c-31.44,28.7-68.48,45.34-110.69,51.01
	c-26.74,3.59-53.05,2.07-79.35-3.57c-29.57-6.33-54.58-20.55-75.97-41.69C920.07,3990.61,914.92,3983.65,904.45,3977z"/>
<path class="st3" d="M311.39,3794.96c-1.27-42.37,4.53-83.74,20.42-123.18c26.12-64.83,71.58-109.86,138.83-131.03
	c32.06-10.1,65.13-12.59,98.72-8.92c21.93,2.4,43.52,5.82,64.25,13.59c28.52,10.7,54.3,25.53,72.93,50.37
	c22.17,29.56,32.43,63.74,37.35,99.84c0.09,0.66,0.07,1.33,0.09,1.99c0.21,6.25-1.73,8.6-7.59,9.14c-0.66,0.06-1.33,0.08-2,0.08
	c-20.65,0.02-41.29,0.19-61.94,0c-8.98-0.08-10.16-1.06-12.3-9.69c-4.37-17.58-10.91-34.07-20.86-49.38
	c-13.37-20.58-31.63-33.94-55.33-39.77c-26.25-6.45-52.71-7.5-79.05-0.72c-31.25,8.05-54.64,26.85-71.2,54.24
	c-17.19,28.43-25.94,59.71-29.57,92.44c-2.93,26.48-4.04,53.02-0.7,79.66c3.95,31.46,12.61,61.15,29.99,87.98
	c17.73,27.37,43.04,42.7,74.94,48.03c16.57,2.77,32.94,2.81,49.65,0.44c32.28-4.57,57.22-20.36,76.04-46.53
	c12.21-16.99,19.86-36.03,25.48-56.04c2.85-10.13,3.27-10.51,13.62-10.57c21.31-0.13,42.62-0.02,63.93,0.21
	c5.27,0.06,7.03,2.39,6.71,7.56c-0.16,2.65-0.3,5.35-0.9,7.93c-3.47,14.9-7.07,29.75-12.33,44.18
	c-19.17,52.63-54.9,89.13-107.31,108.44c-49.28,18.16-100.03,21.4-151.27,9.59c-58.87-13.56-100.48-49.89-129.66-101.49
	c-18.99-33.58-28.78-70.01-30.88-108.46C310.92,3814.96,311.39,3804.95,311.39,3794.96z"/>
<path class="st3" d="M1714.27,3706.78c-11.32,0-22.65,0.13-33.97-0.06c-4.37-0.07-7.37-2.32-8.43-6.94
	c-1.18-5.18-2.64-10.31-4.13-15.42c-4.15-14.19-10.92-27.07-19.15-39.33c-14.18-21.11-34.16-33.59-58.62-38.32
	c-19.59-3.79-39.34-5.32-59.55-2.14c-34.19,5.36-61.14,21.38-80.9,49.7c-9.22,13.21-16.47,27.47-21.37,42.73
	c-17.45,54.35-21.02,109.56-8.42,165.43c5.02,22.25,13.92,42.97,26.8,61.96c13.21,19.47,30.9,33.08,53.1,40.33
	c27.87,9.1,56.2,9.77,84.63,2.28c24.86-6.55,44.33-20.76,59.36-41.43c12.7-17.47,21.58-36.81,26.86-57.58
	c2.63-10.34,5.97-11.1,13.39-11.09c20.65,0.04,41.31-0.08,61.96,0.13c8.67,0.09,10.54,2.34,9,11.05
	c-14.34,81.5-56.01,140.01-138.77,163.29c-42.38,11.92-85.5,13.92-128.51,4.68c-59.61-12.81-102.87-48.23-132.79-100.53
	c-19.15-33.46-29.29-69.66-32.04-108.17c-3.3-46.25-0.24-91.84,13.42-136.26c17.98-58.46,52.6-104.15,106.57-134.14
	c22.32-12.41,46.36-19.71,71.66-23.63c34.75-5.39,69.02-2.81,103.18,4.22c15.72,3.24,30.63,8.78,45.24,15.45
	c37.09,16.94,62.22,44.79,77.1,82.43c7.39,18.68,11.81,38.12,14.99,57.85c1.89,11.76,0.14,13.41-12.61,13.65
	c-9.32,0.17-18.65,0.03-27.98,0.03C1714.27,3706.89,1714.27,3706.83,1714.27,3706.78z"/>
<path class="st3" d="M144.78,3785.48c0-71.24,0-142.49,0.01-213.73c0-5.33-0.11-10.66,0.2-15.97c0.41-7.12,2.38-9.19,10.08-9.26
	c22.64-0.21,45.29-0.2,67.93,0c7.61,0.07,9.09,1.82,9.45,9.6c0.24,5.32,0.11,10.65,0.11,15.98c0,143.82,0.04,287.64-0.03,431.46
	c-0.01,26.7,2.9,24.37-24.85,24.46c-17.32,0.06-34.63,0.16-51.95-0.13c-8.68-0.15-10.49-2.22-10.86-10.69
	c-0.23-5.32-0.08-10.65-0.08-15.98C144.78,3929.3,144.78,3857.39,144.78,3785.48z"/>
<path class="st3" d="M904.6,3317.1c-33.39-0.76-64.41-9.19-91.06-30.19c-27.14-21.39-42.69-48.82-41.66-84.23
	c0.69-23.67,10.24-43.82,25.68-61.27c20.15-22.79,45.82-36.53,75.41-41.86c37.72-6.79,74.26-2.92,108.11,16.81
	c17.57,10.24,32.01,23.59,42.62,41.12c23.58,38.95,16.05,83.57-11.87,114.49c-19.86,22-44.79,35.35-73.57,41.33
	C927.27,3315.6,916.14,3318.35,904.6,3317.1z"/>
<path class="st2" d="M3032.58,1297.72c106.63-94.71,211.89-188.2,316.98-281.55c12.85,9.06,24.01,21.32,33.53,36.53
	c-2.7,5.56-7.83,8.89-12.25,12.82c-97.88,87.04-195.8,174.04-293.73,261.03c-2.48,2.2-5.03,4.36-7.73,6.27
	c-1.7,1.2-3.81,1.3-5.41-0.32C3053.29,1321.71,3043.72,1309.98,3032.58,1297.72z"/>
<path class="st2" d="M2030.59,1053.67c1.22-3.22,1.3-3.97,1.71-4.42c9.77-10.84,19.58-21.64,29.38-32.45
	c14.25,5.09,23.02,17.28,33.72,26.74c91.2,80.54,182.08,161.44,273.03,242.27c14.93,13.27,14.34,11.36,0.93,25.77
	c-7.08,7.61-11.88,17.68-22.27,21.97c-9.11-4.46-15.52-12.27-22.9-18.82c-92.55-82.03-184.99-164.18-277.45-246.31
	C2041.3,1063.59,2036,1058.62,2030.59,1053.67z"/>
<path class="st2" d="M2537.58,1197.61c-15.01,8.32-29.53,14.4-44.33,19.5c-8.99-13.97-163.33-370.15-168.38-388.7
	c12.53-5.5,25.19-11.16,37.95-16.61c4.14-1.77,7.82-0.95,9.98,3.49c1.17,2.39,2.31,4.79,3.36,7.22
	c52.71,122,105.41,244,158.09,366.01C2535.3,1190.96,2536.08,1193.51,2537.58,1197.61z"/>
<path class="st2" d="M2876.47,1197.64c8.49-19.87,16.47-38.75,24.61-57.57c45.36-104.91,90.87-209.76,136.06-314.75
	c7.77-18.06,7.76-16.71,24.39-9.24c9.53,4.29,20.02,6.82,29.01,14.28c-7.75,17.97-15.36,35.62-22.99,53.26
	c-46.66,107.97-93.33,215.93-140.01,323.89c-1.04,2.41-2.08,4.88-3.56,7.02c-1.08,1.56-2.74,2.76-5.09,1.88
	C2904.67,1211.03,2890.65,1205.25,2876.47,1197.64z"/>
<path class="st2" d="M2682.17,947.13c0-63.91,0-127.81,0-191.72c0-4.66-0.11-9.32,0.06-13.98c0.37-10.19,1.15-11.02,11.84-11.29
	c8.65-0.22,17.32-0.23,25.97-0.01c11.21,0.28,11.81,1.05,12.2,13.07c0.09,2.66,0.04,5.33,0.04,7.99c0,131.14,0,262.29,0,393.43
	c0,3.33,0.09,6.66-0.06,9.98c-0.43,9.76-1.75,11.17-11.97,11.37c-9.98,0.2-19.97,0.02-29.96-0.08c-4.63-0.04-7.59-2.34-7.85-7.09
	c-0.29-5.31-0.25-10.65-0.25-15.97C2682.17,1077.6,2682.17,1012.36,2682.17,947.13z"/>
<path class="st2" d="M3531.65,1310.13c0.28,2.1-1.23,3.56-2.92,4.53c-4.61,2.64-9.31,5.13-14.06,7.51
	c-105.78,52.85-211.58,105.65-317.34,158.53c-18.99,9.49-18.61,10.67-27.55-9.09c-3.99-8.83-13.81-17.26-10.06-26.82
	c3.28-8.35,15.16-9.82,23.38-13.95c102.83-51.6,205.75-103.02,308.65-154.48c5.35-2.68,10.72-5.34,16.21-7.72
	c1.85-0.8,4.21-0.2,5.17,1.72c6.22,12.47,12.29,25.03,18.36,37.57C3531.76,1308.47,3531.6,1309.22,3531.65,1310.13z"/>
<path class="st2" d="M2257.32,1446c-6,12.04-12.17,24.51-18.44,36.93c-2.14,4.23-5.58,5.41-9.93,3.38
	c-3.61-1.69-7.19-3.45-10.76-5.23c-106.48-53.14-212.96-106.29-319.43-159.45c-4.16-2.08-8.22-4.37-12.35-6.5
	c-3.53-1.82-4.77-4.75-3.12-8.2c5.74-11.99,11.64-23.91,17.74-35.72c1.24-2.4,3.75-3.58,6.71-2.11c4.17,2.07,8.41,4.01,12.57,6.09
	c107.09,53.51,214.19,107,321.23,160.61C2246.8,1438.44,2252.79,1440.12,2257.32,1446z"/>
<path class="st3" d="M628.46,3386.7c-18.92,0.61-38.32-3.16-56.3-12.97c-22.24-12.14-36.54-30.2-41.91-55.35
	c-3.79-17.77-0.64-34.41,6.57-50.49c6.95-15.48,17.46-28.39,31.38-38.08c37.25-25.92,77.11-30.66,119.29-13.52
	c15.77,6.41,28.83,16.72,39.21,30.03c26.9,34.49,24.83,83.59-12.87,113.94C696.93,3373.86,667.92,3387.8,628.46,3386.7z"/>
<path class="st4" d="M2920.18,3885.85c6.75-5.19,11.32-8.97,16.15-12.39c23.76-16.82,62.16-12.45,76.76,7.11
	c5.23,7,6.46,6.62,12.51,0.98c18.66-17.4,40.48-21.9,64.82-16.44c20.72,4.65,34,18.66,36.53,39.74c1.58,13.2,2.12,26.56,2.31,39.87
	c0.35,23.97,0.15,47.96,0.06,71.94c-0.02,4.64-0.45,9.3-0.99,13.91c-0.43,3.66-2.63,5.93-6.46,6.28c-1.33,0.12-2.66,0.24-3.99,0.25
	c-20.38,0.1-20.04,1.28-20.01-19.2c0.04-29.31,0.11-58.62-0.07-87.92c-0.04-6.61-0.73-13.27-1.69-19.82
	c-1.68-11.43-9.6-17.12-19.99-19.71c-22.88-5.71-44.41,7.63-50.44,30.6c-1.89,7.21-2.27,14.43-2.27,21.76
	c-0.01,25.31-0.01,50.62-0.05,75.93c-0.01,3.99-0.07,7.99-0.36,11.97c-0.28,3.82-2.58,5.89-6.39,6.19
	c-1.99,0.15-3.99,0.19-5.99,0.23c-17,0.33-18-0.33-18.17-17.69c-0.28-28.64-0.02-57.28-0.18-85.92c-0.04-7.98-0.17-16.04-1.3-23.91
	c-1.56-10.81-9.13-17.9-19.64-19.83c-22.13-4.05-42.68,8.65-49.78,30.34c-2.76,8.43-3.01,17.02-3.06,25.66
	c-0.13,23.98-0.05,47.96-0.12,71.94c-0.01,4.65-0.16,9.31-0.56,13.94c-0.26,2.98-2.44,4.82-5.27,4.98
	c-5.97,0.33-11.97,0.41-17.94,0.24c-3.66-0.1-6.31-2.07-6.6-6.03c-0.29-3.98-0.4-7.97-0.4-11.96c-0.03-44.63-0.03-89.26,0-133.88
	c0-3.99,0.07-7.99,0.46-11.96c0.37-3.81,2.99-5.9,6.6-6.26c3.96-0.4,7.98-0.46,11.97-0.35c9.61,0.26,9.69,0.45,11.74,11.87
	C2918.71,3880.21,2919.27,3882.08,2920.18,3885.85z"/>
<path class="st4" d="M3204.44,3886.71c40.75-32.17,69.94-31.97,99.01-0.42c3.98,0.76,5.58-2.72,7.75-4.83
	c19.1-18.55,41.92-21.69,66.66-15.8c16.12,3.84,27.05,14.04,31.97,29.89c2.15,6.92,3.96,14.27,4.04,21.45
	c0.44,36.59,0.35,73.18,0.23,109.78c-0.03,8.82-1.6,10.04-10.76,10.3c-4.65,0.13-9.32,0.02-13.96-0.2
	c-3.77-0.18-6.19-2.29-6.41-6.14c-0.3-5.31-0.37-10.63-0.38-15.95c-0.04-27.94-0.01-55.89-0.03-83.83c0-5.32,0.18-10.67-0.27-15.96
	c-1.25-14.68-9.27-23.29-23.68-25.12c-24.01-3.05-48.43,10.45-48.76,39.72c-0.31,27.27-0.2,54.55-0.31,81.83
	c-0.02,5.98,0,11.98-0.37,17.95c-0.28,4.49-2.81,7.35-7.56,7.51c-4.65,0.16-9.32,0.29-13.96,0.12c-7.71-0.28-9.15-1.5-9.2-9.68
	c-0.19-31.93-0.08-63.87-0.21-95.81c-0.03-7.29,0.4-14.59-1.69-21.79c-4.03-13.89-11.26-19.3-25.79-20.46
	c-17.3-1.39-40.37,11.11-44.45,32.49c-1.63,8.52-3.15,16.93-3.11,25.65c0.12,23.95,0.03,47.9-0.03,71.86
	c-0.01,3.98-0.12,7.98-0.46,11.94c-0.25,2.82-1.74,4.9-4.81,5.41c-0.66,0.11-1.31,0.32-1.96,0.34c-23.32,0.46-22.31,1.83-22.3-20.82
	c0.02-43.25,0-86.49,0.01-129.74c0-3.99,0-7.99,0.21-11.97c0.24-4.5,2.41-7.43,7.21-7.82c1.32-0.11,2.66-0.19,3.98-0.2
	c19.9-0.14,17.52-0.3,18.33,16.95C3203.38,3884,3203.75,3884.62,3204.44,3886.71z"/>
<path class="st4" d="M2509.41,4019.4c-3.05,1.12-4.59,1.23-5.4,2.05c-14.31,14.41-32.15,17.5-51.49,16.92
	c-34.8-1.05-59.79-20.3-67.22-54.18c-4.75-21.64-4.64-43.66,1.74-65.21c3.24-10.95,8.34-21.04,15.83-29.76
	c24.74-28.81,66.41-33.57,97.25-11.13c2.6,1.89,5.05,3.97,7.32,5.76c5.29-1.84,3.46-5.8,3.96-8.62c0.68-3.81,2.41-5.99,6.31-6.21
	c2.66-0.14,5.32-0.27,7.98-0.26c12.66,0.07,13.48,0.63,13.49,13.53c0.07,49.28-0.12,98.56-0.07,147.84
	c0.01,10.1-1.64,19.92-4.32,29.54c-4.86,17.46-14.6,31.66-31.3,39.41c-29.42,13.67-59.34,13.75-88.76-0.1
	c-16.3-7.68-24.96-21.07-26-39.02c5.54-3.45,11-1.85,16.19-2.37c7.99-0.8,13.91,1,17.07,9.63c3.51,9.6,11.97,13.89,21.44,16.1
	c14,3.26,27.8,2.45,41.16-2.92c11.21-4.51,18.96-12.74,21.62-24.48C2508.83,4044.35,2511.93,4032.62,2509.41,4019.4z"/>
<path class="st4" d="M3842.28,3883.42c0.41-3.37,0.61-6.02,1.1-8.61c0.35-1.87,0.42-4.1,2.8-4.82c7.19-2.19,14.47-1.67,21.61-0.02
	c1.26,0.29,2.53,3.04,2.76,4.78c0.52,3.94,0.5,7.96,0.5,11.94c0.02,46.58-0.07,93.16,0.02,139.74c0.03,13.42-1.44,26.52-6.06,39.21
	c-5.76,15.81-16.07,27.79-31.39,34.44c-28.25,12.27-56.97,12.41-85.17-0.19c-18.05-8.07-24.98-19.37-26.97-40.83
	c7.72-2.47,15.7-1.22,23.59-1.17c2.92,0.02,5.16,1.46,6.11,4.19c4.71,13.5,15.12,20.15,28.36,22.18
	c15.43,2.37,30.67,1.05,44.25-7.71c7.53-4.86,12.43-12.01,14.59-20.74c2.87-11.61,5.07-23.32,3.25-35.29
	c-5.3-1.54-7.23,2.9-10.24,5.11c-28.48,20.87-74.81,16.3-98.64-9.69c-10.36-11.29-15.17-25.13-17.01-39.76
	c-2.33-18.52-2.27-37.11,2.84-55.44c4.64-16.61,13.76-30,26.65-41.24c24.02-20.95,66.75-18.88,85.58-2.73
	C3833.7,3879.25,3835.97,3882.94,3842.28,3883.42z"/>
<path class="st4" d="M4681.57,3546c0.75-4.94,1.29-7.53,1.52-10.15c0.34-3.89,2.33-5.99,6.2-6.28c1.99-0.15,3.98-0.24,5.97-0.27
	c14.95-0.21,15.58,0.2,15.6,15.41c0.09,48.54-0.06,97.08,0.01,145.61c0.02,11.41-1.55,22.54-4.97,33.39
	c-5.5,17.46-16.61,30.52-33.34,37.59c-27.62,11.68-55.69,11.46-83.33-0.35c-13.48-5.76-23.09-15.48-26.95-30.08
	c-2.44-9.22-0.21-12.4,9.01-12.73c3.32-0.12,6.66,0.14,9.97-0.05c5.18-0.3,8.93,1.32,10.91,6.51c6.19,16.21,19.63,20.48,35.2,20.92
	c8.64,0.24,17.15-0.05,25.59-2.88c13.09-4.39,21.29-13.05,25.32-25.98c3.61-11.58,4.32-23.43,3.45-35.28
	c-4.36-1.91-6.2,1.39-8.67,3.3c-27.97,21.58-71.84,19.4-97.19-4.78c-7.87-7.51-13.72-16.44-16.54-26.87
	c-7.09-26.24-7.67-52.5,1.61-78.43c12.87-35.93,46.51-55.43,83.67-48.47c8.55,1.6,16.64,4.65,23.71,9.94
	C4671.97,3538.76,4675.61,3541.51,4681.57,3546z"/>
<path class="st4" d="M1924.21,3885.45c6.18-4.58,10.25-7.82,14.54-10.74c33.51-22.82,80.15-12.13,100.61,22.9
	c5.81,9.95,9.24,20.81,10.6,31.98c2.68,21.97,1.5,43.81-6.15,64.91c-13.09,36.12-46.57,54.48-88.59,45.57
	c-7.16-1.52-13.71-5.05-19.5-9.73c-2.96-2.39-5.98-4.69-8.66-6.78c-4.85,2.83-3.28,6.53-3.31,9.49
	c-0.18,19.29,0.03,38.57-0.15,57.86c-0.13,13.9-0.47,14.05-15.02,14.03c-0.67,0-1.33,0.01-2,0c-12.21-0.21-13.65-1.29-13.73-13.83
	c-0.21-35.25-0.09-70.5-0.09-105.75c0-32.59-0.02-65.18,0.03-97.77c0.01-4.65,0.09-9.32,0.66-13.92c0.34-2.78,2.61-4.84,5.4-5.05
	c5.29-0.4,10.62-0.3,15.94-0.35c5.93-0.05,8.08,3.39,8.18,8.85C1923,3879.09,1923.53,3881.04,1924.21,3885.45z"/>
<path class="st3" d="M396.38,3290.18c19.71-0.99,36.06,2.01,51.63,8.15c31.18,12.3,49.15,36.31,43.76,75.95
	c-2.35,17.3-11.68,30.79-25.94,40.92c-34.13,24.26-100.38,24.25-134.64,0.22c-38.45-26.97-35.19-85.61,1.33-108.78
	c16.19-10.27,33.98-14.78,52.73-16.41C389.87,3289.83,394.56,3290.18,396.38,3290.18z"/>
<path class="st4" d="M2808.65,4018.01c-5.73,4.09-9.99,7.23-14.35,10.22c-19.16,13.18-40.8,16.86-62.95,12.73
	c-33.64-6.29-49.84-35.25-38.13-69.8c3.28-9.69,11.01-16.3,19.97-21.48c13.66-7.89,28.81-9.8,43.97-11.81
	c11.2-1.48,22.41-2.86,33.64-4.04c6.94-0.73,13.64-2.22,16-9.6c2.94-9.21,2.97-18.64-4.22-26.17c-3.1-3.25-7.3-6.29-11.54-7.45
	c-12.21-3.33-24.56-5.17-37.4-2.19c-11.19,2.6-20.53,7.57-23.72,18.77c-2.85,9.99-8.91,11.99-17.7,11.16
	c-2.64-0.25-5.31-0.18-7.95-0.45c-4.19-0.43-5.45-3.35-5.16-6.98c1.34-16.35,8.57-29.1,23.18-37.22c14.93-8.3,31.14-11.44,48-11.19
	c14.04,0.21,27.85,2.46,40.92,7.75c17.86,7.22,27.29,20.48,27.33,39.99c0.04,25.27,0.03,50.54,0.04,75.81
	c0,5.32-0.12,10.65,0.07,15.96c0.43,11.94,0.42,12.25,13.28,15.12c5.03,1.12,6.38,3.75,6.56,8.18c0.43,10.54-1.78,14.05-11.35,14.93
	C2824.27,4042.32,2818.15,4037.68,2808.65,4018.01z"/>
<path class="st4" d="M4941.84,3678.72c-4.53,3.56-8.07,6.58-11.85,9.26c-20.22,14.37-43.02,17.69-66.65,13.21
	c-31.77-6.03-48.74-39.76-35.96-69.46c3.53-8.19,9.23-14.58,16.78-19.24c9.13-5.64,18.82-9.84,29.6-11.24
	c17.13-2.23,34.22-4.78,51.37-6.84c7.75-0.93,14.92-2.75,16.82-11.29c2.07-9.33,1.31-18.16-6.05-25.91
	c-10.62-11.19-54.47-12.28-64.06-0.65c-2.93,3.55-7.06,7.14-7.84,11.24c-2.03,10.77-8.95,11.93-17.65,11.25
	c-1.99-0.16-4-0.06-5.98-0.26c-4.78-0.49-6.94-3.04-6.62-8c1.07-16.62,9.16-28.75,23.63-36.83c13.14-7.35,27.56-10.01,42.25-10.19
	c13.92-0.17,27.9,0.73,41.29,5.61c22.57,8.23,31.94,20.59,32.31,44.78c0.39,25.27,0.1,50.55,0.12,75.83
	c0,5.32-0.14,10.65,0.11,15.96c0.41,8.73,1.35,9.9,10.08,11.68c3.22,0.66,7.44,0.04,8.61,3.54c1.68,5.02,2.15,10.69-0.83,15.44
	c-1.21,1.93-4.23,3.29-6.66,3.82c-19.85,4.33-30.03-0.76-40.15-19.68C4944.25,3680.24,4943.56,3679.99,4941.84,3678.72z"/>
<path class="st4" d="M2857.22,3678.43c-5.5,4.01-9.7,7.24-14.06,10.22c-19.79,13.54-41.87,16.52-64.89,12.75
	c-20.57-3.36-37.27-20.65-39.77-39.59c-3.36-25.47,5.98-43.48,28.01-54c14.09-6.73,29.44-7.73,44.55-9.83
	c9.21-1.28,18.41-2.72,27.67-3.5c8.71-0.74,15.59-3.53,18.03-12.73c2.42-9.11-0.3-16.83-6.29-23.92
	c-10.25-12.13-54.81-13.08-65.58-0.54c-4.03,4.69-6.85,9.77-8.85,15.4c-1.56,4.4-4.48,6.31-8.97,6.22c-4.65-0.09-9.31,0-13.93-0.34
	c-3.9-0.29-6.01-2.85-5.66-6.69c1.41-15.4,7.76-28.15,21.28-36.35c5.06-3.06,10.7-5.45,16.37-7.16c23.61-7.11,47.35-6.48,70.57,1.29
	c22.32,7.47,30.86,19.73,31.14,43.11c0.3,25.26,0.08,50.52,0.11,75.79c0,5.32-0.13,10.64,0.12,15.95
	c0.47,9.92,1.27,10.75,11.07,13.18c8.3,2.06,9.12,3.19,8.71,12.03c-0.32,7.07-2.48,10.03-9.01,10.81
	c-5.25,0.63-10.64,0.9-15.89,0.47c-8.4-0.69-15.19-4.55-19.35-12.22C2861,3685.9,2859.54,3682.93,2857.22,3678.43z"/>
<path class="st4" d="M3596.27,3678.71c-6.6,6.12-13.18,10.54-20.17,14.45c-18.38,10.27-38.14,11.48-58.15,8.07
	c-20.41-3.47-36.61-20.86-39.25-40.19c-3.3-24.08,5.99-42.19,27.07-52.67c14.62-7.26,30.62-8.43,46.43-10.44
	c9.23-1.17,18.43-2.6,27.68-3.49c8.73-0.84,15.7-3.97,17.63-13.22c2.05-9.79-0.5-18.49-8.29-25.19c-1.49-1.28-3.27-2.36-5.11-3.05
	c-16.78-6.25-33.79-6.78-50.65-0.76c-7.9,2.82-13.31,8.86-15.43,17.13c-2.06,8.04-7.38,10.3-14.88,9.69
	c-3.3-0.27-6.66-0.08-9.94-0.49c-3.84-0.48-5.97-3-5.48-6.85c2.04-15.97,8.43-29.38,23.39-37.19c4.69-2.45,9.56-4.8,14.62-6.25
	c24.35-6.95,48.72-6.43,72.53,2.05c19.98,7.11,28.54,19.57,28.77,40.67c0.3,26.6,0.09,53.2,0.11,79.81c0,4.66-0.14,9.32,0.11,13.96
	c0.51,9.34,1.53,10.38,11.45,13c7.92,2.09,8.86,3.5,8.34,12.43c-0.4,6.91-2.64,9.42-9.43,10.55c-19.66,3.27-27.98-0.94-38.66-19.52
	C3598.65,3680.67,3598.01,3680.31,3596.27,3678.71z"/>
<path class="st4" d="M4754.11,3961.29c-18.62,0-37.24-0.11-55.86,0.06c-6.47,0.06-8.45,2.42-8.14,8.37
	c1.2,22.6,13.41,40.46,32.19,45.8c19.06,5.41,47.01,3.83,59.4-20.01c6.98-13.43,16.56-13.21,27.97-12.5c6.03,0.37,7.81,3.4,5.56,9.5
	c-10.38,28.11-30.54,44.43-60.08,48.84c-7.19,1.07-14.6,1.05-21.9,0.88c-36.8-0.84-66.57-24.76-73.76-60.9
	c-3.89-19.58-3.96-39.61,1.9-59.23c17.63-59,83.62-74.65,129.12-43.39c13.16,9.04,20.86,21.88,25.25,37.13
	c3.38,11.72,3.48,23.63,3.61,35.57c0.08,7.41-1.97,9.54-9.41,9.63c-18.62,0.22-37.24,0.07-55.86,0.07
	C4754.11,3961.17,4754.11,3961.23,4754.11,3961.29z"/>
<path class="st4" d="M5199.7,3621.75c-17.95,0-35.91-0.05-53.86,0.02c-9.04,0.04-13.14,0.47-10.27,13.46
	c1.28,5.8,3.2,11.53,5.49,17.02c6.82,16.36,19.52,24.56,37.01,25.82c22.4,1.61,40.96-4.66,51.5-26.04c3.33-6.76,8.47-7.31,14.72-7.4
	c18.98-0.29,20.41,1.81,11.82,18.31c-11.57,22.24-29.92,35.12-54.57,38.87c-9.15,1.4-18.27,2.56-27.75,1.65
	c-34.87-3.35-63.25-28.26-69.81-63.87c-4.67-25.36-3.17-50.4,9.64-73.61c14.28-25.88,36.12-40.01,65.89-41.45
	c15.5-0.75,30.35,1.26,44.61,8.06c20.05,9.56,32.13,25.19,37.4,46.4c1.28,5.15,2.31,10.42,2.79,15.69
	c2.77,30.82,3.25,26.76-22.71,27.02c-13.96,0.14-27.93,0.02-41.89,0.02C5199.7,3621.73,5199.7,3621.74,5199.7,3621.75z"/>
<path class="st4" d="M2403.74,3605.59c-0.16,3.62-0.19,6.95-0.5,10.26c-0.27,2.89-1.95,5.03-4.88,5.3
	c-4.63,0.42-9.3,0.55-13.95,0.55c-29.3,0.05-58.6,0.01-87.9,0.04c-5.32,0.01-10.65,0.09-15.97,0.34c-3.92,0.18-5.88,2.61-6.05,6.39
	c-1.28,28.56,18.9,49.2,47.78,49.79c19.75,0.4,35.4-6.58,44.8-24.1c4.2-7.84,9.55-10.3,17.61-9.5c3.3,0.33,6.66,0.15,9.96,0.46
	c3.55,0.34,5.46,3.52,4.55,7.18c-0.32,1.29-0.49,2.65-1.01,3.85c-8.88,20.53-22.76,36.06-44.8,42.47
	c-34.31,9.97-66,6.77-91.89-20.72c-13.39-14.21-18.97-32-20.51-50.9c-2.62-31.98,4.67-60.81,29.22-83.45
	c11.66-10.76,25.46-16.88,41.16-18.45c12.63-1.27,25.37-1.63,37.67,2.09c31.19,9.43,49.15,30.43,53.61,62.75
	C2403.36,3595.22,2403.4,3600.57,2403.74,3605.59z"/>
<path class="st5" d="M4463.12,3621.77c-17.96,0-35.92-0.14-53.88,0.05c-10.66,0.11-12.43,2.56-11.13,13.29
	c1.15,9.47,4.86,17.98,10.05,25.78c3.7,5.56,8.7,9.92,14.88,12.93c21.87,10.66,51.47,5.23,64.28-15.29
	c7.87-12.62,16.74-15.16,29.42-13.85c6.48,0.67,8.13,2.78,5.85,9.11c-5.81,16.21-15.64,29.82-30.65,38.04
	c-27.95,15.3-57.17,16.73-86.04,2.43c-18.76-9.29-31.18-24.88-37.03-44.93c-7.9-27.06-7.38-54.07,5.31-79.66
	c14.13-28.49,37.02-44.56,69.6-45.18c9.33-0.18,18.64-0.06,27.74,2.38c31.24,8.41,51.69,31.01,54.38,63.9
	c2.96,36.19,5.12,30.44-26.86,30.95c-11.97,0.19-23.95,0.03-35.92,0.03C4463.12,3621.75,4463.12,3621.76,4463.12,3621.77z"/>
<path class="st4" d="M4017.95,3616.04c-0.04-11.39,1.23-22.53,4.25-33.58c11.03-40.39,46.74-64.77,91.77-59.35
	c17.52,2.11,33.39,8.75,46.43,21.29c8.82,8.49,15.65,18.07,19.1,29.93c9.17,31.44,6.94,61.79-8.28,91.03
	c-8.77,16.86-22.31,28-40.26,33.71c-20.2,6.42-40.68,7.31-60.88,0.42c-32.06-10.94-46.93-35.38-51.33-67.49
	C4018.04,3626.74,4018.2,3621.36,4017.95,3616.04z"/>
<path class="st4" d="M3094.09,3619.13c-0.49-17.01,0.81-30.18,5.44-42.9c13.72-37.76,50.6-59.43,90.31-52.94
	c3.94,0.64,7.89,1.38,11.73,2.46c31.12,8.76,50.79,28.83,56.4,60.69c3.23,18.33,2.82,37.05-1.98,55.48
	c-12.1,46.47-45.23,65.74-91.48,61.38c-41.99-3.96-68.29-33.51-70.39-75.77C3093.92,3623.53,3094.09,3619.53,3094.09,3619.13z"/>
<path class="st4" d="M2189.36,3951.82c0.95-8.23,0.99-17.73,3.24-26.67c12.9-51.17,56.27-70,98.89-61.49
	c39.32,7.85,62.36,35.61,64.05,75.63c0.79,18.76-0.44,37.18-7.78,54.87c-12.12,29.2-33.35,45.72-65.2,47.85
	c-11.98,0.8-24.03,1.2-35.8-1.57c-29.25-6.87-51.27-32.03-55.67-63.65C2190,3968.91,2189.96,3960.88,2189.36,3951.82z"/>
<path class="st4" d="M4182.14,3955.08c0.03-10.68,1.08-21.14,3.66-31.62c9.75-39.76,46.45-68.91,96.35-60.27
	c37.04,6.41,61.05,32.04,65.45,68.06c3.18,26.05-0.34,50.29-12.36,73.47c-11.37,21.93-30.07,33.38-53.86,36.63
	c-9.82,1.34-19.99,1.36-29.9,0.58c-29.16-2.29-49.63-17.4-61.51-44.02C4183.85,3984.18,4182.12,3973.61,4182.14,3955.08z"/>
<path class="st4" d="M4919.17,4043.42c-9.2-0.83-16.57-1.07-23.78-2.22c-25.85-4.11-44.62-23.24-48.45-48.94
	c-0.83-5.58,1.63-8.74,7.52-9.18c3.98-0.3,7.99-0.16,11.98-0.23c4.42-0.07,8.18,1.5,9.24,5.96c6.12,25.61,25.23,29.96,47.53,29.67
	c9.49-0.12,18.62-1.52,27.05-5.91c6.08-3.17,10.8-7.73,12.31-14.86c2.43-11.5-1.15-19.62-12.16-24.25
	c-7.92-3.33-16.38-5.49-24.71-7.75c-10.27-2.78-20.7-4.95-30.98-7.69c-5.77-1.54-11.59-3.24-17.02-5.68
	c-29.51-13.21-36.02-44.9-14.43-69.16c6.83-7.67,15.24-12.99,24.86-16.14c22.3-7.32,44.65-6.95,66.48,1.72
	c17.19,6.82,28.53,19.17,32.08,37.76c1.14,5.96-1.33,9.21-6.99,9.57c-3.98,0.26-7.99,0.15-11.98,0.07c-4.29-0.09-7.78-1.59-9.33-6
	c-3.54-10.05-9.96-17.31-20.44-20.2c-14.42-3.98-28.93-5.13-43.05,1.13c-7.11,3.15-11.84,8.63-12.55,16.72
	c-0.72,8.22,3.53,13.97,9.99,18.29c5.6,3.74,11.93,5.8,18.46,7.34c11.01,2.59,22.05,5.08,32.98,8c7.7,2.06,15.22,4.8,22.84,7.16
	c20.57,6.37,32.98,28.31,24.93,53.46c-7.21,22.52-23.86,34.7-46.43,38.96C4936.01,4042.75,4926.59,4042.78,4919.17,4043.42z"/>
<path class="st5" d="M3328.38,3546.08c1.22-0.5,2.72-0.67,3.55-1.51c19.12-19.44,42.88-22.67,68.29-19.09
	c19.6,2.76,32.75,13.92,38.53,32.94c1.91,6.29,3.46,12.98,3.53,19.51c0.41,36.57,0.4,73.14,0.32,109.71
	c-0.02,8.46-1.3,9.77-8.97,9.89c-23.56,0.36-22.26,1.93-22.26-20.71c0-27.26,0.04-54.53-0.06-81.79c-0.02-5.97,0.05-12.04-0.9-17.9
	c-2.81-17.28-13.9-26.19-31.54-27.32c-28.23-1.81-52.04,19.88-51.87,48.35c0.16,25.93-0.12,51.86-0.24,77.8
	c-0.11,23.85,2.33,21.98-23.34,21.52c-4.76-0.09-7.1-2.95-7.26-7.6c-0.12-3.32-0.17-6.65-0.17-9.97
	c-0.01-44.55-0.01-89.1-0.01-133.65c0-3.32-0.07-6.66,0.17-9.97c0.45-6.17,2.59-8.49,8.36-8.98c3.3-0.28,6.65-0.31,9.96-0.19
	c8.74,0.3,9.91,1.41,11.28,10.23C3326.24,3540.38,3324.91,3543.95,3328.38,3546.08z"/>
<path class="st6" d="M2000.28,3546.62c2.44-1.24,3.83-1.57,4.7-2.43c19.33-19.21,43.15-22.44,68.55-18.58
	c19.47,2.96,32.67,13.92,38.15,33.37c2,7.08,3.46,14.2,3.47,21.6c0.04,35.29,0.14,70.58,0.19,105.87c0,1.99-0.19,3.99-0.51,5.95
	c-0.48,2.97-2.47,4.62-5.36,4.84c-3.97,0.3-7.97,0.46-11.96,0.42c-12.62-0.14-13.34-0.7-13.41-13.72
	c-0.16-29.3-0.01-58.59-0.14-87.89c-0.03-6.64,0.03-13.4-1.13-19.9c-2.92-16.36-13.78-25.07-30.41-26.3
	c-29.3-2.16-52.77,19.91-52.75,47.5c0,5.99-0.21,11.98-0.22,17.98c-0.03,20.64,0,41.28-0.02,61.92
	c-0.03,22.37,1.53,20.78-22.62,20.19c-3.79-0.09-6.32-1.95-6.71-5.83c-0.59-5.95-1.29-11.93-1.31-17.9
	c-0.11-43.28-0.07-86.56-0.05-129.84c0-3.32,0.06-6.66,0.44-9.95c0.43-3.72,2.79-6.12,6.48-6.42c4.63-0.37,9.32-0.46,13.96-0.21
	c6.08,0.32,7.67,2.03,8.7,8.58c0.31,1.96,0.07,4,0.33,5.97C1998.84,3543.09,1999.47,3544.29,2000.28,3546.62z"/>
<path class="st4" d="M2585.47,3545.9c6.3,0.94,8.4-4.25,11.84-6.92c21.38-16.56,45.57-17.63,70.3-11.67
	c15.96,3.85,26.36,15.32,30.83,31.18c2.14,7.61,3.65,15.67,3.75,23.55c0.43,34.6,0.25,69.21,0.26,103.82c0,1.99-0.19,3.98-0.4,5.96
	c-0.32,2.98-2.07,4.78-4.97,5.28c-1.95,0.34-3.95,0.45-5.94,0.53c-19.8,0.73-19.87,0.72-19.92-19.15
	c-0.08-28.62-0.05-57.24-0.07-85.85c-0.01-8.01-0.49-15.87-3.47-23.53c-4.3-11.01-12.29-17.15-23.68-18.9
	c-30.84-4.73-55.86,15.14-56.99,46.29c-0.94,25.92-0.36,51.9-0.47,77.86c-0.02,5.32-0.06,10.65-0.2,15.97
	c-0.13,4.88-3.01,7.06-7.62,7.18c-4.66,0.12-9.32,0.24-13.97,0.04c-6.64-0.28-8.48-2-8.88-8.05c-0.22-3.32-0.14-6.65-0.15-9.98
	c-0.01-44.59-0.01-89.18,0-133.77c0-3.33-0.06-6.67,0.18-9.98c0.44-5.84,2.66-7.9,8.83-8.49c1.32-0.13,2.66-0.15,3.99-0.19
	c13.61-0.38,14.17,0.13,15.61,13.71C2584.52,3542.56,2585.1,3544.29,2585.47,3545.9z"/>
<path class="st4" d="M4415.06,3885.28c4.8,0.87,6.49-2.57,8.91-4.58c19.22-15.98,41-20.75,65.41-15.96
	c22.14,4.35,35.4,17.28,39.9,39.19c1.06,5.18,1.49,10.57,1.51,15.87c0.16,34.62,0.13,69.24,0.13,103.86c0,2.65-0.21,5.31-0.52,7.95
	c-0.35,2.99-2.2,4.92-5.16,5.05c-24.13,1.05-25.43,3.24-25.44-21.99c-0.01-26.63,0.09-53.26-0.09-79.9
	c-0.05-7.3-0.2-14.73-1.59-21.85c-2.62-13.47-12.79-22.07-26.28-23.44c-30.37-3.09-51.84,13.59-55.99,43.77
	c-0.72,5.25-0.64,10.62-0.66,15.94c-0.07,21.97-0.03,43.94-0.05,65.91c0,4.66-0.04,9.32-0.19,13.98c-0.14,4.5-2.06,7.71-7,7.84
	c-23.7,0.59-22.39,1.92-22.39-20.59c0-43.28,0-86.55,0.01-129.83c0-3.99,0.01-7.99,0.17-11.98c0.18-4.49,2.13-7.72,7.03-7.89
	c6.57-0.23,13.25-1.15,20.23,1.54C4413.71,3874.02,4414.39,3879.74,4415.06,3885.28z"/>
<path class="st3" d="M3563.98,3886.01c6.45-1.35,8.76-5.88,12.46-8.53c22.35-16,46.71-18.44,72.16-9.92
	c17.47,5.85,26.16,19.8,29.55,37.19c1.14,5.83,1.26,11.92,1.29,17.89c0.15,33.28,0.13,66.56,0.15,99.84c0,2.66-0.03,5.33-0.32,7.97
	c-0.4,3.68-2.4,6.15-6.28,6.35c-4.65,0.23-9.31,0.4-13.96,0.22c-7.51-0.28-9.13-1.72-9.18-9.81c-0.21-29.28-0.21-58.57-0.12-87.86
	c0.03-8.7-0.43-17.29-2.6-25.73c-4.02-15.66-13.73-23.41-29.84-24.3c-17.04-0.95-31.48,4.05-42.4,17.65
	c-4.66,5.8-8.18,12.16-8.91,19.72c-0.83,8.59-2.08,17.19-2.2,25.79c-0.32,22.63-0.11,45.26-0.14,67.89c0,3.32,0,6.67-0.31,9.97
	c-0.34,3.65-2.26,6.27-6.18,6.43c-5.31,0.22-10.64,0.25-15.95,0.12c-3.74-0.09-6.21-2.1-6.57-5.96c-0.31-3.3-0.4-6.64-0.4-9.96
	c-0.02-46.59-0.03-93.18,0.01-139.78c0-3.31,0.07-6.7,0.82-9.88c0.38-1.6,2.13-3.31,3.7-4.07c1.69-0.82,3.89-0.76,5.87-0.78
	c18.78-0.21,18.09-0.7,18.39,16.86C3563.03,3883.95,3563.45,3884.57,3563.98,3886.01z"/>
<path class="st4" d="M4006.29,3954.37c-0.27-11.47,1.2-21.91,3.92-32.29c11.46-43.73,49.79-66.64,94.74-58.87
	c9.16,1.58,18.04,4.25,26.2,9.14c17.61,10.54,24.52,27.17,26.98,46.38c0.37,2.89-1.5,5.12-4.52,5.48c-3.29,0.4-6.65,0.15-9.94,0.51
	c-8.18,0.89-14.29-1-16.63-10.07c-0.97-3.77-3.14-7.31-5.17-10.72c-3.11-5.24-7.48-9.23-13.02-11.96
	c-20.9-10.28-47.24-2.76-59.63,16.95c-4.7,7.48-7.16,15.77-8.67,24.26c-3.68,20.6-3.72,40.91,5.77,60.39
	c7.47,15.34,19.79,22.66,36.44,23.46c16.64,0.8,29.91-5.35,38.78-19.66c2.77-4.47,4.46-9.6,6.67-14.41
	c1.45-3.15,3.48-5.91,7.27-5.84c7.18,0.12,16.28-3.45,20.98,2.24c4.92,5.97-0.85,13.93-3.32,20.52
	c-9.07,24.26-28.3,36.03-52.61,40.6c-10.48,1.97-21.26,1.94-31.8,0.25c-22.45-3.62-38.96-16.1-50.41-35.47
	C4008.94,3989.32,4005.24,3971.99,4006.29,3954.37z"/>
<path class="st4" d="M3993.06,3639.15c-1.4,31.89-20.28,54.06-52.52,61.15c-13.09,2.88-26.58,3.11-39.65,0.39
	c-20.61-4.29-36-16.28-46.56-34.57c-14.12-24.47-14.46-50.62-9.53-77.35c2.56-13.92,8.08-26.6,17.13-37.71
	c26.48-32.52,71.06-35.56,103.36-18.84c18.75,9.71,26.6,27.07,28.82,47.29c0.31,2.86-1.62,4.97-4.67,5.32
	c-2.63,0.31-5.32,0.14-7.95,0.45c-9.68,1.16-16.27-1.46-19.35-12c-2.64-9.06-8.56-16.36-17.53-20.73
	c-21.04-10.23-47.24-2.69-59.58,17.24c-4.28,6.91-6.55,14.53-8.14,22.36c-4.05,19.89-4.29,39.64,3.88,58.68
	c9.49,22.13,30.9,31.9,54.02,25.12c11.61-3.4,19.58-10.91,24.89-21.47c1.78-3.54,2.94-7.39,4.54-11.04c1.39-3.18,3.5-5.79,7.32-5.79
	C3978.74,3637.67,3986.1,3636.1,3993.06,3639.15z"/>
<path class="st4" d="M187.4,3462.73c-12.07,0.04-23.9-1.23-35.27-5.52c-8.8-3.32-16.87-7.88-23.61-14.5
	c-15.82-15.52-17.44-38.53-3.75-56.03c7.07-9.04,15.85-16.1,26.66-20.28c23.93-9.24,47.94-9.37,72-0.39
	c10.91,4.07,19.71,11.06,26.97,19.89c14.6,17.76,12.93,41.7-3.89,57.48c-11.56,10.85-25.76,16.2-41.21,18.32
	C199.4,3462.51,193.37,3462.42,187.4,3462.73z"/>
<path class="st7" d="M5025.71,3613.63c0-17.28,0.15-34.55-0.06-51.83c-0.11-8.64-1.33-9.65-10.56-10.87
	c-2.62-0.35-5.31-0.27-7.93-0.61c-2.93-0.37-4.84-2.14-5.03-5.11c-0.26-3.96-0.39-7.96-0.16-11.92c0.16-2.81,1.88-4.83,4.75-5.65
	c5.63-1.6,13.03,1.8,16.92-3.42c4.57-6.13,1.42-14.18,2.09-21.36c0.18-1.98,0-3.98,0.04-5.98c0.26-16.07,0.48-16.28,16.97-16.12
	c12.92,0.12,13.79,0.91,14.18,13.18c0.1,3.32-0.1,6.65,0.06,9.97c0.31,6.56-2,13.88,1.69,19.5c4.28,6.52,12.23,2.71,18.5,3.81
	c5.69,1,7.7,3.07,8.06,9.34c0.12,1.98-0.01,3.98-0.03,5.98c-0.05,4.61-2.14,7.38-6.89,8.1c-6.42,0.98-14.32-2.44-19.02,3.03
	c-5.02,5.85-2.15,14.08-2.23,21.23c-0.28,25.25-0.13,50.5-0.08,75.75c0.01,4.64,0.03,9.31,0.51,13.92c0.53,5.11,3.37,8.58,8.67,9.45
	c2.61,0.43,5.29,0.44,7.92,0.79c10.26,1.37,11.25,2.49,11.22,12.27c-0.03,9.06-2.2,11.9-11.35,12.95
	c-5.91,0.68-11.99,0.89-17.89,0.29c-19.09-1.93-28.56-11.58-29.92-30.89c-0.74-10.58-0.31-21.25-0.37-31.88
	c-0.04-7.97-0.01-15.95-0.01-23.92C5025.74,3613.63,5025.72,3613.63,5025.71,3613.63z"/>
<path class="st6" d="M2939.55,3612.21c0-15.97-0.08-31.94,0.03-47.91c0.07-10.24-1.06-13.88-11.87-13.49
	c-1.99,0.07-4.02,0.02-5.97-0.31c-3.67-0.61-5.92-2.81-6.06-6.64c-0.12-3.32-0.17-6.65,0.08-9.96c0.29-3.86,2.9-5.59,6.47-6.4
	c5.08-1.16,11.44,1.43,15.15-2.87c4.15-4.81,1.77-11.51,2.15-17.39c0.21-3.31,0-6.65,0.05-9.98c0.24-16.34,0.58-16.67,16.83-16.49
	c13.07,0.15,13.75,0.76,14.11,13.1c0.08,2.66-0.11,5.33,0.05,7.98c0.44,7.24-2.37,15.37,1.59,21.52c4.62,7.2,13.53,2.39,20.39,3.94
	c3.77,0.85,5.97,2.72,6.26,6.45c0.25,3.3,0.18,6.65,0.03,9.96c-0.17,3.71-2.01,6.16-5.89,6.69c-1.31,0.18-2.65,0.36-3.97,0.32
	c-20.28-0.54-18.37,1.78-18.41,18.91c-0.07,27.28-0.03,54.56,0.01,81.84c0.01,3.99-0.04,8,0.44,11.95
	c0.75,6.27,3.77,9.39,10.06,10.68c2.58,0.53,5.28,0.53,7.93,0.71c3.27,0.23,7.32-0.3,8.72,3.25c2.24,5.66,2.15,11.75-0.2,17.43
	c-0.6,1.45-2.94,2.58-4.71,3.1c-11.89,3.54-23.69,2.58-35.26-1.49c-6.66-2.34-11.12-7.19-13.73-13.64
	c-3.03-7.47-4.43-15.22-4.31-23.36c0.23-15.97,0.07-31.94,0.07-47.9C2939.57,3612.21,2939.56,3612.21,2939.55,3612.21z"/>
<path class="st7" d="M2164.13,3611.82c0-16.61,0.15-33.21-0.06-49.82c-0.11-9.06-1.25-10.04-10.13-11.08
	c-2.63-0.31-5.34-0.06-7.93-0.53c-3.69-0.66-5.62-3.21-5.8-6.93c-0.13-2.65-0.08-5.31-0.02-7.96c0.12-4.61,2.51-7.2,7.05-8.15
	c5.02-1.05,11.29,1.63,14.92-3.16c3.83-5.05,1.49-11.57,1.98-17.43c0.11-1.32,0.02-2.66,0.02-3.98
	c-0.01-23.33-1.66-22.51,23.29-21.78c4.61,0.13,7.44,2.45,7.52,7.28c0.16,9.3,0.06,18.6,0.33,27.89
	c0.27,9.25,1.19,10.07,10.32,10.78c1.32,0.1,2.66,0.12,3.98,0.08c14.23-0.37,14.53,2.58,13.65,17.23c-0.23,3.85-2.52,5.73-6.26,6.32
	c-6.44,1.02-14.47-2.46-19.09,2.67c-5.61,6.24-2.49,15.2-2.58,22.95c-0.3,24.57-0.11,49.15-0.1,73.73c0,3.98-0.15,7.99,0.22,11.95
	c0.76,8.17,3.86,11.18,12.62,12.61c1.95,0.32,3.99,0.13,5.96,0.38c8.26,1.06,9.19,2.02,9.49,9.5c0.49,12.11-1.26,14.87-12.37,15.81
	c-30.76,2.61-46.88-6.6-46.94-40.51c-0.03-15.94,0-31.88,0-47.82C2164.16,3611.82,2164.15,3611.82,2164.13,3611.82z"/>
<path class="st8" d="M5050.41,3820.17c0.67,0,1.33-0.01,2,0c12.36,0.24,13.17,1.03,13.51,13.79c0.1,3.99-0.17,7.99,0.08,11.97
	c0.36,5.87-2.02,12.47,1.78,17.45c4.2,5.5,11.13,2.35,16.84,3c7.82,0.89,9.32,2.08,9.58,9.48c0.09,2.65-0.04,5.32-0.22,7.96
	c-0.27,3.94-2.71,5.85-6.43,6.09c-5.3,0.35-10.62,0.41-15.92,0.76c-3.04,0.2-4.79,2.2-5.12,5.09c-0.38,3.29-0.52,6.62-0.53,9.93
	c-0.03,29.26-0.03,58.51,0.01,87.77c0,3.32,0.08,6.66,0.47,9.94c0.61,5.14,3.66,8.42,8.62,9.77c1.9,0.52,3.93,0.58,5.9,0.82
	c3.85,0.47,8.68-1.22,11.23,2.38c3.68,5.19,2.23,11.48,1.25,17.29c-0.25,1.46-2.48,3.16-4.14,3.7c-11.77,3.85-23.63,3.46-35.28-0.43
	c-8.11-2.7-13.09-8.74-15.91-16.71c-2.7-7.64-3.25-15.52-3.21-23.57c0.12-28.59,0.06-57.18,0.03-85.77c0-4.65,0.06-9.32-0.31-13.95
	c-0.29-3.63-2.37-6.09-6.26-6.41c-2.65-0.22-5.32-0.13-7.96-0.42c-8.54-0.95-9.67-2.35-9.56-11.44c0.12-9.89,1.14-11.02,11.26-12.26
	c1.31-0.16,2.67-0.01,3.98-0.17c7.95-0.99,8.52-1.49,8.76-10.1c0.24-8.64-0.04-17.29,0.24-25.93c0.25-7.56,2.23-9.45,9.34-9.93
	c1.99-0.13,3.99-0.02,5.98-0.02C5050.41,3820.22,5050.41,3820.19,5050.41,3820.17z"/>
<path class="st9" d="M4581.07,3953.5c0-16.65,0.17-33.3-0.06-49.94c-0.16-11.65-0.97-12.28-12.24-13.37c-1.98-0.19-4-0.07-5.99-0.24
	c-4.89-0.41-6.83-3.45-6.86-8.02c-0.02-2.66-0.07-5.34,0.2-7.97c0.47-4.59,3.09-7.14,7.77-7.4c1.99-0.11,4-0.04,5.99-0.24
	c10.36-1.02,10.86-1.47,11.15-12.1c0.24-8.65,0.1-17.31,0.29-25.96c0.1-4.56,2.32-7.67,7.16-7.82c23.79-0.73,22.43-1.65,22.46,20.58
	c0.01,5.99,0.04,11.98,0.25,17.97c0.17,4.81,3.06,7.02,7.7,7.19c2,0.07,4,0.27,5.99,0.17c14.73-0.78,14.78,3.44,14.1,17.02
	c-0.19,3.75-2.26,5.86-6.11,6.5c-6.45,1.07-14.5-2.46-19.15,2.59c-5.72,6.21-2.58,15.23-2.68,23c-0.3,23.97-0.12,47.94-0.1,71.91
	c0.01,4.66-0.19,9.36,0.35,13.96c0.94,7.97,4.55,11.29,12.95,12.52c2.62,0.38,5.32,0.25,7.97,0.43c5.01,0.33,6.77,3.54,6.84,8.02
	c0.05,3.32-0.06,6.65-0.29,9.96c-0.21,3-2.15,4.58-4.92,5.4c-11.93,3.53-23.8,2.72-35.4-1.07c-8.25-2.7-12.97-9.43-15.14-17.38
	c-1.56-5.69-1.96-11.81-2.06-17.75c-0.26-15.98-0.09-31.96-0.09-47.94C4581.13,3953.5,4581.1,3953.5,4581.07,3953.5z"/>
<path class="st7" d="M2615.78,3887.04c6.5-1.1,9.43-6.87,13.66-10.77c8.69-8.01,18.9-12.21,30.48-13.31
	c7.88-0.75,11.31,2.17,11.65,9.78c0.2,4.64,0.09,9.31-0.11,13.96c-0.16,3.69-1.99,6.24-5.96,6.54c-3.31,0.25-6.66,0.12-9.95,0.53
	c-22.87,2.8-38.72,19.24-40.21,42.31c-0.64,9.94-0.25,19.94-0.28,29.91c-0.05,20.61,0.07,41.23-0.17,61.84
	c-0.09,7.75-1.63,8.89-9.65,9.31c-20.2,1.05-20.96,0.42-21-20.56c-0.08-43.22-0.04-86.44,0-129.66c0-4.64,0.11-9.3,0.56-13.92
	c0.36-3.75,2.97-5.73,6.59-6.3c1.31-0.21,2.65-0.28,3.97-0.29c15.36-0.11,19.52-1.22,19.03,16.8
	C2614.37,3884.4,2615.26,3885.64,2615.78,3887.04z"/>
<path class="st5" d="M2087.59,3952.27c0-21.96-0.02-43.92,0.02-65.88c0.01-4.65-0.02-9.33,0.48-13.93c0.19-1.75,1.52-4.45,2.85-4.81
	c7.11-1.93,14.44-2.25,21.52,0.09c1.42,0.47,2.83,2.88,3.1,4.58c0.72,4.57,0.72,9.26,1.32,13.86c0.07,0.52,2.72,1.47,3.23,1.06
	c3.57-2.93,6.97-6.08,10.27-9.31c9.44-9.25,20.76-14.19,33.9-14.99c6.79-0.41,10.12,2.38,10.59,8.77c0.19,2.65,0.15,5.32,0.14,7.98
	c-0.04,11.89,0.15,13.17-13,14.09c-28.09,1.97-43.01,18.39-43.46,46.92c-0.39,24.62-0.09,49.24-0.14,73.86
	c-0.01,5.32-0.08,10.64-0.36,15.95c-0.2,3.83-2.59,6.26-6.31,6.36c-26.02,0.73-24.13,2.37-24.14-20.72
	C2087.58,3994.86,2087.59,3973.56,2087.59,3952.27z"/>
<path class="st3" d="M4327.36,3580.26c0,31.98,0.03,63.96-0.02,95.94c-0.01,5.32-0.21,10.64-0.6,15.94
	c-0.22,2.96-2.18,4.74-5.17,5.04c-2.64,0.27-5.31,0.42-7.97,0.45c-15.18,0.15-15.62-0.09-15.64-15.41
	c-0.09-67.29-0.04-134.58-0.02-201.87c0-3.32,0.15-6.66,0.52-9.96c0.33-2.91,2.19-4.72,5.15-5.05c2.64-0.29,5.3-0.47,7.96-0.5
	c14.96-0.19,15.67,0.33,15.73,15.48C4327.45,3513.63,4327.36,3546.94,4327.36,3580.26z"/>
<path class="st3" d="M4251.63,3581.75c0,31.2,0.02,62.4-0.02,93.6c-0.01,5.3-0.15,10.61-0.43,15.91c-0.15,2.82-1.68,5.48-4.5,5.65
	c-6.59,0.41-13.23,0.36-19.81-0.03c-1.43-0.08-3.64-2.18-3.93-3.65c-0.75-3.87-0.83-7.9-0.83-11.86
	c-0.04-66.38-0.07-132.76,0-199.14c0.02-17.66,0.41-17.89,17.62-17.38c1.98,0.06,3.97,0.22,5.94,0.49c2.9,0.39,5.01,2.02,5.26,4.96
	c0.44,5.28,0.66,10.58,0.67,15.88C4251.66,3518.03,4251.63,3549.89,4251.63,3581.75z"/>
<path class="st3" d="M3707.12,3581.65c0,31.31,0.01,62.63-0.01,93.94c0,4.66-0.04,9.33-0.15,13.99c-0.11,4.5-1.88,7.77-6.91,7.87
	c-23.69,0.5-22.38,2-22.38-20.62c-0.01-64.63,0.03-129.25-0.02-193.88c-0.01-19.07,0.3-18.34,19.16-18.04
	c8.64,0.14,10.14,1.58,10.18,10.81c0.15,35.31,0.06,70.62,0.06,105.93C3707.08,3581.65,3707.1,3581.65,3707.12,3581.65z"/>
<path class="st9" d="M2471.9,3550.45c6.82-6.3,11.44-10.91,16.41-15.09c9.59-8.05,20.55-12.14,33.25-10.51
	c3.73,0.48,6.11,2.59,6.28,6.4c0.24,5.31,0.27,10.64,0.13,15.95c-0.1,3.7-2.01,6.18-5.94,6.57c-1.98,0.19-4,0.11-5.98,0.34
	c-28.68,3.37-43.73,19.77-44.35,49.07c-0.41,19.3-0.08,38.62-0.14,57.93c-0.03,9.98-0.08,19.97-0.33,29.95
	c-0.09,3.76-2.32,6.16-6.18,6.3c-5.31,0.19-10.64,0.2-15.96,0.04c-3.75-0.11-6.13-2.18-6.54-6.02c-0.28-2.64-0.4-5.31-0.4-7.96
	c-0.03-47.27-0.03-94.55-0.02-141.82c0-2.66-0.08-5.35,0.28-7.98c0.51-3.7,2.86-5.86,6.61-6.19c2.65-0.24,5.31-0.3,7.97-0.31
	c9.87-0.02,14.74,1.02,13.66,13.95C2470.51,3542.98,2471.15,3544.97,2471.9,3550.45z"/>
<path class="st10" d="M3059.26,3613.68c-0.01,23.32,0.12,46.64-0.05,69.95c-0.1,14.01-0.3,14.01-14.99,14.08
	c-16.11,0.08-16.32,0.05-16.36-16.86c-0.1-45.3-0.04-90.6-0.03-135.9c0-2.66,0.07-5.33,0.16-7.99c0.16-4.59,2.37-7.79,7.08-7.92
	c26.22-0.71,24.12-2.37,24.18,20.7C3059.31,3571.04,3059.27,3592.36,3059.26,3613.68z"/>
<path class="st10" d="M1923.66,3615.59c0,23.32,0.13,46.64-0.06,69.95c-0.09,11.51-0.79,11.91-12.89,12.15
	c-18.2,0.36-18.4,0.34-18.44-16.77c-0.1-45.3-0.04-90.6-0.03-135.9c0-2.66-0.05-5.34,0.17-7.99c0.49-5.89,2.55-8.07,8.98-8.16
	c23.77-0.31,22.25-1.93,22.28,20.77c0.03,21.98,0.01,43.97,0.01,65.95C1923.68,3615.59,1923.67,3615.59,1923.66,3615.59z"/>
<path class="st3" d="M4787.19,3611.58c0,21.91,0.02,43.83-0.02,65.74c-0.01,4.64-0.08,9.29-0.41,13.92
	c-0.27,3.8-2.63,5.85-6.41,6.13c-2.65,0.19-5.3,0.27-7.96,0.27c-14.27,0.05-14.96-0.39-15.07-14c-0.19-23.24-0.06-46.48-0.07-69.73
	c0-21.91-0.03-43.83,0.03-65.74c0.01-4.64,0.2-9.29,0.62-13.9c0.27-2.92,2.29-4.58,5.21-5.01c1.31-0.19,2.63-0.34,3.95-0.42
	c19.52-1.08,20.01-0.69,20.09,18.98C4787.26,3569.08,4787.19,3590.33,4787.19,3611.58z"/>
<path class="st3" d="M3487.91,3953c0,21.25,0.02,42.49-0.02,63.74c-0.01,4.64-0.03,9.3-0.43,13.91c-0.32,3.7-2.66,5.86-6.45,6.18
	c-1.98,0.16-3.97,0.25-5.96,0.29c-16.43,0.35-17.01-0.03-17.08-16c-0.14-30.54-0.06-61.08-0.04-91.62
	c0.01-17.26,0.05-34.52,0.12-51.78c0.01-3.35,0.27-7.37,3.79-8.39c7.08-2.05,14.48-1.8,21.65-0.09c1.48,0.35,3.3,2.59,3.54,4.17
	c0.68,4.56,0.83,9.24,0.84,13.87C3487.95,3909.18,3487.91,3931.09,3487.91,3953z"/>
<path class="st11" d="M4772.08,3498.48c-6.68,0.05-13.19-0.51-18.84-4.67c-8.34-6.13-9.05-16.74-1.55-23.9
	c10.6-10.13,28.89-10.35,39.74-0.49c8.54,7.75,7.52,18.48-2.36,24.88C4784.15,3497.5,4780.34,3498.44,4772.08,3498.48z"/>
<path class="st12" d="M3472.81,3837.92c-6.71,0.35-13.08-0.93-18.64-5c-8.54-6.25-9.18-16.54-1.56-23.77
	c10.5-9.95,29.04-10.09,39.71-0.29c7.92,7.27,7.59,17.28-0.84,23.77C3485.99,3836.86,3479.66,3838.23,3472.81,3837.92z"/>
<path class="st13" d="M1910.05,3498.52c-8.4-0.13-14.94-0.5-20.61-4.86c-8.19-6.3-8.81-17.07-1.19-24.07
	c9.15-8.42,24.36-9.88,35.25-3.3c6.16,3.72,9.61,9.1,8.96,16.49c-0.68,7.61-5.79,11.76-12.38,14.03
	C1916.39,3498.08,1912.29,3498.17,1910.05,3498.52z"/>
<path class="st13" d="M3043.75,3498.49c-6.68-0.11-13.21-0.52-18.85-4.92c-8.1-6.31-8.63-17.17-0.99-24.08
	c9.83-8.88,26.18-9.78,36.91-2.03c10.39,7.5,9.49,21.67-1.67,27.88C3054.29,3498.04,3049.07,3498.37,3043.75,3498.49z"/>
<path class="st14" d="M2706.86,2402.76c50.58,0,101.16,0,151.73,0.01c5.32,0,10.65-0.03,15.97,0.17c3.61,0.14,6.75,1.72,6.82,5.72
	c0.22,13.29,0.18,26.58,0.09,39.87c-0.02,2.99-1.95,4.96-4.89,5.25c-3.96,0.39-7.95,0.5-11.93,0.51
	c-105.15,0.02-210.3,0.02-315.45,0.02c-2,0-3.99,0.05-5.99-0.02c-10.5-0.37-11.09-0.83-11.25-11.65
	c-0.16-10.64-0.03-21.29,0.1-31.93c0.06-4.57,2.18-7.62,7.11-7.77c5.32-0.16,10.65-0.16,15.97-0.16
	C2605.71,2402.75,2656.29,2402.76,2706.86,2402.76z"/>
<path class="st14" d="M2707.38,2502.01c50.63,0,101.25-0.01,151.88,0.01c5.33,0,10.67-0.06,15.98,0.25
	c3.71,0.21,6.05,2.34,6.37,6.26c0.11,1.33,0.27,2.66,0.25,3.98c-1,48.67,8.23,40.59-38.56,40.81
	c-94.59,0.44-189.18,0.13-283.78,0.13c-4.66,0-9.33,0.09-13.99-0.04c-12.72-0.36-13.35-0.9-13.57-13.91
	c-0.17-9.99,0-19.98,0.09-29.97c0.05-4.85,2.8-7.21,7.47-7.34c5.33-0.16,10.66-0.17,15.98-0.17
	C2606.12,2502,2656.75,2502.01,2707.38,2502.01z"/>
<path class="st15" d="M2709.06,2651.2c-52.56,0-105.13-0.02-157.69,0.01c-17.45,0.01-17.85,0.11-17.57-17.67
	c0.59-38.06-5.62-32.43,32.62-32.54c97.81-0.27,195.62-0.1,293.43-0.08c24.57,0,22.48-1.58,22.55,22.72
	c0.02,6.65-0.07,13.3-0.18,19.95c-0.08,4.84-2.9,7.17-7.48,7.37c-5.31,0.23-10.64,0.22-15.96,0.22
	C2808.87,2651.21,2758.96,2651.2,2709.06,2651.2z"/>
<path class="st16" d="M2703,2750.14c-19.24,0-38.47,0.12-57.71-0.06c-8.35-0.08-9.92-1.32-9.75-8.86
	c1.17-51.78-9.9-41.42,40.15-42.39c27.19-0.53,54.39-0.1,81.59-0.07c3.31,0,6.63,0.08,9.92,0.41c2.9,0.3,4.76,2.24,5.34,5
	c0.54,2.57,0.92,5.26,0.79,7.87c-0.55,11.82,1.79,23.77-1.59,35.46c-11.28,5.52-23.27,1.9-34.91,2.54
	c-11.24,0.61-22.55,0.13-33.82,0.13C2703,2750.17,2703,2750.15,2703,2750.14z"/>
<path class="st15" d="M4616.03,1216.54c13.52,6.11,24.74,11.25,36.02,16.25c5.04,2.23,8.68,5.4,11.24,10.59
	c21.22,42.94,42.73,85.74,64.1,128.62c0.54,1.08,0.41,2.5,0.58,3.77c-0.26,0.61-0.38,1.38-0.82,1.8c-0.41,0.39-1.17,0.59-1.78,0.59
	c-77.89,0.03-155.79,0.02-233.36,0.02c-3.41-5.38-0.18-9.35,1.59-13.48c18.32-42.82,36.67-85.62,55.02-128.43
	c1.57-3.67,3.25-7.29,4.77-10.98c4.15-10.03,4.06-10.42-4.59-15.85c-5.07-3.18-10.23-6.21-15.38-9.26
	c-58.63-34.75-113.39-74.66-162.79-121.73c-97.86-93.24-164.79-204.69-197.84-336.07c-17.32-68.87-25.62-138.76-21.72-209.75
	c3.88-70.66,20.26-138.14,55.22-200.31c41.48-73.76,101.74-127.45,177.41-164.26c49.46-24.06,101.7-38.86,156.34-45.3
	c117.04-13.79,228.19,4.67,331.92,61.62c65.39,35.9,119.24,84.62,158.04,148.95c28.24,46.82,45.18,97.57,52.59,151.68
	c8.59,62.78,3.65,124.87-9.05,186.57c-16.61,80.71-43.58,157.7-84.36,229.49c-64.63,113.78-153.19,203.76-267.93,267.43
	c-19.22,10.66-39.1,19.77-59.88,27.06C4646.45,1200.78,4632.21,1207.66,4616.03,1216.54z"/>
<path class="st15" d="M4751.47,1217.5c34.05-11.34,67.1-20.25,100.83-26.92c28.13-5.57,56.35-8.8,85.05-7.52
	c11.41,0.51,22.27,3,32.82,7.29c15.25,6.2,22.53,17.81,23.38,33.86c0.18,3.31,0.18,6.65-0.1,9.95
	c-1.85,21.98-12.6,33.37-34.61,37.11c-17.95,3.05-35.94,1.88-53.54-1.33c-52.41-9.55-102.27-27.35-150.95-48.65
	C4753.84,1221.05,4753.56,1220.28,4751.47,1217.5z"/>
<path class="st15" d="M4450.97,1241.34c-14.37,10.93-28.56,16.63-42.87,21.73c-45.74,16.29-93.01,22.53-141.41,19.41
	c-15.92-1.03-31.74-3.64-46.67-9.84c-21.45-8.92-24.19-19.35-10.19-38.21c10.9-14.69,26.27-22.37,43.42-26.45
	c18.23-4.34,36.85-5.54,55.58-3.67c46.65,4.65,91.5,16.54,135.06,33.63C4445.73,1238.65,4447.47,1239.64,4450.97,1241.34z"/>
<path class="st15" d="M902.36,3788.67c-0.19-21.21,2.08-49.69,9.7-77.53c5.12-18.7,12.06-36.58,22.81-52.94
	c18.6-28.3,44.54-45.64,77.64-51.43c19.07-3.33,38.57-3.19,57.72,0.23c42.04,7.49,70.63,32.38,88.68,70.23
	c7.49,15.7,12.63,32.31,15.63,49.38c7.8,44.45,6.93,88.83-3.4,132.83c-5.53,23.56-14.82,45.53-30.32,64.52
	c-31.84,39.03-73.17,53.76-122.47,47.6c-30.05-3.76-56.51-15.23-76.85-38.43c-14.28-16.28-23.43-35.4-29.96-55.93
	C903.16,3850.78,902.01,3823.58,902.36,3788.67z"/>
<path class="st15" d="M904.93,3273.74c-24.05,0.67-46.2-5.54-65.28-20.33c-15.33-11.89-25.19-27-24.83-47.6
	c0.26-14.9,5.98-27.17,15.96-37.55c22.92-23.83,52.01-31.11,83.77-29.07c15.28,0.98,30.07,5.45,43.66,12.98
	c10,5.54,18.78,12.57,25.55,21.89c16.33,22.47,15.05,48.71-3.54,69.43c-16.89,18.84-38.91,27.16-63.35,30.17
	C912.96,3274.16,908.92,3273.74,904.93,3273.74z"/>
<path class="st15" d="M639.06,3245.76c20.2-0.46,37.72,5.66,52.33,20.19c16.92,16.84,21.32,50.46-8.45,68.22
	c-25.97,15.49-53.59,19.09-82.46,9.42c-10.94-3.67-20.35-9.78-26.26-20.27c-8.91-15.82-7.16-34.57,5.34-50.36
	c13.12-16.57,30.86-24.76,51.53-27.16C633.71,3245.5,636.4,3245.76,639.06,3245.76z"/>
<path class="st15" d="M2511.02,3951.37c0.62,12.78-1.84,25.05-7.5,36.6c-11.4,23.25-38.81,33.78-62.69,23.85
	c-14.03-5.84-22.09-17.43-24.82-31.65c-3.65-18.99-3.99-38.35,1.78-57.17c6.74-21.99,21.93-33.25,43.96-33.31
	c21.8-0.06,38.1,11.52,45.26,32.2C2510.32,3931.41,2511.48,3941.25,2511.02,3951.37z"/>
<path class="st15" d="M3745.9,3954.53c-0.02-11.99,0.57-23.87,5.06-35.24c7.62-19.33,22.04-29.4,42.76-29.6
	c20.94-0.21,37.92,10.6,44.59,30.11c7.54,22.06,7.57,44.53-1.87,66.11c-13.2,30.18-40.28,32.3-61.39,26.45
	c-12.05-3.34-19.67-12.97-24.53-24.54C3746.02,3977.1,3745.77,3965.86,3745.9,3954.53z"/>
<path class="st15" d="M4682.78,3611.75c0.61,11.83-0.94,23.64-6.05,34.73c-9.33,20.24-24.09,29.6-47.62,29.62
	c-18.27,0.02-33.17-10.87-38.94-28.87c-7.52-23.46-7.12-47.3,2.31-70.21c7.66-18.62,22.9-27.07,42.72-26.76
	c19.88,0.31,33.97,10.21,42.34,28.02C4682.45,3588.73,4683.19,3600.06,4682.78,3611.75z"/>
<path class="st15" d="M1922.91,3953.94c-0.32-14.06,1.87-27.66,7.95-40.56c8.31-17.62,22.19-25.1,41.52-24.9
	c19.47,0.21,33.47,8.53,40.73,26.23c9.98,24.33,9.85,49.47,0.2,73.75c-9.82,24.7-36.68,35.13-61.04,25.56
	c-11.97-4.7-19.42-13.49-24.35-24.85C1923.01,3977.94,1922.56,3966.01,1922.91,3953.94z"/>
<path class="st17" d="M398.68,3394.6c-6.63-0.3-13.28-0.38-19.89-0.94c-8.74-0.74-16.96-3.54-24.3-8.24
	c-17.65-11.3-18.25-34.38-1.37-46.89c6.57-4.87,14.24-7.29,22.13-8.4c15.19-2.13,30.52-2.27,45.67,0.02
	c6.44,0.97,13.03,3.08,18.78,6.13c9.94,5.26,16.08,13.44,15.98,25.53c-0.1,12.07-6.38,19.95-16.29,25.39
	c-7.03,3.86-14.75,6.12-22.79,6.59c-5.95,0.35-11.94,0.07-17.91,0.07C398.69,3394.1,398.69,3394.35,398.68,3394.6z"/>
<path class="st17" d="M2805.74,3953.5c3.33,10.94,2.89,21.52,0.68,31.8c-2.18,10.15-8.92,17.67-17.86,22.88
	c-12.33,7.19-25.65,10.78-39.98,9.34c-3.88-0.39-7.8-1.49-11.43-2.96c-10.15-4.11-16.17-11.84-16.42-22.77
	c-0.24-10.79,5.02-19.25,14.8-23.99c5.3-2.57,11.16-4.85,16.94-5.39C2770.3,3960.77,2787.83,3957.61,2805.74,3953.5z"/>
<path class="st17" d="M4940.57,3614.18c3.05,9.78,2.22,19.13,1.06,28.24c-1.52,11.99-8.78,20.64-19,26.64
	c-13.02,7.64-27.19,10.57-42.19,8.86c-12.92-1.47-23.51-10.83-25.29-21.93c-1.96-12.26,5.77-24.67,18.81-29.45
	c4.96-1.82,10.22-3.43,15.44-3.85C4906.6,3621.32,4923.47,3618.01,4940.57,3614.18z"/>
<path class="st17" d="M2854.32,3614.26c2.93,11.29,2.32,21.73,0.43,32.11c-1.5,8.24-6.7,14.36-13.15,19.21
	c-14.47,10.88-30.96,14.76-48.71,12.03c-15.76-2.42-24.25-13.97-22.91-29.41c0.76-8.72,5.11-15.13,12.7-18.77
	c5.89-2.83,12.27-5.49,18.67-6.25C2818.94,3621.09,2836.44,3618.57,2854.32,3614.26z"/>
<path class="st18" d="M3595.86,3615.15c3.21,6.18,1.93,12.92,1.62,19.39c-0.81,17.4-9.26,29.63-25.26,37.17
	c-12.44,5.87-25.27,7.91-38.59,5.97c-16.59-2.42-25.57-14.98-23.15-31.01c1.3-8.64,6.44-14.25,13.89-18.08
	c7.15-3.67,14.89-5.78,22.77-6.37c15.23-1.13,30.15-3.58,44.8-7.88C3593.03,3614.02,3594.45,3614.83,3595.86,3615.15z"/>
<path class="st19" d="M4738.98,3937.62c-13.91,0.01-27.81,0.13-41.72-0.06c-4.97-0.07-7.07-3.02-6.27-7.75
	c6.04-35.67,46.54-53.62,76.88-33.99c13.39,8.66,18.41,22.04,19.88,37.11c0.3,3.02-2.08,4.65-5.07,4.66
	C4768.12,3937.64,4753.55,3937.62,4738.98,3937.62z"/>
<path class="st20" d="M5183,3598.19c-13.9,0-27.81,0.11-41.71-0.07c-3.92-0.05-5.94-2.55-5.24-6.55
	c7.31-41.6,48.48-51.25,76.04-35.49c13.91,7.95,18.86,21.56,21.04,36.45c0.43,2.91-1.45,5.21-4.45,5.4
	c-6.6,0.41-13.22,0.5-19.84,0.56c-8.61,0.08-17.22,0.02-25.83,0.02C5183,3598.41,5183,3598.3,5183,3598.19z"/>
<path class="st20" d="M2323,3598.28c-13.94,0-27.87,0.13-41.8-0.07c-4.99-0.07-7.08-2.96-6.44-7.73
	c2.89-21.57,21.08-39.23,42.5-40.9c5.27-0.41,10.66-0.37,15.9,0.26c21.05,2.53,37.28,20.8,37.74,42.22c0.08,3.92-2.2,6.13-6.09,6.15
	c-13.93,0.08-27.87,0.03-41.8,0.03C2323,3598.25,2323,3598.26,2323,3598.28z"/>
<path class="st20" d="M4446,3598.35c-13.27,0-26.54,0.15-39.81-0.07c-5.99-0.1-8.28-3.26-7.08-9.03c3.13-15.1,11-27.01,24.74-34.31
	c14.29-7.58,29.36-7.63,44.3-2.2c12.69,4.61,20.73,14.25,24.72,26.86c6.08,19.21,1.61,19-13.03,18.91
	c-11.28-0.07-22.56-0.01-33.84-0.01C4446,3598.45,4446,3598.4,4446,3598.35z"/>
<path class="st15" d="M4049.28,3614.8c-0.42-15.69,2.9-30.47,10.56-44.19c7.35-13.16,18.43-20.76,33.62-21.84
	c4.64-0.33,9.34-0.44,13.98-0.16c20.34,1.2,35.52,12.54,41.43,31.87c7.94,25.99,5.25,51.43-6.37,75.79
	c-6.18,12.95-16.99,20.16-31.38,21.73c-1.32,0.14-2.66,0.15-3.99,0.28c-39.76,3.71-52.84-21.22-56.93-47.53
	C4049.39,3625.51,4049.56,3620.12,4049.28,3614.8z"/>
<path class="st15" d="M3228.05,3610.34c0.44,16.35-2.98,31.78-10.46,46.32c-6.62,12.86-17.07,20.12-31.55,21.35
	c-3.31,0.28-6.65,0.26-9.98,0.38c-25.56,0.95-40.44-11.41-48.18-36.43c-6.5-21.02-5.03-42.2,3.14-62.64
	c11.57-28.93,43.54-40.42,71.28-25.85c14.86,7.81,21.48,21.33,24.34,36.96C3227.84,3596.94,3227.63,3603.7,3228.05,3610.34z"/>
<path class="st15" d="M2323.85,3951.84c0.66,13.36-2.39,27.5-8.67,40.94c-7.42,15.89-19.92,24.33-37.52,24.96
	c-3.97,0.14-7.97,0.16-11.94-0.04c-16.69-0.84-28.64-8.96-36.6-23.57c-4.53-8.32-6.9-17.27-8.26-26.43
	c-2.89-19.56,0.41-38.3,9.29-55.95c9.1-18.09,24.82-25.36,44.13-24.74c19.95,0.65,35.72,8.75,44.19,28.23
	C2323.41,3926.56,2323.91,3938.35,2323.85,3951.84z"/>
<path class="st15" d="M4213.64,3955.21c-0.66-13.32,1.7-26.16,6.89-38.67c7.68-18.52,21.54-28.42,41.16-29.46
	c23.81-1.27,45.59,8.33,52.77,38.06c5.35,22.13,2.81,43.47-5.04,64.39c-7.1,18.92-21.17,28.16-41.31,28.26
	c-3.32,0.02-6.65,0.15-9.95-0.11c-15.66-1.22-27.62-8.39-35.54-22.14C4215.43,3983.06,4212.98,3969.56,4213.64,3955.21z"/>
<path class="st21" d="M187.57,3392.36c9.97,0.05,19.83,0.52,28.42,6.58c10.21,7.2,10.4,17.12,0.44,24.14
	c-14.09,9.94-42.73,9.81-56.47-0.25c-9.36-6.85-9.56-15.87-0.48-22.8C167.8,3393.68,177.5,3392.33,187.57,3392.36z"/>
</svg>
