<?xml version="1.0" encoding="UTF-8"?>
<svg id="_图层_2" data-name="图层 2" xmlns="http://www.w3.org/2000/svg" viewBox="0 0 447.05 547.19">
  <defs>
    <style>
      .cls-1, .cls-2 {
        fill: #fff;
      }

      .cls-3 {
        fill: #003592;
      }

      .cls-2 {
        stroke: #fff;
        stroke-miterlimit: 10;
      }
    </style>
  </defs>
  <g id="_蓝底Logo" data-name="蓝底Logo">
    <polygon class="cls-3" points="0 0 447.05 0 447.05 375.27 223.53 547.19 0 375.27 0 0"/>
    <path class="cls-1" d="m223.53,529.26c-.23,0-.46-.07-.65-.23L17.45,368.77c-.26-.2-.41-.51-.41-.84V18.1c0-.59.48-1.06,1.06-1.06h410.85c.59,0,1.06.48,1.06,1.06v349.83c0,.33-.15.64-.41.84l-205.42,160.27c-.19.15-.42.23-.65.23ZM19.17,367.41l204.36,159.44,204.36-159.44V19.17H19.17v348.24Z"/>
    <g>
      <path class="cls-1" d="m35.97,71.24c-2.55-2.28-7.91-5.7-11.66-7.84l4.36-7.3c3.62,1.81,9.18,4.83,11.93,6.97l-4.62,8.18Zm6.37,8.04c-3.02,7.04-6.43,14.27-9.92,20.98l-7.24-6.77c3.02-4.96,7.31-13.07,10.86-20.91l6.3,6.7Zm-4.49-27.27c-2.41-1.88-7.57-4.82-11.12-6.7l4.83-7.5c3.42,1.54,8.71,4.15,11.33,5.9l-5.03,8.31Zm37.26,26.47c3.48,4.69,8.44,9.11,13.33,11.79-2.14,1.74-5.23,5.16-6.77,7.57-4.22-2.95-8.18-7.24-11.53-12.13v14.34h-9.92v-14.74c-3.82,5.43-8.58,9.99-14.01,13-1.41-2.21-4.29-5.56-6.37-7.3,6.03-2.68,11.46-7.3,15.28-12.53h-10.86v-8.65h15.95v-6.3h9.92v6.3h15.88v8.65h-10.92Zm-11.53-25.4c-3.42,5.83-8.98,11.93-14.01,15.55-1.47-1.74-4.69-5.09-6.63-6.7,3.08-1.81,6.17-4.42,8.64-7.24h-7.37v-14.68h41.88v14.27h-8.38c3.15,3.22,6.16,6.63,7.84,9.31l-7.44,5.09c-2.28-4.02-7.71-10.19-12.2-14.54l6.9-4.49c1.41,1.27,2.95,2.68,4.42,4.15v-5.63h-24.59v5.23c.8-1.07,1.61-2.14,2.21-3.22l8.71,2.88Z"/>
      <path class="cls-1" d="m118.32,39.41h9.65v23.45c0,12.87-.67,26.94-7.24,37.8-2.28-1.68-6.7-4.22-9.58-5.29,2.21-3.28,3.75-6.77,4.83-10.39-7.24,3.08-15.15,6.17-21.58,8.71l-3.15-10.05c2.41-.67,5.3-1.61,8.51-2.68v-18.29h-7.24v-9.58h7.24v-14.81h9.78v14.81h6.84v9.58h-6.84v14.94l5.43-1.94,1.54,7.3c1.54-6.43,1.81-13.27,1.81-20.17v-23.39Zm12.46,3.62h9.18v48.58h-9.18v-48.58Zm22.45-4.16v61.25h-9.99v-61.25h9.99Z"/>
      <path class="cls-1" d="m182.72,74.39c-2.21.6-4.42,1.14-6.7,1.74v14.34c0,4.42-.74,6.77-3.28,8.24s-6.03,1.74-10.86,1.74c-.33-2.48-1.54-6.37-2.68-8.85,2.35.07,5.09.07,5.96.07,1,0,1.27-.33,1.27-1.27v-11.93l-5.7,1.34-2.41-9.31c2.35-.4,5.09-.94,8.11-1.61v-10.32h-7.24v-8.98h7.24v-12.33h9.58v12.33h6.16v8.98h-6.16v8.18l5.56-1.27,1.14,8.91Zm38.13-10.12c-2.41,9.45-6.43,16.75-11.93,22.52,4.15,2.55,8.98,4.56,14.54,5.83-2.08,1.94-4.83,5.9-6.17,8.38-6.3-1.81-11.59-4.42-16.15-7.77-4.89,3.22-10.52,5.7-16.82,7.5-1.01-2.55-3.35-6.7-5.23-8.78,5.56-1.21,10.52-3.08,14.81-5.63-3.48-4.09-6.3-8.98-8.64-14.54l3.08-.87h-4.29v-8.78h12.6v-6.9h-13.67v-8.91h13.67v-9.05h9.65v9.05h14.47v8.91h-14.47v6.9h6.63l1.61-.33,6.3,2.48Zm-26.14,6.63c1.74,3.62,3.95,6.9,6.7,9.85,2.95-2.88,5.29-6.1,7.1-9.85h-13.8Z"/>
      <path class="cls-1" d="m267.22,63.07c5.56,8.44,14.41,17.09,22.85,22.38-2.48,2.01-6.03,6.03-7.84,8.78-6.9-5.29-13.74-13.07-19.23-21.44v28.21h-10.79v-24.79c-5.49,7.64-12.33,14.14-19.97,18.56-1.74-2.55-5.09-6.57-7.44-8.64,10.12-4.96,19.3-13.81,24.73-23.05h-21.78v-9.58h24.46v-16.15h10.79v16.15h11.86c-2.21-2.75-7.04-7.04-10.45-9.99l7.24-5.9c3.35,2.68,8.51,6.7,10.99,9.38l-7.5,6.5h11.79v9.58h-19.7Z"/>
      <path class="cls-1" d="m331.68,64.74c4.36,12.13,12.13,21.91,24.46,26.67-2.41,2.14-5.7,6.43-7.24,9.25-11.8-5.43-19.17-14.34-24.33-26.2-3.82,10.32-10.92,19.64-24.13,26.2-1.54-2.68-4.49-6.17-7.37-8.31,14.68-6.63,20.84-16.69,23.52-27.61h-22.18v-10.12h23.79c.47-5.9.4-11.79.47-17.36h10.72c-.07,5.56-.14,11.46-.67,17.36h25.73v10.12h-22.79Z"/>
      <path class="cls-1" d="m421.68,84.18h-25.46v6.23c0,4.76-1.14,7.24-4.69,8.58-3.55,1.41-8.04,1.54-13.54,1.54-.6-2.75-2.41-6.9-3.89-9.38,3.75.2,9.05.2,10.39.13,1.34,0,1.74-.27,1.74-1.14v-5.96h-24.93v-8.91h24.93v-3.89c1.74-.74,3.62-1.68,5.3-2.68h-17.82v-8.38h28.88l2.01-.47,6.16,4.89c-3.95,3.62-9.05,7.24-14.54,10.12v.4h25.46v8.91Zm-50.73-20.97h-9.11v-15.55h9.85c-1.14-2.01-2.68-4.29-4.09-6.1l8.31-3.69c2.28,2.55,4.89,6.03,5.96,8.58l-2.61,1.21h9.45c-.94-2.48-2.48-5.5-3.95-7.84l8.64-3.22c2.08,2.81,4.29,6.7,5.16,9.38l-4.36,1.68h7.57c2.01-3.08,4.02-6.9,5.23-9.92l10.19,2.95c-1.68,2.41-3.42,4.83-5.09,6.97h9.05v15.55h-9.58v-7.04h-40.61v7.04Z"/>
    </g>
    <g>
      <path class="cls-1" d="m23.65,121.1l2.12-2.58c1.11.94,2.56,1.6,3.8,1.6,1.39,0,2.04-.52,2.04-1.36,0-.9-.86-1.2-2.2-1.76l-1.99-.84c-1.64-.65-3.17-2.01-3.17-4.28,0-2.62,2.35-4.72,5.67-4.72,1.8,0,3.71.69,5.08,2.06l-1.87,2.35c-1.03-.78-1.99-1.2-3.21-1.2s-1.87.46-1.87,1.3.99,1.2,2.37,1.74l1.95.78c1.93.78,3.09,2.08,3.09,4.28,0,2.6-2.18,4.89-5.96,4.89-2.04,0-4.22-.76-5.83-2.25Z"/>
      <path class="cls-1" d="m38.04,107.43h3.76v5.94h5.14v-5.94h3.72v15.61h-3.72v-6.42h-5.14v6.42h-3.76v-15.61Z"/>
      <path class="cls-1" d="m54.28,107.43h9.91v3.1h-6.15v2.9h5.22v3.15h-5.22v3.32h6.38v3.15h-10.14v-15.61Z"/>
      <path class="cls-1" d="m67.5,107.43h3.82l3.88,7.47,1.53,3.46h.1c-.21-1.66-.5-3.9-.5-5.77v-5.16h3.57v15.61h-3.82l-3.86-7.53-1.53-3.42h-.11c.17,1.74.48,3.88.48,5.77v5.18h-3.57v-15.61Z"/>
      <path class="cls-1" d="m82.54,120.78l6.74-10.24h-6.09v-3.1h10.7v2.25l-6.74,10.22h6.8v3.15h-11.42v-2.27Z"/>
      <path class="cls-1" d="m96.51,107.43h3.76v5.94h5.14v-5.94h3.71v15.61h-3.71v-6.42h-5.14v6.42h-3.76v-15.61Z"/>
      <path class="cls-1" d="m112.75,107.43h9.9v3.1h-6.15v2.9h5.22v3.15h-5.22v3.32h6.38v3.15h-10.13v-15.61Z"/>
      <path class="cls-1" d="m125.96,107.43h3.82l3.88,7.47,1.53,3.46h.11c-.21-1.66-.51-3.9-.51-5.77v-5.16h3.57v15.61h-3.82l-3.86-7.53-1.53-3.42h-.1c.17,1.74.48,3.88.48,5.77v5.18h-3.57v-15.61Z"/>
      <path class="cls-1" d="m149.81,110.54h-4.22v-3.1h12.21v3.1h-4.24v12.51h-3.76v-12.51Z"/>
      <path class="cls-1" d="m160.22,107.43h9.91v3.1h-6.15v2.9h5.22v3.15h-5.22v3.32h6.38v3.15h-10.14v-15.61Z"/>
      <path class="cls-1" d="m172.72,115.32c0-5.2,3.48-8.18,7.45-8.18,2.04,0,3.67.94,4.74,2.04l-1.97,2.39c-.78-.71-1.59-1.22-2.71-1.22-2.01,0-3.67,1.8-3.67,4.85s1.43,4.91,3.63,4.91c1.24,0,2.25-.63,2.98-1.43l1.97,2.35c-1.32,1.53-3.06,2.31-5.1,2.31-3.97,0-7.32-2.73-7.32-8.02Z"/>
      <path class="cls-1" d="m187.43,107.43h3.76v5.94h5.14v-5.94h3.71v15.61h-3.71v-6.42h-5.14v6.42h-3.76v-15.61Z"/>
      <path class="cls-1" d="m203.66,107.43h3.82l3.88,7.47,1.53,3.46h.11c-.21-1.66-.51-3.9-.51-5.77v-5.16h3.57v15.61h-3.82l-3.86-7.53-1.53-3.42h-.1c.17,1.74.48,3.88.48,5.77v5.18h-3.57v-15.61Z"/>
      <path class="cls-1" d="m218.98,115.16c0-5.12,2.9-8.02,7.16-8.02s7.16,2.92,7.16,8.02-2.9,8.18-7.16,8.18-7.16-3.06-7.16-8.18Zm10.49,0c0-3.02-1.28-4.8-3.34-4.8s-3.32,1.78-3.32,4.8,1.26,4.95,3.32,4.95,3.34-1.91,3.34-4.95Z"/>
      <path class="cls-1" d="m236.18,107.43h3.76v12.46h6.06v3.15h-9.82v-15.61Z"/>
      <path class="cls-1" d="m247.09,115.16c0-5.12,2.9-8.02,7.16-8.02s7.16,2.92,7.16,8.02-2.9,8.18-7.16,8.18-7.16-3.06-7.16-8.18Zm10.49,0c0-3.02-1.28-4.8-3.34-4.8s-3.32,1.78-3.32,4.8,1.26,4.95,3.32,4.95,3.34-1.91,3.34-4.95Z"/>
      <path class="cls-1" d="m263.58,115.32c0-5.2,3.5-8.18,7.68-8.18,2.29,0,3.92.97,4.99,2.04l-1.99,2.39c-.75-.69-1.57-1.22-2.87-1.22-2.31,0-3.97,1.8-3.97,4.85s1.38,4.91,4.28,4.91c.57,0,1.15-.15,1.49-.4v-2.52h-2.48v-3.06h5.81v7.3c-1.09,1.05-3.02,1.91-5.2,1.91-4.34,0-7.74-2.73-7.74-8.02Z"/>
      <path class="cls-1" d="m282.37,117.53l-4.7-10.09h3.99l1.3,3.46c.42,1.18.82,2.27,1.26,3.48h.08c.44-1.22.86-2.31,1.3-3.48l1.3-3.46h3.92l-4.72,10.09v5.52h-3.74v-5.52Z"/>
      <path class="cls-1" d="m297.14,115.7v-8.27h3.74v8.67c0,2.96.88,4.01,2.6,4.01s2.64-1.05,2.64-4.01v-8.67h3.61v8.27c0,5.27-2.1,7.64-6.25,7.64s-6.34-2.37-6.34-7.64Z"/>
      <path class="cls-1" d="m313.23,107.43h3.82l3.88,7.47,1.53,3.46h.11c-.21-1.66-.51-3.9-.51-5.77v-5.16h3.57v15.61h-3.82l-3.86-7.53-1.53-3.42h-.1c.17,1.74.48,3.88.48,5.77v5.18h-3.57v-15.61Z"/>
      <path class="cls-1" d="m329.26,107.43h3.76v15.61h-3.76v-15.61Z"/>
      <path class="cls-1" d="m334.6,107.43h3.97l1.78,7.11c.46,1.68.75,3.29,1.22,4.99h.1c.44-1.7.78-3.32,1.22-4.99l1.76-7.11h3.82l-4.7,15.61h-4.49l-4.68-15.61Z"/>
      <path class="cls-1" d="m350.09,107.43h9.9v3.1h-6.15v2.9h5.22v3.15h-5.22v3.32h6.38v3.15h-10.13v-15.61Z"/>
      <path class="cls-1" d="m371.74,123.05l-2.88-5.5h-1.8v5.5h-3.76v-15.61h5.73c3.34,0,6.11,1.13,6.11,4.91,0,2.29-1.07,3.76-2.69,4.51l3.48,6.19h-4.2Zm-4.68-8.46h1.68c1.78,0,2.73-.78,2.73-2.25s-.94-1.95-2.73-1.95h-1.68v4.2Z"/>
      <path class="cls-1" d="m376.83,121.1l2.12-2.58c1.11.94,2.56,1.6,3.8,1.6,1.38,0,2.04-.52,2.04-1.36,0-.9-.86-1.2-2.2-1.76l-1.99-.84c-1.64-.65-3.17-2.01-3.17-4.28,0-2.62,2.35-4.72,5.67-4.72,1.8,0,3.72.69,5.08,2.06l-1.87,2.35c-1.03-.78-1.99-1.2-3.21-1.2-1.15,0-1.87.46-1.87,1.3s.99,1.2,2.37,1.74l1.95.78c1.93.78,3.09,2.08,3.09,4.28,0,2.6-2.18,4.89-5.96,4.89-2.04,0-4.22-.76-5.83-2.25Z"/>
      <path class="cls-1" d="m391.22,107.43h3.76v15.61h-3.76v-15.61Z"/>
      <path class="cls-1" d="m401.59,110.54h-4.22v-3.1h12.21v3.1h-4.24v12.51h-3.76v-12.51Z"/>
      <path class="cls-1" d="m414.24,117.53l-4.7-10.09h3.99l1.3,3.46c.42,1.18.82,2.27,1.26,3.48h.08c.44-1.22.86-2.31,1.3-3.48l1.3-3.46h3.92l-4.72,10.09v5.52h-3.74v-5.52Z"/>
    </g>
    <rect class="cls-1" x="18.1" y="134.4" width="410.85" height="2.13"/>
    <polyline class="cls-1" points="76.05 413.39 51.1 394.01 51.1 339.75 76.05 339.75 76.05 413.39"/>
    <polyline class="cls-1" points="140.24 462.56 115.05 443.43 115.05 339.75 140.24 339.75 140.24 462.56"/>
    <polyline class="cls-1" points="179.24 492.84 179.24 339.75 204.19 339.75 204.19 511.98 179.24 492.84"/>
    <polyline class="cls-1" points="268.39 492.84 243.44 511.98 243.44 339.75 268.39 339.75 268.39 492.84"/>
    <polyline class="cls-1" points="332.34 339.75 332.34 443.43 307.39 462.56 307.39 339.75 332.34 339.75"/>
    <polyline class="cls-1" points="371.58 413.39 371.58 339.75 396.53 339.75 396.53 394.01 371.58 413.39"/>
    <polyline class="cls-1" points="217.06 272.14 217.06 325.41 159.79 325.41 159.79 272.14 217.06 272.14"/>
    <polyline class="cls-1" points="89.25 272.14 146.28 272.14 146.28 325.41 89.25 325.41 89.25 272.14"/>
    <polyline class="cls-1" points="18.47 272.14 75.75 272.14 75.75 325.41 18.47 325.41 18.47 272.14"/>
    <polyline class="cls-1" points="230.57 272.14 230.57 325.41 287.84 325.41 287.84 272.14 230.57 272.14"/>
    <polyline class="cls-1" points="301.1 272.14 301.1 325.41 358.38 325.41 358.38 272.14 301.1 272.14"/>
    <polyline class="cls-1" points="429.16 272.14 371.88 272.14 371.88 325.41 429.16 325.41 429.16 272.14"/>
    <g>
      <path class="cls-2" d="m26.33,228.91l15.4-14.45c8.08,5.28,18.6,8.93,27.59,8.93,10.06,0,14.79-2.94,14.79-7.63,0-5.05-6.25-6.7-16.01-9.87l-14.48-4.7c-11.89-3.64-23.02-11.28-23.02-23.96,0-14.68,17.07-26.43,41.16-26.43,13.11,0,26.98,3.88,36.89,11.51l-13.57,13.16c-7.47-4.35-14.48-6.7-23.32-6.7-8.38,0-13.57,2.58-13.57,7.28s7.16,6.7,17.23,9.75l14.18,4.35c14.02,4.35,22.41,11.63,22.41,23.96,0,14.56-15.85,27.37-43.29,27.37-14.79,0-30.64-4.23-42.38-12.57Z"/>
      <path class="cls-2" d="m125.26,227.15l48.93-57.32h-44.21v-17.38h77.75v12.57l-48.94,57.2h49.39v17.62h-82.93v-12.69Z"/>
      <path class="cls-2" d="m250.26,169.83h-30.64v-17.38h88.72v17.38h-30.79v70.01h-27.29v-70.01Z"/>
      <path class="cls-2" d="m326.78,198.72v-46.28h27.14v48.51c0,16.56,6.4,22.43,18.9,22.43s19.21-5.87,19.21-22.43v-48.51h26.22v46.28c0,29.48-15.24,42.76-45.43,42.76s-46.04-13.27-46.04-42.76Z"/>
    </g>
    <rect class="cls-1" x="18.1" y="254.18" width="410.85" height="2.13"/>
  </g>
</svg>