<svg id="图层_1" data-name="图层 1" xmlns="http://www.w3.org/2000/svg" viewBox="0 0 747.35 683.84"><defs><style>.cls-1{fill:#f4f4f4;}.cls-2{fill:#b3b3b3;}.cls-3{fill:#4a81c2;}.cls-4{fill:#fdb912;}.cls-5{fill:#fe0000;}.cls-6{fill:#fefefe;}.cls-7{fill:#b02a1c;}.cls-8{fill:#b22;}.cls-9{fill:#4b82c2;}.cls-10{fill:#fe2626;}.cls-11{fill:#4a82c2;}.cls-12{fill:#fdbf19;}.cls-13{fill:#fdb913;}.cls-14{fill:#fdbf18;}.cls-15{fill:#5889c8;}.cls-16{fill:#fdba15;}.cls-17{fill:#fdba13;}.cls-18{fill:#fdc32d;}.cls-19{fill:#fdc029;}.cls-20{fill:#fefdfb;}.cls-21{fill:#fe3434;}.cls-22{fill:#fdd45c;}.cls-23{fill:#fdc334;}.cls-24{fill:#fdbf25;}.cls-25{fill:#fdc333;}.cls-26{fill:#fefefd;}.cls-27{fill:#fe5e5e;}.cls-28{fill:#fdc83d;}.cls-29{fill:#fdbc1a;}.cls-30{fill:#fdc845;}.cls-31{fill:#fdc83f;}.cls-32{fill:#6992cf;}.cls-33{fill:#5f8dcb;}.cls-34{fill:#fefdfa;}.cls-35{fill:#5987ca;}.cls-36{fill:#fdc127;}.cls-37{fill:#fbc53f;}.cls-38{fill:#5888c9;}.cls-39{fill:#fdbd20;}.cls-40{fill:#fcc73d;}.cls-41{fill:#fe3636;}.cls-42{fill:#fdc02a;}.cls-43{fill:#fefdf9;}.cls-44{fill:#fccb4f;}.cls-45{fill:#628ecc;}.cls-46{fill:#fe7979;}.cls-47{fill:#618fcb;}.cls-48{fill:#fdc63c;}.cls-49{fill:#fdc027;}.cls-50{fill:#fdbf28;}.cls-51{fill:#fdd468;}.cls-52{fill:#fdc436;}.cls-53{fill:#fefcf8;}.cls-54{fill:#7098d2;}.cls-55{fill:#fcbf2d;}.cls-56{fill:#628ecd;}.cls-57{fill:#fefcf6;}.cls-58{fill:#fdd057;}.cls-59{fill:#fcc232;}.cls-60{fill:#fdd257;}.cls-61{fill:#fe3d3d;}.cls-62{fill:#fdbf27;}.cls-63{fill:#fdc12d;}.cls-64{fill:#fe2f2f;}.cls-65{fill:#fdc53a;}.cls-66{fill:#fefcf5;}.cls-67{fill:#5989c9;}.cls-68{fill:#fdc12a;}.cls-69{fill:#fdd263;}.cls-70{fill:#fdc42c;}.cls-71{fill:#6892cf;}.cls-72{fill:#fe1817;}.cls-73{fill:#fdd060;}.cls-74{fill:#fdc227;}.cls-75{fill:#fdc62e;}.cls-76{fill:#fdc12b;}.cls-77{fill:#fefbf4;}.cls-78{fill:#fcd060;}.cls-79{fill:#fdc73e;}.cls-80{fill:#fe4d4c;}.cls-81{fill:#fe7f7f;}.cls-82{fill:#fdbe21;}.cls-83{fill:#5a8ac9;}.cls-84{fill:#f9dc93;}.cls-85{fill:#fe2525;}.cls-86{fill:#fdc841;}.cls-87{fill:#fdca41;}.cls-88{fill:#608dcc;}.cls-89{fill:#fdc63b;}.cls-90{fill:#fcc641;}.cls-91{fill:#fe2c2c;}.cls-92{fill:#fddc85;}.cls-93{fill:#fea9a9;}.cls-94{fill:#fdc635;}.cls-95{fill:#fe4141;}.cls-96{fill:#fe5454;}.cls-97{fill:#fad679;}.cls-98{fill:#fdc330;}.cls-99{fill:#db6b6b;}.cls-100{fill:#fce5b5;}.cls-101{fill:#fe7575;}.cls-102{fill:#fdd25f;}.cls-103{fill:#afafaf;}.cls-104{fill:#fdc126;}.cls-105{fill:#fdc125;}.cls-106{fill:#fdcc45;}.cls-107{fill:#f10606;}.cls-108{fill:#f10707;}.cls-109{fill:#fdbf24;}.cls-110{fill:#fdcd55;}.cls-111{fill:#fdc331;}.cls-112{fill:#fdbf23;}.cls-113{fill:#fdcb4e;}.cls-114{fill:#eedcae;}.cls-115{fill:#fdc231;}.cls-116{fill:#f2d283;}.cls-117{fill:#ece0c2;}.cls-118{fill:#f9c441;}.cls-119{fill:#ece0c4;}.cls-120{fill:#fdc332;}.cls-121{fill:#f1d48c;}.cls-122{fill:#f0d697;}.cls-123{fill:#eedcaf;}.cls-124{fill:#f0d79b;}.cls-125{fill:#efdbad;}.cls-126{fill:#f0d799;}.cls-127{fill:#f0d592;}.cls-128{fill:#f0d591;}.cls-129{fill:#f1d591;}.cls-130{fill:#f0d79a;}.cls-131{fill:#f1d58d;}.cls-132{fill:#f1d48b;}.cls-133{fill:#f1d696;}.cls-134{fill:#f0d695;}.cls-135{fill:#ece0c1;}.cls-136{fill:#f1d48a;}.cls-137{fill:#f50505;}.cls-138{fill:#eb0909;}.cls-139{fill:#749fd0;}.cls-140{fill:#f3f4f4;}.cls-141{fill:#fdc93f;}.cls-142{fill:#fdba14;}.cls-143{fill:#a1a1a1;}.cls-144{fill:#fefcf7;}.cls-145{fill:#ef0808;}.cls-146{fill:#ec0909;}.cls-147{fill:#fe0c0c;}</style></defs><path class="cls-1" d="M386.69,655.26c6.18-1.19,12-2.33,17.36-5.11,8.29-4.31,17-4.37,25.95-3.16,1.75.24,3.07,1.36,4.47,2.42,8.37,6.4,10.16,15.47,10.94,25.23.71,8.8.46,17.59.4,26.37A126.16,126.16,0,0,1,442,731c-1.57,6.21-5.22,11.09-10,15.19a6.91,6.91,0,0,1-4.56,1.51c-3.46-.06-6.84.67-10.29.66-15.89,0-31.79-.07-47.69,0-12.32.06-24.6-1-36.91-1.3-9.25-.21-18.52-.63-27.73-.19-10.16.48-20.33-.21-30.45.46-13.06.87-26.13-.05-39.17.55-7.82.36-15.64,1.08-23.44,2-11.53,1.42-23.14,1.26-34.73,1.14a17.87,17.87,0,0,1-2.42-.24c-9.57-1.42-14.36-8.12-17.45-16.31-3.32-8.83-4.92-18.07-6.16-27.42-1.33-9.94-.94-19.89-1-29.84,0-10.12,5.85-16.62,14.43-20.37a24.42,24.42,0,0,0,10.5-8.42c5.09-7,10.54-13.8,15.19-21.14.38-.6,1-1.09.73-2.15-4.73.26-9.51-.51-14.27.45a12.37,12.37,0,0,1-2.44.09c-9.36,0-18.71.11-28.07,0-11.56-.16-23.1-.67-34.53-2.63a14.28,14.28,0,0,0-2.45-.07c-13.81,0-27.66-.67-41.41.18-15,.94-25.91-12.22-27.8-23.64-.92-5.53-1.35-11.09-1.77-16.67A223.12,223.12,0,0,1,37.74,560q.45-16.83,1.09-33.65C39.17,517.2,40,508,41,498.88c1.46-12.61,3.16-25.2,5.19-37.74,1.61-10,3.59-19.86,5-29.86a112.64,112.64,0,0,0,.72-11.36c.23-6.11.31-12.28,2.08-18.24.89-3,2-5.79,4.44-7.94,2.9-2.6,5.29-5.74,8.53-8a6.22,6.22,0,0,0,1.82-2.67c3.22-6.8,6.36-13.64,9.69-20.39,3.87-7.86,9.68-14.14,16.43-19.64,1.55-1.27,4.4-1.35,4.86-3.11s-1.08-3.7-1.43-5.64A60.07,60.07,0,0,1,97.05,323c.07-11.21-1-22.35-2-33.52a166.18,166.18,0,0,1,.15-25.82c.49-7.21,1.74-14.31,2.41-21.5,1-11,.36-22.23,3.17-33.09a27.8,27.8,0,0,1,7.57-13.56c2.69-2.58,5.28-5.25,8-7.81.62-.58.94-1,.56-1.83-1.28-2.77-1-5.74-.73-8.59.26-3-1.17-3.73-3.66-4a19.2,19.2,0,0,1-9.57-3.52,42.59,42.59,0,0,1-7.8-7.55,8.45,8.45,0,0,1-2-6.06c.19-3,0-6,.07-9,0-1.62-.45-2.32-2.16-2.23-2.17.11-4.37-.13-6.54.06-5.06.44-9.41-1.37-13.56-4a7.42,7.42,0,0,0-2.66-1.34c-5.5-.71-8.5-4.92-11.92-8.47A9.25,9.25,0,0,1,54,123.46c.52-3.86-.6-6.89-3.78-9.19-1.85-1.34-2.41-3.25-2.28-5.52a57.67,57.67,0,0,0,0-7.08,13.74,13.74,0,0,1,5-12c1.35-1.15,2.36-2.39,2.15-4.41-.31-3,1-5.31,3.12-7.47,3.88-4,7.78-8.24,13.42-9.28C79.32,67.08,87.15,66,94.18,71a4.09,4.09,0,0,0,2.62.46c7,0,14,.15,21,0A26.19,26.19,0,0,1,136,78.14a99.39,99.39,0,0,1,13.66,14,4.39,4.39,0,0,1,1,1.58c1.24,6.52,2.25,13.07-1.21,19.26a8.38,8.38,0,0,0-1.18,4.08c-.1,4.84.9,9.86-2.11,14.29-.72,1.07.34,1.11.94,1.37,4.58,2,7.57,5.84,10.83,9.35a7.48,7.48,0,0,1,1.83,5.53,69.58,69.58,0,0,0,0,8.17,7.79,7.79,0,0,1-3,7.16c-1.51,1.24-1.45,2.24,0,3.45a7.19,7.19,0,0,1,2.9,5.05c.1,1.49,1,.93,1.71.84q8.18-1.11,16.33-2.28c7.22-1,14.44-2.05,21.65-3.18,5.34-.83,10.67-1.76,16-2.75s10.77-1,16.15-1.54c3.72-.37,4-.37,4-4.11,0-5.18.38-10.39-.08-15.52-1-11,9.28-21.38,18.13-23.06,3.18-.61,6.29-1.72,9.49-2.16,2.86-.39,4.66-2.6,7.35-3.43,7.9-2.44,16.07-3.33,24-5.23a57.74,57.74,0,0,1,11.69-1.93c9.83-.22,19.15-3.63,29-3.65s19.66-1,29.48-1.6a222.13,222.13,0,0,1,23.64-.28c10,.44,19.93.11,29.84,1,11.93,1.07,23.87,2.08,35.77,3.65a377.2,377.2,0,0,1,70.93,16c19.74,6.62,38.58,15.21,55.86,27A178,178,0,0,1,600.31,165q8.16,7.42,15.74,15.42c7.62,8.09,15.07,16.34,22,25.06,2.86,3.61,5.93,7.05,8.88,10.59a3.07,3.07,0,0,0,3,.89c2.62-.31,4.82.28,6.42,2.54,1,1.45,1.79,1.06,2.43-.43,1.55-3.54,4.78-5.63,7.35-8.29a4,4,0,0,1,3-.9c4.45,0,8.9,0,13.35,0a3.25,3.25,0,0,1,2.91,1.12c1.14,1.54,2.28,1.87,3.66.24,2.1-2.47,5-2.15,7.89-2.55,7.46-1,13.12,1.34,17.6,7.35,1.32,1.77,2.29,3.32,2.21,5.58-.13,3.81-.13,7.63,0,11.44a14,14,0,0,1-2,7.78c-.77,1.29-.44,1.71.67,2.21,1.64.74,3.44,1.17,4.9,2.3.71.55,1,.32,1.31-.53,1.9-6.14,7-9.49,11.69-13.12a3.14,3.14,0,0,1,2-.55c3.91,0,7.81,0,11.72,0a6.2,6.2,0,0,1,4.6,2c8.95,9.13,7.28,5.87,7.59,17.87a15,15,0,0,1-5.19,12.29c-2,1.75-3.73,3.72-5.75,5.4-.87.72-.91,1.26-.38,2a73.17,73.17,0,0,1,6.29,10.47c.59,1.25,1.42,1,2.16.38,1.5-1.34,3.26-1.38,5.11-1.36,3.81.05,7.63,0,11.44,0a9.18,9.18,0,0,1,2.17.14c3.49.92,9.68,9,9.71,12.64,0,2.72-.17,5.46,0,8.17a10,10,0,0,1-3,7.86c-2.7,2.94-5.55,5.76-8.47,8.49a10.45,10.45,0,0,1-7.89,3.06,7.43,7.43,0,0,0-4.43.63,63.68,63.68,0,0,0,6.71.93c4.32.12,7.62,2,10.85,4.83,3.93,3.47,6.05,7.28,5.14,12.56a4.08,4.08,0,0,0,0,1.35c1.23,6.84-1.15,12.1-6.71,16.17-1.3,1-2.37,1.76-4.07,1.68-5.42-.25-10.88.42-16.28-.58a16.8,16.8,0,0,0-2.12-.38c-1.33-.07-2.64-1.91-3.72-.87a28.27,28.27,0,0,0-3.7,5.31c-.56.87.29,1.32.77,1.8,2,2.07,4.14,4.07,6.14,6.18a9.48,9.48,0,0,1,3,7.32,17.39,17.39,0,0,0,0,4.08c1.15,6.6-1.31,11.54-6.49,15.54a9.77,9.77,0,0,1-6.14,2.44,39.47,39.47,0,0,0-5.44,0c-6.84,1-11.84-2.16-16.26-6.82-.76-.79-1.54-1.54-2.31-2.31-1.93-1.92-3.13-1.79-5.09.19-1,1,0,1.26.42,1.65,1.82,1.9,3.67,3.77,5.58,5.59,3.16,3,5,6.56,4.66,11.1a44,44,0,0,0,0,7.08c.27,3.1-1.27,5.23-3,7.54-3.65,4.8-8.36,6.57-14.19,5.92a6.43,6.43,0,0,0-1.91,0c-6.89,1.27-11.77-2.32-16.27-6.76a71.49,71.49,0,0,1-8.81-9.66,23,23,0,0,0-3.28,7.66c-1.69,7-6.58,11.54-11.54,16.08-1,.93-2.23,1.83-3.93,1.3.35,1.46,1.35,1.61,2.07,2.11,7,4.74,13.13,10.26,16.87,18a17.91,17.91,0,0,1,2,8.37c-.19,5.88.66,11.8-.54,17.64A32.73,32.73,0,0,1,675.36,500c-6.68,7.28-14.26,13.62-21.65,20.18-4.3,3.82-7.85,8.47-11.83,12.66-4.38,4.59-8.82,9.13-13.53,13.4S619,554.79,614,558.7c-13.76,10.77-28.58,19.43-45.85,23.25-7.4,1.64-14.95,1.1-22.45,1.31a64.83,64.83,0,0,1-24-3.9,68.62,68.62,0,0,1-22.13-13.49c-.84-.75-1.44-1.92-2.79-1.82-.83,7.46-1.54,14.89-2.5,22.29-1.19,9.24-2.89,18.38-6.15,27.15-1.81,4.88-5.58,8.22-9.36,11.47-2.2,1.9-5.23,2.14-8,2.3-3.79.21-7.55.74-11.37.7-13-.13-26-.05-39-.06a20.56,20.56,0,0,1-5.4-.42,3.38,3.38,0,0,0-4,1.42c-6.48,8.54-14.08,16.07-21.7,23.58C388.64,653.29,387.33,653.53,386.69,655.26Z" transform="translate(-37.6 -67.31)"/><path class="cls-2" d="M396.63,736.42c-17.05-1-35.28-1-53.51-1.33-7.43-.13-14.88-.11-22.3-.44-16-.68-31.92-1.23-47.88-.89-14.29.29-28.59.66-42.81,2.51a211.32,211.32,0,0,1-37.71,1.62c-7-.36-14-1.29-20.58-4.37a6.89,6.89,0,0,1-4.35-6c-.6-6.39-1.14-12.79-1.74-19.18-.32-3.41-.85-6.82-1.07-10.24-.93-14.22,4-26.45,12.72-37.43,5.48-6.94,12-12.87,18.08-19.22s11.75-12.83,16.11-20.44c1.07-1.87,2.21-3.67,2.21-6,0-2.57-1.46-3.48-3.57-3.94a6.15,6.15,0,0,0-1.36,0c-25,.08-49.92-.45-74.89-.72-18.42-.2-36.85-.06-55.27-.52-5.16-.12-10.32-.32-15.49-.34a3.62,3.62,0,0,1-3.45-2.11c-3.37-5.74-4.74-12.1-5.72-18.55-3.14-20.64-2.26-41.44-2.09-62.18.09-10.68.75-21.36,1.59-32,1.93-24.78,4.3-49.52,10.84-73.63a95,95,0,0,1,8.36-21.77c1.12-2,1.62-4.46,5.22-2.07,2.9,1.93,6.89.52,10.38.13,6.91-.79,13.8-1.71,20.7-2.56,7.08-.88,14.15-1.8,21.24-2.61,2.78-.32,5.6-.42,8.39-.58,10-.56,20.1-.7,30.14-1.27,9.14-.52,18.28-.81,27.42-1.19,5.17-.21,10.33-.23,15.49-.36,9.16-.22,18.33-.21,27.48-.64,12.21-.56,24.42-1.16,36.64-1.65,8-.32,15.92-.71,23.88-1.08,12.21-.55,24.42-1.05,36.63-1.67,10.74-.54,21.46-1.55,32.2-2.19,4.26-.26,8.51-.29,12.76-.43,16.51-.55,33-.58,49.55-.48,4.25,0,8.49.79,12.75.46,12.08-1,23.88,1.42,35.77,2.77a7.45,7.45,0,0,1,1.07.16c9.23,2.46,11.19,4.38,11.65,14.87.35,8.14-1.14,16.22-2,24.31-.32,3.15-.26,6.32-.55,9.49-.8,8.73-1.15,17.51-1.8,26.26-.81,10.82-1.8,21.62-2.61,32.43-.66,8.75-1.14,17.52-1.74,26.27-.49,7.22-1.17,14.42-1.51,21.65-.16,3.56.41,7.16.41,10.74,0,6.52-1.29,12.93-1.65,19.44q-1,17.31-2.77,34.57c-.82,8-5.14,11.24-14.4,12-9.51.73-18.94-.33-28.42-.93-8.73-.56-17.47-2.07-26.27-.72a11.13,11.13,0,0,0-6.13,2.63q-14.54,13.38-28.14,27.7a113.12,113.12,0,0,0-14.69,18.81c-1.35,2.2-1.92,4.46-.68,6.62,1.38,2.4,3.9,2.14,6.34,1.86,13.45-1.53,26.19-6.19,39.39-8.77,7.28-1.42,14.56-2.82,22-.76a5.16,5.16,0,0,1,4.25,4.79,220.92,220.92,0,0,1,2.64,36.5A115.21,115.21,0,0,1,431.57,723c-1.43,7.28-5.88,10.69-12.95,11.75A176.2,176.2,0,0,1,396.63,736.42Z" transform="translate(-37.6 -67.31)"/><path class="cls-3" d="M109.59,254.56c.22-1.27-.35-2.64.54-3.81,1.68-8.73,1.62-17.65,2.82-26.42.72-5.31,1.37-10.72,3.57-15.73a19.3,19.3,0,0,1,3.78-5.23c2.91-1.8,4.71-4.94,7.82-6.51l2.73-1.69c.85-.53,2-.45,2.68-1.25l1.12-.4c4.13-1.54,8.47-2.42,12.66-3.75a89.32,89.32,0,0,1,8.86-1.85c1.52-.41,3.11-.47,4.63-.9a7,7,0,0,1,1.3-.28,195.88,195.88,0,0,1,27.14-4.35c5.18-1.07,10.43-1.74,15.66-2.51,4.35-.64,8.73-1.23,13.06-1.95,6.92-1.16,14-1.28,20.8-2.94h0c1.16-.53,2.1-.29,2.11,1.07,0,4.72,2,9,3.14,13.44a41.06,41.06,0,0,1,1,11,100.5,100.5,0,0,0,2.56,25c1.56,6.16,6.14,9.57,12.41,10.57a53,53,0,0,0,14.88-.13c7.48-.93,15-.9,22.49-1.26,8.59-.41,17.19-.85,25.78-.8A84.76,84.76,0,0,1,341,235.51c3.67.81,4.52,1.9,3.84,5.69-.54,3-.25,6.17-1.93,8.92-15.88-.59-31.64,1.54-47.49,1.81-7.42.13-14.83,1.06-22.27.92-2.46-1.1-4.73.21-7.07.54l-3.82,0a63.22,63.22,0,0,0-12.07,0,34.5,34.5,0,0,1-5.65.34c-3.83-.38-7.46.69-11.16,1.33h-1.12a17.26,17.26,0,0,0-7.77-.74c-1.51.24-3.51.48-2.66,3,.2,3.09-.14,6.21.64,9.26.53,1.76,0,3.57.22,5.35s.64,3.57,2.54,4.45c12.27.2,24.4-1.24,36.5-3.07,12.5-1.88,24.89-4.36,37.3-6.69a15.08,15.08,0,0,1,1.91-.1c1.14.24,15.44-1.1,16.36-1.53,7.87-.44,15.74-.84,23.61-1.35,1.36-.09,1.21.69,1.29,1.49a168,168,0,0,1-.32,32.57c-.48,5.06-.28,10.15-.57,15.23-.69,12.23-1.46,24.49-.09,36.72.71,6.44.28,12.87.5,19.31a41.58,41.58,0,0,0,.55,4.57c.21,1.34-.11,1.94-1.64,2-10.34.47-20.66,1.05-31,1.57-14,.71-28.09,1.46-42.14,2.09-12.33.54-24.66.95-37,1.4-14.06.5-28.12.91-42.17,1.48-15.23.61-30.46,1.36-45.69,2-8.52.38-17,.79-25.57,1.1-8.08.3-16,2.18-24,3.06-3.83.42-7.6,1.38-11.75,1.45,3.11-8,6.47-15.44,11.85-21.81a15,15,0,0,0,3.34-5.54c1.49-5.41,5.45-8,10.42-9.67,4.55-1.52,9.24-1.63,13.93-1.69q20.4-.28,40.8-.39c7.63,0,15.06-1.63,22.59-2.49,7.34-.84,14.64-2,22-3,7.76-1.06,15.52-2.16,23.28-3.16,6.53-.84,13.08-1.56,19.62-2.34L262.77,338c1.18-.72,2.61.18,3.8-.55h0c6.06-.69,12.13-1.3,18.14-2.26,4.08-.65,8.23-.8,12.24-1.8,5.43-.22,10.74-1.57,16.17-1.63,2.29,0,4.41-1,6.7-1a2.4,2.4,0,0,0,2.29-2.62c0-4.22.71-8.56-1.6-12.49-3.81-4.33-9-3.16-13.69-3-9.81.26-19,3.93-28.53,5.82-7.37,1.47-14.81,2.33-22.26,3.18-8.79,1-17.55,2.25-26.33,3.4-6.52.85-13,1.67-19.57,2.55-10,1.36-20,2.8-30,4.14-9,1.21-18.07,2.32-27.11,3.51-7.66,1-15.37.82-23.07,1-7.27.2-12.8-3.17-18-7.64a4.82,4.82,0,0,1-1.81-3.51c-.35-6.32-.94-12.64-1-19-.08-5-.59-10-.7-14.93-.16-8.73-.57-17.46.13-26.19C108.88,261.5,108.81,258,109.59,254.56Z" transform="translate(-37.6 -67.31)"/><path class="cls-4" d="M638.88,515.75c-4.74,6-10.26,11.39-15.4,17.07a45.39,45.39,0,0,1-6.93,7.13,123.37,123.37,0,0,1-11.62,9.25,1.19,1.19,0,0,1-1,.31c-4.32,2.75-8.35,6-13,8.17a131.21,131.21,0,0,1-25.38,8.93,89.55,89.55,0,0,1-18.93,2.69c-12.39.35-23.35-3.68-33.43-10.57a4.17,4.17,0,0,0-1-.52,58.66,58.66,0,0,1-7.46-5.86c-4.41-3.78-8.74-7.66-13.47-11a3.51,3.51,0,0,1-1.73-3.37c1.08-19,1.7-38,3.52-57,1-10.19,1.43-20.42,2.33-30.61,1.14-13,2.67-26,3.06-39,.21-7.17.54-14.32-.77-21.44a14,14,0,0,0-8.21-10.49c-5-2.44-10.44-3.52-15.93-4.24a24.84,24.84,0,0,1-3.73-.63c-3.56-.72-7.18-.19-10.77-.54-3.15-.32-3.87-1-3-4.1,3.13-11.05,6.56-22,10-33,4.81-15.56,9.93-31,16.22-46.05,3.46-8.28,6.64-16.69,11.38-24.37,2.24-3.64,2.48-3.66,6.54-2.21,10.23,3.63,19,9.73,27.59,16.18,6.37,4.8,12.66,9.71,19.18,14.3,2,1.42,3.74,3.16,5.6,4.75,2.53,1.73,4.41,4.22,7.08,5.85a13.33,13.33,0,0,0,5.71,2.19,11.14,11.14,0,0,0,4,.34c2.07,0,2.87,1.06,1.83,2.73-2.45,3.93-.64,6.83,1.89,9.7a75.68,75.68,0,0,0,7.4,6.81c1.45,1.25,1.73,2.39.9,4.25-1.35,3-3.74,5.34-5.21,8.26-1.62,3-3.77,5.74-5.46,8.73-9.4,13.45-17.15,27.84-24.41,42.51-3,5.41-5,11.31-7.53,16.95-2.09,6-4.66,11.91-6.3,18.12-1,3.86-1.52,7.78-2.22,11.68a6.14,6.14,0,0,0-.47,2.78,3.83,3.83,0,0,1-.25,1.61,7.53,7.53,0,0,0-.31,2.87,19.49,19.49,0,0,0-.31,2.52,15.44,15.44,0,0,0-.22,3.84,13.89,13.89,0,0,1-.07,1.7,14.87,14.87,0,0,0-.08,5.68c.13,6.1,1.72,12,2.92,17.9.87,4.34,3.39,8,6.09,11.42a11.56,11.56,0,0,0,1.74,2.25c.56.59,1.14,1.17,1.73,1.74a9.23,9.23,0,0,0,2.22,1.7c3,2.05,5.72,4.42,9.18,5.66,1.72.31,3.08,1.56,4.81,1.84,3.3,1,6.61,1.84,10.09,1.12a5.58,5.58,0,0,1,.78-.2A37,37,0,0,0,586,494.77a61.92,61.92,0,0,0,13.54-14.66,41.33,41.33,0,0,1,5.61-7.73,7.65,7.65,0,0,0,2.1-2.92c.1-.22.22-.44.33-.65,1.2-1.85,1.62-4.1,3-5.88.6-.55,1.17-1.14,1.81-1.64,4.82-3.78,7.57-3.4,11.22,1.51,1.1.89.82,3.88,3.52,2.32,2.38-1.41,2.73-4.42,4.79-6.09a3.19,3.19,0,0,1,.6-.5c1.24-.34,2-1.86,3.61-1.3,1.88,3.5,2.1,7.44,2.9,11.21,1,4.68,2.09,9.34,3.47,13.91.51,1.67,1.09,3.26.77,5s.3,2.41,1.87,1.46c3.34-2,6.35-4.5,9.61-6.63a2,2,0,0,0,.65-2.44,75.64,75.64,0,0,1-3.21-16.42c-.17-2-1.17-3.79-1.4-5.79-.54-4.66,2.25-6.87,6.67-5a20.49,20.49,0,0,1,10,8.8c2.11,3.69,2.34,7.89,2.63,12,.09,8.51-3.32,15.45-9.15,21.53-3.37,3.51-7.06,6.64-10.58,10l0,0a10.59,10.59,0,0,0-2.66,1.9A47,47,0,0,0,638.88,515.75Z" transform="translate(-37.6 -67.31)"/><path class="cls-5" d="M270.37,129.74a101.56,101.56,0,0,1,12.46-3.29c7.76-1.67,15.54-3.18,23.35-4.58,10-1.6,19.88-3.68,29.94-4.72,5.38-.56,10.81-.64,16.22-.91,12-.61,24-1.63,36-1.23,2.17.08,4.33.37,6.5.32a5.84,5.84,0,0,1,1.5.11c3.71.35,7.43.07,11.15.15a13.64,13.64,0,0,1,3.25.27c9.6,0,19.12,1.19,28.63,2.26a375,375,0,0,1,47,8.16c4.84,1.18,9.66,2.42,14.4,3.93,11.42,3.51,22.83,7.07,33.81,11.85,4.55,2.39,9.37,4.25,13.89,6.71l2.6,1.18c2,1.13,4,2.25,6,3.23a201.49,201.49,0,0,1,58.7,48.38c5.38,6.5,11,12.82,16.51,19.19,1.39,1.94,3.23,3.5,4.59,5.47a5.41,5.41,0,0,1,2.29,4.14c0,3.2,2.24,4.92,4.11,6.92a16.79,16.79,0,0,1,2.11,2.27c2,2.4,5.19,3.76,6.21,7,.54,1.33,1.29,2.56,1.84,3.9,1.44,3.51.62,6.86-2.49,9a30.71,30.71,0,0,1-7.56,4.09c-2.36,1-4.84,1.69-7.2,2.72l-.68.32c-2,.95-3,3.09-5,3.95a2.39,2.39,0,0,1-.69.31c-2.23-.44-2.71,2.06-4.37,2.59-1.91-.15-2.44-1.73-3-3.11a67.43,67.43,0,0,0-15-21.85c-7.26-7.09-13.86-14.88-22.21-20.83A295.1,295.1,0,0,0,533,197.54q-15.69-6.93-31.76-12.85c-3.83-1.41-7.8-2.41-11.61-3.86-6-2-12-3.81-18.17-5.25-2.36-.56-4.76-1.06-6.78-2.56a67.81,67.81,0,0,0-14.19-3.21c-10.41-1.36-20.9-1.68-31.37-2.3-9.74-.58-19.48-1.2-29.24-1.65-7.68-.35-15.39-1.25-23-.79-7.22.43-14.46,0-21.69.75a54.43,54.43,0,0,1-15.18-.34,3.07,3.07,0,0,0-1.35,0c-4.63,1.39-9.42-.21-14,.62-5.8,1.05-11.74.41-17.48,1.83-4.07,0-8.11.73-12.19.76-8.39.06-16.68,1.31-25,2.29a3.71,3.71,0,0,0-1.24.55,3.89,3.89,0,0,1-1,.3,49,49,0,0,1-5.55.08,2.84,2.84,0,0,1-2.59-1,2,2,0,0,1-.16-1.87c.44-2.85.08-5.72.21-8.57,0-.8.28-1.56.35-2.35.4-2.84.08-5.7.19-8.54a15.39,15.39,0,0,1,.32-2.79c.46-2.25.09-4.54.24-6.8a3.83,3.83,0,0,1,2.07-2.94C258.21,133.41,264.39,131.81,270.37,129.74Z" transform="translate(-37.6 -67.31)"/><path class="cls-6" d="M541.72,453.65A172.5,172.5,0,0,1,546.64,430a225.79,225.79,0,0,1,19.23-46.94c6.21-11.55,12.61-23,21.23-33a38.67,38.67,0,0,0,4.66-7c1-2,2.8-1.73,4.38-2.16.61-.17,1.05.35,1.15.91,2.24,11.89,9.66,21.09,16,30.89A82.13,82.13,0,0,1,619.6,385c1.33,3.09.71,5.74-.64,8.52-1.11,2.28-2,4.66-3.08,7-2.41,5.09-1.2,10.53-1.66,15.81-.39,4.58.92,8.21,4.59,10.94s5.07,6.32,4.8,10.83c-.12,1.95.6,3.91.52,5.93-.06,1.39-.52,2-1.94,1.91s-2.93.17-4.35-.05c-6.68-1-11.41,2.42-15.87,6.62-6.66,6.26-11.83,13.68-16.62,21.37a28.42,28.42,0,0,1-20,13.51c-4.29.76-7.54-2-11-3.73-2.75-1.36-4-4.09-5.49-6.56C544.48,469.83,542.74,461.83,541.72,453.65Z" transform="translate(-37.6 -67.31)"/><path class="cls-4" d="M663.84,253.91a31.21,31.21,0,0,1,9.19-1.63c3.66-.29,7.3-.68,11-1,12.63.57,24.52,3.65,35.18,10.68,2.62,1.73,5.41,3.28,7.54,5.67,3,3.07,5.78,6.34,9.12,9,5.32,6.34,8.68,13.7,11.06,21.54.57,1.88,1.29,3.78,1.07,5.83-.59,2.15-.2,4.28,0,6.45a63.59,63.59,0,0,1-3.47,25.95c-1,2.73-1,5.72-2.54,8.26-.71,1.86-1.24,3.83-2.87,5.19C729,366,713.41,375.73,697.86,385.51c-7.91,5-15.78,10-23.18,15.76A22,22,0,0,0,667.13,412a44.48,44.48,0,0,1-3.78,9.3c-1.82,3-4.05,4.92-7.94,4.48-3.68-.42-7.42-.36-11.13-.5-2.53,1-2.9,3.15-3,5.45-.11,2,.19,3.93-.18,5.88a36.15,36.15,0,0,0,1.39,7.91c.54,2.21,1.59,3.74,4,4.06a5.7,5.7,0,0,0,1.13.69,6.21,6.21,0,0,1,2.16,4.28c1.1,7.73,2.76,15.35,4.4,23,.69,3.21.25,5.49-2.86,7a22,22,0,0,0-2.46,1.7c-3.14,2.08-4.53,1.61-5.78-2a85.43,85.43,0,0,1-3.17-12.1c-.64-3.48-1.36-6.93-2-10.4-.47-2.47-1.07-4.95-.43-7.54a5.84,5.84,0,0,0-.33-3.74c-.44-.93.16-2-.44-2.93-.35-6.66-.79-13.32-1-20-.09-2.82-1-4.88-3.65-6.05a9.25,9.25,0,0,1-5.6-6.81c-.47-2.59.28-5,1.24-7.34a57.9,57.9,0,0,1,4.66-9.4c2.64-4.67,2.32-9.5.91-14.45-1.79-6.26-4.9-11.85-8.41-17.27-3-4.63-6.49-9-8.92-13.95-3.74-7.13-6.19-14.61-6.19-22.76,0-1.66-1.26-3-1.08-4.71.35-4.39.43-8.83,2.47-12.89,1.06-2.57,1.06-2.57,3.26-.2a8.67,8.67,0,0,0,4.34,2.11c1.92.29,2.34,1.38,2.09,3.08-.7,4.69.67,9.39,0,14.07A58.17,58.17,0,0,0,624.89,346a27.41,27.41,0,0,0,4.67,7.87c.77,1,.86,2.47,2,3.29a14.59,14.59,0,0,0,1.68,1.83c1.56,1.57,2.85,3.37,4.31,5,1.5,2,2.8,4.3,5.61,4.8,1.4,0,2.8.06,4.2,0,1.14-.13,1.07-1.08,1.23-1.87.36-1.87.64-3.74.9-5.63a17,17,0,0,1,.26-2.13,16.59,16.59,0,0,0,.29-4.34,21.57,21.57,0,0,1,.21-3.11,14,14,0,0,0,.33-3.92c0-.88,0-1.76.09-2.63a24.53,24.53,0,0,0,.47-3.41,15.62,15.62,0,0,1,.23-2.56,9.22,9.22,0,0,0,.35-2.91,11.28,11.28,0,0,1,.21-2.53,8.58,8.58,0,0,0,.36-2.47c.38-2,.48-4.15,1-6.18a10.66,10.66,0,0,1,.82-2.21,17.89,17.89,0,0,0,1.11-2.29c.07-.23.15-.45.23-.68a7.68,7.68,0,0,0-.19-3.92,4.29,4.29,0,0,1,0-1.92c.85-2.11.6-4.83,3.24-6a4,4,0,0,1,2.43,0,2.88,2.88,0,0,1,1,.65c1.24,1.51,1.63,3.41,2.32,5.17a6.69,6.69,0,0,0,2.18,3.36,4.16,4.16,0,0,0,2.48.36c3.19-.17,5-2.71,7.24-4.37a24.42,24.42,0,0,1,8.05-4.24,9.33,9.33,0,0,1,3.29.08,10.92,10.92,0,0,1,3.17,1.66c.66.57,1.26,1.22,1.88,1.83a24,24,0,0,1,2.16,2.85,3.38,3.38,0,0,0,2.3,1.91c2.21.86,4.62.67,6.88,1.32,2,.59,3.14,1.69,3,3.88a5.34,5.34,0,0,0-.17,2.57c1.2,2.36,3.18,4.48,2.14,7.47a6.89,6.89,0,0,1-3.51,3.52c-2.19,1.06-3.78,3-5.67,4.47a7.73,7.73,0,0,0-3.75,3.33,5.07,5.07,0,0,1-2.35,2.17,8,8,0,0,0-2.92,2.35c-2.68,3.59-6.26,6.35-9,9.9a1.79,1.79,0,0,1-.76.78,4.09,4.09,0,0,0-2.08,2.74c-2.95,3.9-6.11,7.65-8.36,12a5.75,5.75,0,0,0,.06,4.75c1.11,1.45,2.88,1.7,4.36,2.47a6.83,6.83,0,0,0,2.54.31c2.49.07,3.86-2.27,6.09-2.78a13.26,13.26,0,0,0,5.84-3.33,3,3,0,0,1,1-.33,5.36,5.36,0,0,0,2.63-.83c.6-.47,1.42-.19,2-.58s1.51-.56,2.22-.94a5.44,5.44,0,0,1,.66-.28,6,6,0,0,0,2.22-1.12A70.45,70.45,0,0,0,718,359.45a3.88,3.88,0,0,0,1.82-1.6c1.1-1.31,2.4-2.44,3.41-3.84,3.11-3,5.21-6.8,7.63-10.34a48.18,48.18,0,0,0,4-9.05c1.15-3.63,2.57-7.21,1.53-11.13a4.76,4.76,0,0,1,.16-1.25,71,71,0,0,0,0-11.2,64.09,64.09,0,0,0-6.77-20.47L729.2,289c-3.2-8.32-9.21-14-17-18a7.55,7.55,0,0,1-2.68-1.47c-1.31-2.25-3.85-1.87-5.82-2.72a3.39,3.39,0,0,1-.91-.59c-.93-1.05-2.16-.44-3.26-.58-1-.59-2.25-.4-3.09-1.28-.44-.15.74-.51-.13-.69-2-.41-4.13.65-6.1-.39-.84-.47-1.77-.7-2.63-1.12-1.75-.59-3.55-.12-5.33-.27-2,0-3.93,0-5.42,0,1.48.08,3.46,0,5.43,0,1.57,0,3.15,0,4.73,0,.5.33,1.2.38,1.5,1-1.48,1.2-3.25.73-4.92.85-6.33-.37-12.37,1.21-18.41,2.74-6-.22-10.82,2.93-15.71,5.75a7.8,7.8,0,0,1-6.49.54c-.41-.12-1-.05-.93-.71a.93.93,0,0,1,.63-.81c1-.4,2-.85,3-1.25a36.91,36.91,0,0,0,10.62-6.38c2-1.74,3.81-3.65,4.06-6.49C660.54,255.08,662.47,254.8,663.84,253.91Z" transform="translate(-37.6 -67.31)"/><path class="cls-7" d="M257.89,171.21a2.09,2.09,0,0,0,.5,0c5.09-1.19,10.28-1.5,15.48-2,8.7-.8,17.48-.67,26.12-2.11,4.5-.46,9-.75,13.54-1,12.55-.7,25.15-.22,37.72-.87,5.22-.27,10.45.05,15.7-.46,4.57-.45,9.22.37,13.84.54,6.79.24,13.58.58,20.37.95,11.57.64,23.15,1.05,34.72,1.84,6.24.43,12.42,1.3,18.59,2.13a50.46,50.46,0,0,1,11,2.64c4.91,2,10.17,2.75,15.19,4.35,3.14,1,6.43,1.58,9.37,3.17,1.44.88,1.73,2.12,1.38,3.73A22.21,22.21,0,0,1,489,191c-1,1.65-2.17,3.18-4.43,3.08-12.06-3.54-24.14-7-36.53-9.25a101.62,101.62,0,0,0-13.49-1.28c-8-.33-15.91-.8-23.86-1.29-11-.69-22.05-1.13-33.06-2a63,63,0,0,0-12.5.22c-4.68.58-9.41-.15-14.11-.22-7.33-.11-14.7,1-22,.29s-14.26.68-21.39.87c-10.46.28-20.9,1.67-31.39,2a112.63,112.63,0,0,0-16.39,1.95,25.73,25.73,0,0,1-6.79.15,2,2,0,0,1-1.57-1.12c-.72-3.89-3.43-7.38-2.3-11.64a1.81,1.81,0,0,1,.92-.91A59.71,59.71,0,0,0,257.89,171.21Z" transform="translate(-37.6 -67.31)"/><path class="cls-8" d="M485.12,193.53c4-1.8,7-9.69,4.92-13.14a271.78,271.78,0,0,1,35.09,12.88c10.94,4.87,21.91,9.68,32.31,15.79A345.39,345.39,0,0,1,588,228.89c6.53,4.83,11.65,11.14,17.53,16.64A77.14,77.14,0,0,1,620.61,265c.86,1.57,1.54,3.23,2.31,4.86.64,1.35,1,3,2.84,3.25,1.36-.23,1.14,1,1.49,1.66a4.13,4.13,0,0,0,2.85.58,4.69,4.69,0,0,1,3.63.78c4.28,3.84,9.68,3.51,14.8,4,3.27.32,6.46.6,9.39,2.2.73.92,2.72.34,2.64,2.22-.72,1.52-2.15,1.8-3.58,2a84.9,84.9,0,0,1-18.17-.21,4.13,4.13,0,0,1-2.7-1.17c-3.11-3.35-7.18-2.28-10.75-1.84-2.05.26-4,2.47-4,5.21,0,3.17,0,6.34,0,9.51a3.45,3.45,0,0,0,.95,2.45,3.86,3.86,0,0,1-.24,5.43c-1.32,1.44-2.83-.1-4.11-.81-2.79-1.55-4-3.66-3.25-7.09.85-4,1.63-8.22.82-12.4-.42-2.19-.74-4.57-3.39-5.43a6.1,6.1,0,0,1-.62-.52c-1.62-2.83-2.25-6.08-4-8.9a67.65,67.65,0,0,0-11.19-14.32c-6.38-5.91-11.86-12.75-19.1-17.78a353.59,353.59,0,0,0-33.85-21.23c-5-2.68-10.19-4.72-15.26-7.12q-10.08-4.78-20.49-8.78c-5.84-2.22-11.68-4.46-17.62-6.41a39,39,0,0,0-4.3-.61C485.27,194.28,485,194,485.12,193.53Z" transform="translate(-37.6 -67.31)"/><path class="cls-9" d="M120.39,134.1c-5,.23-9.78-1.78-14.68-3a34.86,34.86,0,0,1-3.68-1c-4-1.51-7.54-1.05-10.86,1.86-2.64,2.32-5.79,1.81-8.77.69C77.92,131,74,128,69.28,126.78,67,126.19,66,123.7,65.6,121.4c-.38-2.06-.61-4.32.2-6.19,1.1-2.53,0-3.7-1.75-5.15s-4.82-2.4-4.56-5.86a10.37,10.37,0,0,1,5-8.57c2-1.22,2.6-2.49,2.19-4.77C66,87.1,67.85,84.38,71,82.5c5-3,10.45-5.07,15.78-1.33,2.95,2.08,5.27,3.47,8.94,2a5.4,5.4,0,0,1,6,1.64,1.51,1.51,0,0,0,2.1.37c9.74-4.6,18.37-1.88,26.39,4.2a38.27,38.27,0,0,1,8.06,8.45c2.35,3.31,2.62,6.34-.08,9.41a8.24,8.24,0,0,0-1.76,8.27C138.82,124.37,130.25,135.38,120.39,134.1Z" transform="translate(-37.6 -67.31)"/><path class="cls-10" d="M251.48,184.38l.92.47c.91,1,.75,2.17.75,3.33,0,5.23,0,10.46,0,15.69a9.12,9.12,0,0,0,.3,2.94,15.2,15.2,0,0,1,.27,3.36,11.66,11.66,0,0,0,.24,4c.25,1.23.33,2.49.62,3.72,1.63,7,2.52,7.88,9.79,9a9.65,9.65,0,0,0,3.43.29,11.19,11.19,0,0,1,2.31.25,75.55,75.55,0,0,0,15.48-.08c5.15-.56,10.34-.48,15.49-.61,8.43-.21,16.87-1,25.3-.67,6,.27,12,.34,17.91,1.2A21.52,21.52,0,0,1,348,228a7.54,7.54,0,0,1,5.46,7.29c.34,8.46-.72,16.86-1.24,25.27-.62,10-1.24,19.92-2.12,29.85-1.31,14.78-1.11,29.57-.92,44.36.16,12.24,1,24.47,1.06,36.72,0,2.63.62,3.18,3.28,3.24,5.83.13,11.58-.85,17.36-1.33,1.08-.09,2.16-.24,3.25-.28q26.14-.76,52.28-.54c6.09.05,12.14-.9,18.23-.56,1.64.1,2.31-.7,2.76-2.28,3.89-13.81,8.24-27.48,12.44-41.2,5.61-18.34,12.47-36.23,19.76-53.95,2.56-6.23,5.29-12.38,10.32-17.14a7,7,0,0,1,2.08-1.72c2.17-.5,4.38-.2,6.57-.24a67.67,67.67,0,0,1,22.32,9.66,261.1,261.1,0,0,1,39.18,30.47c.73.69,1.55,1.25,2.32,1.87,3.18,2.55,6.36,2.86,10,.77,3.06-1.74,6.13-3.51,9.32-5a16.4,16.4,0,0,1,4.85-1.71c1.33-.15,2.69.13,4-.38,2.36-.65,4.2-2.6,6.79-2.64a1.13,1.13,0,0,1,.66.47c-3,2.22-6.23,4-10.16,4.06-2.84,0-5.17,1.58-7.55,2.9a78.46,78.46,0,0,1-9.43,4.86,7.62,7.62,0,0,1-6.79-.46,33,33,0,0,1-6.24-4.8c-13.41-12-27.26-23.47-43.12-32.18-5.95-3.27-12.05-6.38-19.17-6.42a5.31,5.31,0,0,0-4.06,1.63c-4.83,4.57-7.39,10.47-10,16.39-13.39,30.53-22.63,62.48-32.29,94.28-.42,1.39.19,3.25-.95,4.12-1.39,1.06-3.34.43-5,.42q-34.87-.19-69.73,1.1c-6.81.25-13.55,1.39-20.38,1.33-4.33,0-4.33,0-4.44-4.33-.47-19.52-1.73-39-1.33-58.56.49-24,3-47.84,4.4-71.77.11-1.73.17-3.45.18-5.17,0-3.86-1.88-6.2-5.67-7A89.63,89.63,0,0,0,330,227.94c-17.72-.38-35.4,1.06-53.11,1.24a81.76,81.76,0,0,1-16-1.22c-3.83-.72-6.13-2.75-7.16-6.48a43.59,43.59,0,0,1-1.61-8.28C251.41,203.61,251.73,194,251.48,184.38Z" transform="translate(-37.6 -67.31)"/><path class="cls-11" d="M125.43,161.37a29.43,29.43,0,0,1-12-1.56,16.82,16.82,0,0,1-5-2.74c-3.79-3.13-3.64-7.27.45-9.71,7.42-4.42,15.53-5.7,24-4.78a31.79,31.79,0,0,1,11.46,3c2.62,1.37,4.89,3.25,4.85,6.34s-2.22,4.82-4.76,6.13c-4.53,2.35-9.46,2.92-14.43,3.3C128.52,161.46,127,161.37,125.43,161.37Z" transform="translate(-37.6 -67.31)"/><path class="cls-12" d="M552.64,299.82c-3.46-2.13-6.3-5-9.65-7.34-10.42-7.17-19.92-15.63-30.86-22.08a90.21,90.21,0,0,0-13.58-6.17c-1.69-.65-2.67-.19-3.65,1.23-4.68,6.88-7.5,14.66-10.76,22.22-6.05,14.07-11,28.56-15.59,43.14-4.13,13-8,26.11-12,39.18-.79,2.6-.21,3,2.38,3.46,3.63.63,7.37-.14,10.92,1.06a113.63,113.63,0,0,1-13.05-.34c-1.65-.15-2.39-.62-1.82-2.57,8.58-29.45,17.19-58.89,29.34-87.14,2.87-6.68,5.74-13.34,9.64-19.51,1.3-2.06,2.63-2.51,4.94-1.71a87.43,87.43,0,0,1,22.74,12.13c9.25,6.71,18.38,13.6,27.53,20.46a46.46,46.46,0,0,1,3.58,3.31A.41.41,0,0,1,552.64,299.82Z" transform="translate(-37.6 -67.31)"/><path class="cls-13" d="M694.32,406.66c-1.53-1.57-2.23-3.36-.84-5.3s3.14-3.74,6.08-2.62a18.71,18.71,0,0,1,4.18,1.82c.91,1,1.8,2,2.68,3,1.44,1.42,3.94,1.46,4.81,3.64.21.36.41.72.61,1.08.6.6.62,1.52,1.16,2.15h0c.31,5.19-2.29,7.17-7.76,5.43C700.58,414,697.88,409.81,694.32,406.66Z" transform="translate(-37.6 -67.31)"/><path class="cls-14" d="M637.18,449.14c1.52.75,1.24,2.21,1,3.36-.92,5.33,1.16,10.23,1.95,15.32a96.41,96.41,0,0,0,3.47,14.73c1.21,3.82,1.64,4.06,5,1.81,5.91-4,5.82-4,4.22-11-1.46-6.39-3-12.77-3.7-19.33a9.71,9.71,0,0,0-2.15-4.92c.15-.12.4-.28.46-.2,2.26,2.47,5.59,1.27,8.23,2.39a23.15,23.15,0,0,1,13.67,12.51c.79,3.15,2,6.27.84,9.6a.61.61,0,0,1-.85.23c0-9.05-2.89-16.41-11.61-20.57a6.32,6.32,0,0,0-5.68.32c-1.46.74-.92,2.92-.56,4.29,1.35,5.11,1.77,10.35,2.79,15.49.4,2.05.43,4.43,1.85,6.35a2.25,2.25,0,0,1-.77,3.33c-3.94,1.89-6.92,5.17-10.78,7.14-.7.35-1.29.72-2,.13a1.49,1.49,0,0,1-.41-1.75c1.6-3.66-1.25-6.56-1.68-9.88-.4-3.14-1.63-6.18-2.21-9.31a81.71,81.71,0,0,0-2.76-11.89A24.87,24.87,0,0,0,637.18,449.14Z" transform="translate(-37.6 -67.31)"/><path class="cls-11" d="M138.46,170.64a14.84,14.84,0,0,1,6.42,1.7c2,1,3.37,2.61,3.34,4.89a5.36,5.36,0,0,1-3.45,4.8,14.9,14.9,0,0,1-13.54.11c-2.09-1-3.6-2.63-3.56-5s1.56-4,3.66-5A15.66,15.66,0,0,1,138.46,170.64Z" transform="translate(-37.6 -67.31)"/><path class="cls-15" d="M342.86,250.12c.52-2.93,1.2-5.83,1.52-8.78.39-3.49.26-4.54-3.75-5.4-9.42-2-18.93-1.74-28.4-1.43s-18.78.81-28.19,1.06c-6.48.17-12.89,1.78-19.4,1.51-5.46-.23-10.7-1.07-14.63-5.75-2.9-3.45-3.5-7.5-4.1-11.56-.77-5.25-1.21-10.56-1.62-15.86a35.4,35.4,0,0,1,.46-5.1c.38-5.57-1.86-10.63-3.11-15.88-.5-2.11-1.4-4.13-1.24-6.36.09-1.21-.54-1.62-1.64-1.57,2.88-.95,2.91-.93,2.68,1.91s.93,5.35,1.72,7.92a48,48,0,0,1,2.19,16,93,93,0,0,0,1.92,21.57c2,9.64,6.5,13.32,16.38,13.63,8,.26,15.9-1.08,23.85-1.42.46,0,.9-.13,1.35-.14,6.89-.21,13.77-.43,20.65-.59,7.33-.17,14.65-.73,22,0,3.61.33,7.16.88,10.73,1.51,2.43.43,3.31,1.91,3.17,4a54.73,54.73,0,0,1-1.45,9.91C343.79,249.84,343.56,250.25,342.86,250.12Z" transform="translate(-37.6 -67.31)"/><path class="cls-16" d="M704.45,227.32c-1.22,2.87-1.68,6.55-5,8.66a4.36,4.36,0,0,1-5.12.1A4.85,4.85,0,0,1,692,231a15.12,15.12,0,0,1,3.89-7.64c1.46-1.61,3.17-2.83,5.2-1.7A6.39,6.39,0,0,1,704.45,227.32Z" transform="translate(-37.6 -67.31)"/><path class="cls-13" d="M770.75,299.93c-.21.5-.43,1-.65,1.51-1.21,1.92-3.47,2.55-5,4.05-.64.69-1.32,1.34-2,2l0,0a8.59,8.59,0,0,1-3.6.32c-4.34-2.33-4.85-4-2.37-8.08,1.79-3,4.58-4.84,7.46-6.55,1.59-.95,4.51-.22,5.74,1.13C772,296.11,772.09,297.78,770.75,299.93Z" transform="translate(-37.6 -67.31)"/><path class="cls-17" d="M735.61,385.47a6.13,6.13,0,0,1-3.13-2.05c-1.64-1.7-3-3.52-3.18-6-.2-3.43,1.58-5.13,5-4.85a3.11,3.11,0,0,1,1.57.23l1.55.6c1.62,1.52,3.5,2.74,5.08,4.3a5,5,0,0,1,1.31,2.87C744.32,386.09,741.66,387.67,735.61,385.47Z" transform="translate(-37.6 -67.31)"/><path class="cls-18" d="M537.42,488.39a24.08,24.08,0,0,1-6.89-13.63c-.39-2.89-1.1-5.75-1.73-8.61a34.69,34.69,0,0,1-.64-7.18,14.89,14.89,0,0,1,0-6v-1.63c.73-1.2-.14-2.63.53-3.84,0-.9,0-1.8,0-2.7.66-.82-.09-1.91.53-2.74v-1.62c.67-.81-.09-1.91.54-2.73.74-10.62,4.35-20.41,8.73-30a.45.45,0,0,1,.7,0c-1.91,6.32-4.47,12.42-6.07,18.85C530,439.27,528,452,529.75,465.06c2,14.91,9.09,26.33,22.44,33.61a.85.85,0,0,1-.05,1.17,27.91,27.91,0,0,1-9.26-6c-.74-.53-1.41-1.16-2.18-1.65a3.4,3.4,0,0,1-1.63-1.63C538.58,489.8,538,489.13,537.42,488.39Z" transform="translate(-37.6 -67.31)"/><path class="cls-16" d="M680.81,231.39c-.17,3.66-.51,4.51-6.06,4.66-3.24.08-5.23-2.75-4.91-6.39a12.76,12.76,0,0,1,2.08-5.81c1.69-2.67,6.24-2.37,7.63.46A14,14,0,0,1,680.81,231.39Z" transform="translate(-37.6 -67.31)"/><path class="cls-12" d="M575.61,339.64c1.06-3.32,4-5.49,5.31-8.71.63-1.54.48-2.2-.65-3.17-3-2.58-6-5.16-8.83-7.92a6.92,6.92,0,0,1-.89-9.24c1.1-1.64.51-2-1.13-2.1-1.4-.09-2.91.56-4.19-.52,2-.63,4.19-.25,6.23-.83,1.64-.46,3.2-1.11,4.8-1.64,5.15,2.31,9.25,6,13.17,10,.46.95.73,2,1.19,2.93a1.4,1.4,0,0,1-.25,1.14,1.58,1.58,0,0,1-2.11-.7c-2-2.64-4.86-4.33-7.08-6.71a6.8,6.8,0,0,0-2.44-1.68c-2.52-1.07-4.28-.81-5.67.86a4.94,4.94,0,0,0-.06,6.28,47.11,47.11,0,0,0,9.43,8.51c1.53,1.09,3.48.88,5.26,1.1,1.2.16,1.65-.82,2.16-1.72.71-1.26.53-2.87,1.59-4,.75.11.87.56.65,1.19.46,3.94-.85,6.23-4.67,6.3s-5.48,2-6.56,5.08c-1.18,1.31-2.21,2.72-3.27,4.13C577.1,338.86,576.72,339.79,575.61,339.64Z" transform="translate(-37.6 -67.31)"/><path class="cls-19" d="M684.07,309.61c-4.34,1.4-7.71,4.36-11.17,7.13a5.52,5.52,0,0,1-4.12,1.6c-.81-.67-1.9.1-2.7-.54-2.69-1.79-2.43-5.09-3.87-7.51a10.26,10.26,0,0,1-.51-1.23c-.54-.95-.07-1.28.82-1.35,1.4.08,1.53,1.33,2,2.23a44.81,44.81,0,0,1,1.8,4.15,2.83,2.83,0,0,0,3.52,2c2.36-1,4.22-2.76,6.33-4.15a26.44,26.44,0,0,1,7-3.6c4.28-1.24,7.87-.33,10.21,3.35s5.51,6,10.11,6a3.86,3.86,0,0,1,4.21,4c.18,3.54,2.56,6.6,2,10.25-.16,1,.2,2.24-1.06,2.86-.76-.76-.48-1.54-.05-2.33.44-2.87-1.29-4.93-2.7-7.1.64-.78-.1-1.84.52-2.63-.44-2.91-1.51-4.08-4.82-4a15.68,15.68,0,0,1-5-1,7.34,7.34,0,0,1-2.18-2.19c-1.13-.6-1.46-1.83-2.18-2.75-.5-.62-.82-1.44-1.75-1.6l-2.61-1.65A5.55,5.55,0,0,0,684.07,309.61Z" transform="translate(-37.6 -67.31)"/><path class="cls-16" d="M746.14,250.13l-.5,1.17c-.89,1.26-1.77,2.53-2.74,3.72-1.74,2.11-4.07,2.75-6,1.85s-2.93-2.91-2.74-5.66c.47-3,2.62-4.78,4.83-6.5,3-1.31,4.38-1,6.72,1.66v0A8.23,8.23,0,0,1,746.14,250.13Z" transform="translate(-37.6 -67.31)"/><path class="cls-20" d="M739,349.87l2.22-4.88c4.3-10.08,7.31-20.45,6.86-31.56-.13-3.34-.85-6.63-.78-10a58.43,58.43,0,0,0-12-26.53c-.32-.48-.84-.89-.6-1.58,1.31-.43,1.59.77,2.11,1.44,9.48,12.4,14,26.41,13.12,42a64.46,64.46,0,0,1-9.2,29.7C740.42,349,740.41,350.43,739,349.87Z" transform="translate(-37.6 -67.31)"/><path class="cls-21" d="M395.19,115.58c-8.7,0-17.45-.49-26.1.22-12.33,1-24.72.83-37,2.39-7.88,1-15.65,2.54-23.47,3.81-.89.14-1.81.13-2.71.19a2.57,2.57,0,0,1-2.35-.09c12.55-2.35,25-5,37.86-5.65,17.56-.83,35.11-2.53,52.73-1.56.36,0,.72.07,1.08.1.16.14.22.27.16.4S395.25,115.58,395.19,115.58Z" transform="translate(-37.6 -67.31)"/><path class="cls-22" d="M552.14,499.84c0-.39,0-.78.05-1.17,3,.77,5.82,2.32,9,2.81,8,1.22,14.64-1.76,21-6a14,14,0,0,1,3.47-3c5-3.87,8.62-9,12.52-13.86.4-.49.67-1.1,1.37-1.23a61.23,61.23,0,0,0,7.25-10.05,6.72,6.72,0,0,1,2-2.54c1.09,1.82-.86,2.94-1,4.47h0a34.37,34.37,0,0,1-2.16,3.28l-5.47,7.61a83.8,83.8,0,0,1-13.43,14A40.26,40.26,0,0,1,568,502.55h0c-3.75.83-7.32-.13-10.9-1.07C555.18,501.62,553.91,500,552.14,499.84Z" transform="translate(-37.6 -67.31)"/><path class="cls-23" d="M642.78,369.49c-2.82-.73-4.42-2.77-5.61-5.25-.07-.24-.18-.49.09-.69a.58.58,0,0,1,.88.13c1.9,1.47,3.51,3.38,6,4.05,2.07.56,3.48.28,3.69-2.33.57-7,1.26-14,1.92-21,.1-1.06-.13-2.18.46-3.17.6-2.44.54-5,1-7.44a.68.68,0,0,1,.73-.24c.55.84-.1,1.88.47,2.72-.07.95.43,2-.53,2.81a3.08,3.08,0,0,0,0,2.65c.26,1.21-.35,2.27-.55,3.41a3,3,0,0,0,0,2.6c-.16,1.29.52,2.69-.51,3.86a4.13,4.13,0,0,0,0,3.2c-.11,1.49.47,3-.4,4.46-.77.64-.36,1.37-.14,2.08q-.54,3-1.06,6.08c-.44.65-.41,1.66-1.42,1.87C646.09,369.41,644.42,369.07,642.78,369.49Z" transform="translate(-37.6 -67.31)"/><path class="cls-24" d="M674.78,381.56c-2,.11-3.11-2-5-2.23a16.93,16.93,0,0,1,.08-5.94,65.94,65.94,0,0,1,8.71-12c.65-1,1.08-2.17,2.22-2.77l.5-.51c1-.07.91.39.56,1L674.81,369a10.17,10.17,0,0,1-1.8,3.62,6.79,6.79,0,0,0-1,5.68c3,2.06,5.82,2.65,9.23.15a31.84,31.84,0,0,1,9.38-4.53c.39,1-.63,1.13-1.09,1.61a8,8,0,0,1-4.4,3.15c-1.7.59-3.64,1-4.89,2.61-.71.89-1.73.81-2.72.77C676.67,381.44,675.58,382.2,674.78,381.56Z" transform="translate(-37.6 -67.31)"/><path class="cls-25" d="M663.84,253.91a8,8,0,0,0-3.56,5.3c-.71,3.19-3.66,5-6.23,6.85a50.14,50.14,0,0,1-11.66,5.85c3.1,1.42,3.73,1.36,6.33,0,3.72-2,7.42-4,11.27-5.67,1.29-.56,3-.13,4.52-.16,0,.77-.51,1.13-1.06,1.41-4.4,2.23-8.75,4.56-13.26,6.56a2.29,2.29,0,0,1-1.57.18,62.64,62.64,0,0,1-10-1.88c2.55-1,4.53-1.69,6.47-2.49A35.91,35.91,0,0,0,656.43,263c1.82-1.72,3.29-3.58,3.61-6.2C660.31,254.63,662.09,254.23,663.84,253.91Z" transform="translate(-37.6 -67.31)"/><path class="cls-26" d="M648.62,274.22l15.89-8.15c6.16-2,12.42-3.27,18.94-2.73,1.21.67,2.68-.28,3.86.6a2.16,2.16,0,0,1-1.78.44c-8.65-.51-16.43,2.52-24.15,5.87-3.38,1.47-6.85,2.73-10.28,4.09C650.26,274.67,649.41,275.09,648.62,274.22Z" transform="translate(-37.6 -67.31)"/><path class="cls-27" d="M501,130.56c-6.73-1.74-13.42-3.62-20.18-5.16-9.69-2.21-19.48-4-29.32-5.35-11.37-1.61-22.79-2.78-34.23-3.74-2.08-.17-4.17-.12-6.25-.18-.19-.12-.25-.25-.18-.38s.12-.18.18-.18c8.54-.1,17,.92,25.45,1.83a377.91,377.91,0,0,1,56.64,10.15c2.62.69,5.21,1.52,7.81,2.29a.54.54,0,0,1,.17.46C501.05,130.47,501,130.56,501,130.56Z" transform="translate(-37.6 -67.31)"/><path class="cls-28" d="M512.25,558.21c3.16.95,5.47,3.38,8.45,4.7,10.85,4.79,22.06,6.79,33.91,5.15,3.73-.51,7.44-1.17,11.17-1.73.18.12.24.25.18.38s-.12.19-.18.19c-18.13,5.6-35.33,4.17-51.26-6.79A6.93,6.93,0,0,1,512.25,558.21Z" transform="translate(-37.6 -67.31)"/><path class="cls-15" d="M238.76,175c-2.52,2.66-6,1.55-9,2-5,.79-10.14,1.41-15.19,2.05-3.52.45-7.25.25-10.73,1.75-2,.88-4.52.49-6.83,1-2.53.57-5.23.91-7.85,1.36-.32-1.85,1.67-.89,2.15-1.76,5.57-.85,11.15-1.69,16.72-2.57,4.52-.72,9-1.54,13.54-2.21A137.2,137.2,0,0,1,238.76,175Z" transform="translate(-37.6 -67.31)"/><path class="cls-29" d="M689.49,375.57l1.09-1.61c6.46-2.64,13-5.08,18.72-9.24,2.49-1.82,4.94-3.68,7.41-5.52a10.49,10.49,0,0,0,2.68-2.38l2.6-2.59c.43.14,1-1.47,1.3.12-.43,1.81-1.95,2.69-3.24,3.76a5.54,5.54,0,0,1-1.63,1.64,61.08,61.08,0,0,1-18,12,24.51,24.51,0,0,0-2.73,1.07l0,0c-.88.5-2,.54-2.77,1.2l-1.64.45c-.87.46-1.87.6-2.73,1.1Z" transform="translate(-37.6 -67.31)"/><path class="cls-30" d="M726.56,268.19a65.92,65.92,0,0,0-21.78-12.65c-6.18-2.22-12.62-2.74-19-3.72a11.51,11.51,0,0,1-1.78-.57c2.6-1.08,5.22-.16,7.75.18,13.7,1.81,26,6.85,36,16.67A.74.74,0,0,1,726.56,268.19Z" transform="translate(-37.6 -67.31)"/><path class="cls-31" d="M576.68,305.83c-3.69,1.4-7.41,2.6-11.45,2.15-4.21,0-6.83-2.94-9.8-5.21a25.19,25.19,0,0,1-2.79-2.95l.12-.67c1.48.61,2.42,1.89,3.52,2.94,5.8,5.56,12.31,6.53,19.49,3.06,3.91-1.89,7.77-3.9,11.62-5.94,2.12-1.12,3.21-.58,3.92,1.71,1.06,3.4,1.92,6.78,1.31,10.38.15.65.16,1.2-.77,1.11-1.61-1.42-.84-3.18-.7-4.85a5.69,5.69,0,0,0-.28-3.06c-1.84-4.94-1.79-4.86-6.45-2.22C582,303.68,579.81,305.86,576.68,305.83Z" transform="translate(-37.6 -67.31)"/><path class="cls-32" d="M121.05,203.35c-3.72,4-4.91,9-6.25,14.23-2.66,10.48-2,21.27-4.1,31.73-.1.53-.06,1.09-.57,1.44.7-7.51,1.6-15,2-22.53A131.57,131.57,0,0,1,114,214.6,20.62,20.62,0,0,1,123.21,200C123.35,201.69,121.72,202.21,121.05,203.35Z" transform="translate(-37.6 -67.31)"/><path class="cls-33" d="M320.51,315.62c3.61,4.05,2,8.88,1.91,13.45a2.3,2.3,0,0,1-2.08,2.24c-2,0-3.93,1.23-5.81,1.09-5.9-.44-11.57,1.83-17.45,1.2-.18-.1-.25-.2-.18-.3s.12-.15.19-.15c3.71-1.13,7.6-1.08,11.4-1.67,3.55-.56,7.15-.77,10.71-1.22a2.54,2.54,0,0,0,2.53-2.86A42.8,42.8,0,0,0,320.51,315.62Z" transform="translate(-37.6 -67.31)"/><path class="cls-34" d="M737,322.69l-.09,1c-.47,2.42-.14,5-1.11,7.31-.39.93-.36,2.18-1.64,2.56-.6-2.74.89-5.15,1.22-7.75,1.39-11.08.4-21.76-4.6-31.91-.5-1-1.78-1.93-1-3.37,4.28,6.05,6.18,12.95,7.26,20.15A74.75,74.75,0,0,1,737,322.69Z" transform="translate(-37.6 -67.31)"/><path class="cls-35" d="M109.59,254.56c-1.1,12.18.2,24.44-1.12,36.61a31.88,31.88,0,0,1-1-7.95,136.31,136.31,0,0,1,1.63-27.74A3.64,3.64,0,0,1,109.59,254.56Z" transform="translate(-37.6 -67.31)"/><path class="cls-36" d="M669.33,473.67h.54c1.52,2.37.48,5,.7,7.46a6.25,6.25,0,0,1-.18.86c-.45,1.26-1.51,2.28-1.52,3.72a27,27,0,0,1-9.36,11.94c-3.16,2.27-5.79,5.22-9.18,7.21a5.62,5.62,0,0,1,2.43-2.82c4.37-3.12,7.45-7.46,10.83-11.48A24.59,24.59,0,0,0,669.33,473.67Z" transform="translate(-37.6 -67.31)"/><path class="cls-37" d="M681.86,359.18c0-.43-.09-.84-.56-1-.39-1.58,1.16-2.48,1.84-2.88,4.53-2.65,6.12-8.27,11.1-10.52,2-.9,2.33-4.19,5.08-4.63.3.35.92.1,1.15.6C693.88,346.48,687.88,352.84,681.86,359.18Z" transform="translate(-37.6 -67.31)"/><path class="cls-38" d="M233.33,255c3.93-2.53,8.34-1.94,12.68-2.15,4.59-.22,9.16-.66,13.76-.47.9,0,2.1-.47,2.44,1C252.61,254.37,243,254.49,233.33,255Z" transform="translate(-37.6 -67.31)"/><path class="cls-20" d="M611.06,310.81c-.34,4.33-1.79,8.51-1.72,12.89a91.89,91.89,0,0,0,.66,10.09c.16,1.36,1,2.77-.06,4.13,0,.09,0,.2-.05.26a2.6,2.6,0,0,1-.32.35c-.3-1-.63-2-.9-3-2-7.7-2.16-15.34.72-22.89a8.18,8.18,0,0,1,1.2-2.4C610.88,309.85,610.94,310.55,611.06,310.81Z" transform="translate(-37.6 -67.31)"/><path class="cls-34" d="M621.88,323.78c.39.1,1-1.19,1-.14.23,9.2,2.82,17.86,5.88,26.42,0,.1-.18.29-.27.43-1.38-.23-1.81-1.39-2.36-2.41a45.31,45.31,0,0,1-5-17.62C621.3,328.22,620.48,325.88,621.88,323.78Z" transform="translate(-37.6 -67.31)"/><path class="cls-39" d="M621.87,330.87c.85,7,2.64,13.7,6.67,19.62a1.41,1.41,0,0,0,0,.46c.27,1.14,1.72,1.93,1,3.37-1.92-.92-2.6-2.87-3.57-4.52-2.86-4.89-4-10.42-5.59-15.75-.37-1.2.4-2.49-.08-3.72-.24-.31-.36-.64,0-1s.66-.15.94.07C621.64,329.79,621.56,330.43,621.87,330.87Z" transform="translate(-37.6 -67.31)"/><path class="cls-40" d="M621.87,330.87c-.67.22-.42-2.23-1.59-.54-.18-.39-.6-.85-.51-1.16,1.36-4.67-1.06-9.43.37-14.08.43-1.39-.65-1.61-1.58-2-1.55-.6-3.37-.76-4.24-2.51,1.91.74,3.65,1.91,5.83,1.92,1.42,0,1.88.93,1.82,2.36-.13,3-.07,5.93-.09,8.89C621.88,326.15,621.87,328.51,621.87,330.87Z" transform="translate(-37.6 -67.31)"/><path class="cls-41" d="M249.76,172.21l-.58.53c-.74-4,0-7.94.13-11.9.21-6.7.71-13.39,1-20.09a4.24,4.24,0,0,1,1.87-3.67,45.61,45.61,0,0,1,18.21-7.34,38.9,38.9,0,0,1-8.51,3.34,36.12,36.12,0,0,0-9.24,4.55,2.48,2.48,0,0,0-1.32,1.94c-.73,2.32.14,4.75-.5,7.07l-.06,2.72c-.72,2.88.17,5.85-.49,8.73l-.05,2.17c-.72,2.88.16,5.85-.49,8.73v1.66A1.25,1.25,0,0,1,249.76,172.21Z" transform="translate(-37.6 -67.31)"/><path class="cls-42" d="M767,335.7a5.66,5.66,0,0,1,4.7,4.34,4.6,4.6,0,0,1-1.49,5.16,5.32,5.32,0,0,1-.85.67c-2.85,1.31-11.71-.85-13.79-3.31-1.57-1.85-1.36-3.8-.45-5.84a4.08,4.08,0,0,1,4.33-2.58c2.62.11,5.23.24,7.59,1.57-1.16,1.17-2.51.67-3.81.37a12.25,12.25,0,0,0-3.17-.6,4,4,0,0,0-3.83,2.89,3.19,3.19,0,0,0,1.42,4,13.17,13.17,0,0,0,10.91,1.5c2-.53,2.24-2.75,1-4.7C768.69,338,766.78,337.58,767,335.7Z" transform="translate(-37.6 -67.31)"/><path class="cls-43" d="M669.81,482.38a1.08,1.08,0,0,0,.11-.47,46,46,0,0,0,.81-8.84c0-1.24-.23-2.56.7-3.63.17-.5.28-1.32.63-.05a20.3,20.3,0,0,1-.06,9.86c-1.58,7.4-5.78,13.28-11.15,18.41-.44.42-.9.6-1.34,0,3.35-3.64,6.88-7.17,8.81-11.87A12.68,12.68,0,0,1,669.81,482.38Z" transform="translate(-37.6 -67.31)"/><path class="cls-44" d="M651.88,333.59c-.81,1.81-.72,3.8-1.06,5.7-.12.68.13,1.47-.65,1.92.69-7.33.78-14.78,4.07-21.62.61-1.28,0-2.46-.07-3.7a7.23,7.23,0,0,1,1-4.12c.77.58.48,1.45.58,2.21v2.11a7.75,7.75,0,0,1,0,4.4l0,.1a3.25,3.25,0,0,0-1.34,2c0,.76-1,1.35-.38,2.22l-1,6.61C652.23,332,652.64,333.06,651.88,333.59Z" transform="translate(-37.6 -67.31)"/><path class="cls-45" d="M191.32,181.41c-.41,1-1.9.61-2.15,1.76-3.13-.73-6,1.35-9,1.05-3.93-.39-7.42,1.3-11.12,1.92-2.39.4-4.76.93-7.14,1.39,0-1.67,1.3-1.72,2.39-1.86a15.46,15.46,0,0,0,4.15-.84c3.87-1.19,7.92-1.37,11.87-2.07C184,182.12,187.65,181.85,191.32,181.41Z" transform="translate(-37.6 -67.31)"/><path class="cls-46" d="M501,130.56l-.08-.72c11.75,3.37,23.38,7.08,34.44,12.37a.42.42,0,0,1-.67.21c-6.63-2.65-13.29-5.24-20.09-7.42q-5-1.6-10.12-3A15.07,15.07,0,0,1,501,130.56Z" transform="translate(-37.6 -67.31)"/><path class="cls-20" d="M599.55,477.42c-4.79,7-9.78,13.78-17.36,18.09-.51-1.3.73-1.7,1.34-2.18,5.6-4.36,9.92-9.9,14.39-15.31C598.67,477.12,598.62,477.09,599.55,477.42Z" transform="translate(-37.6 -67.31)"/><path class="cls-47" d="M297.09,333.15c0,.15,0,.3,0,.45a5.66,5.66,0,0,1-3.5,1.13c-4.74.21-9.39,1.19-14.08,1.84-4.27.59-8.62.59-12.93.85,3.51-1.08,7.17-1.29,10.77-1.83,5.94-.88,11.9-1.67,17.85-2.47A12.09,12.09,0,0,1,297.09,333.15Z" transform="translate(-37.6 -67.31)"/><path class="cls-48" d="M712.36,270.4c4.26,1.48,7.4,4.51,10.32,7.73a44.43,44.43,0,0,1,4.17,4.47A14.4,14.4,0,0,1,729.2,289l-3.76-5c-.75-1.25-1.23-2.72-2.81-3.24l-.51-.51c-2.09-3.52-5.53-5.55-8.67-7.9C712.77,271.89,711.65,271.65,712.36,270.4Z" transform="translate(-37.6 -67.31)"/><path class="cls-49" d="M609.94,337.92c-.58-3.75-1.42-7.47-1.06-11.31.09-1-.11-2,.46-2.91,1.82,8.88,1.6,18.24,6.35,26.42a3.21,3.21,0,0,1,.17,1.05C612.88,347.2,611.69,342.44,609.94,337.92Z" transform="translate(-37.6 -67.31)"/><path class="cls-50" d="M734.13,333.6c1.54-3.12,1.72-6.62,2.75-9.87,1.48,7.62-2.42,13.8-5.41,20.22-1.25.46-1.53,0-1.13-1.16C731.5,339.69,733.42,336.89,734.13,333.6Z" transform="translate(-37.6 -67.31)"/><path class="cls-51" d="M712.36,270.4c.31,1.82,2.09,2,3.21,2.93,2.46,2.06,5.67,3.42,6.55,7A56.88,56.88,0,0,0,699.4,266c-3.11-1-6.4-1-9.47-2.1a8.79,8.79,0,0,1,6.73.47l3.19,1a8.36,8.36,0,0,1,3.27.71l.57.45c2,1,4.39,1,6,2.74Z" transform="translate(-37.6 -67.31)"/><path class="cls-52" d="M770.75,299.93c.87-2.24.82-4.4-1.29-5.82s-4.37-1.12-6.48.55a25.4,25.4,0,0,0-5.11,4.81c-2.8,3.88-2.57,4.81,1.39,8a.34.34,0,0,1,.14.37c0,.12-.1.18-.14.18-5-2.7-5-3.25-2.83-7.87,1.69-3.64,5.05-5.68,8.38-7.46,2.86-1.52,7.43,1.72,7.38,5C772.18,298.61,772,299.66,770.75,299.93Z" transform="translate(-37.6 -67.31)"/><path class="cls-53" d="M604,549.51c6.79-5.23,13.21-10.9,19.53-16.69a2.43,2.43,0,0,1-1,2.12,91.2,91.2,0,0,1-16.75,14.12C605.23,549.4,604.79,550.34,604,549.51Z" transform="translate(-37.6 -67.31)"/><path class="cls-54" d="M168.46,184.83a3.69,3.69,0,0,1-3.14,1.08,3.5,3.5,0,0,0-3.4,1.62l-1.08,0c-1.37.7-3.22-.52-4.37,1.07l-9.26,1.63c-.61,0-1.24.05-1.65-.54A137.67,137.67,0,0,1,168.46,184.83Z" transform="translate(-37.6 -67.31)"/><path class="cls-55" d="M626.86,294.85c.09-1.45.14-2.9.28-4.34.1-1.15.66-1.71,2-1.65,2.54.1,2.87.51,1.87,2.83a22,22,0,0,1-2.56,4.78C626.47,297.3,627.46,295.31,626.86,294.85Z" transform="translate(-37.6 -67.31)"/><path class="cls-56" d="M317.25,265c-.45,1.33-1.41,1.65-2.75,1.63-3.7,0-7.42-.32-11,.94-.87.3-2.27.66-2.57-1C306.25,265,311.74,264.84,317.25,265Z" transform="translate(-37.6 -67.31)"/><path class="cls-57" d="M632.28,396.84c-1.22,2.9-2.41,5.82-3.66,8.7a33.14,33.14,0,0,0-2.24,8c-1.37-1.4-.78-3.17-.51-4.63.86-4.69,3.9-8.44,5.89-12.65,0-.05.12-.07.19-.11Z" transform="translate(-37.6 -67.31)"/><path class="cls-58" d="M565.78,566.9v-.57A226.54,226.54,0,0,0,589.65,558a6.87,6.87,0,0,1,1.29-.27c-4.91,3.57-10.69,5.1-16.36,6.83C571.68,565.4,568.87,566.66,565.78,566.9Z" transform="translate(-37.6 -67.31)"/><path class="cls-59" d="M730.34,342.79c0,.71.37,1.15,1.13,1.16-2.13,3.11-4.26,6.24-6.4,9.34a2.22,2.22,0,0,1-1.78,1.06c-.38-.61-.87,0-1.3-.12A111.56,111.56,0,0,0,730.34,342.79Z" transform="translate(-37.6 -67.31)"/><path class="cls-60" d="M671.43,469.44c0,4.22.38,8.49-1.51,12.47,0-2.74,0-5.49,0-8.24a50.46,50.46,0,0,0-.53-9.83C670.63,465.49,670.58,467.63,671.43,469.44Z" transform="translate(-37.6 -67.31)"/><path class="cls-43" d="M592,312.43l.63-1.13c.86,3.57.3,7.18.27,10.77,0,.21-.51.41-.79.62l-.72-1.05a1.89,1.89,0,0,1-1.08-2.21l-.06-1.09c-.94-2.07.48-3.64,1.15-5.37A1.56,1.56,0,0,1,592,312.43Z" transform="translate(-37.6 -67.31)"/><path class="cls-61" d="M643.17,263.29c2-1.07,4-2.08,5.9-3.22,4.95-2.92,5.77-5.67,3.37-10.91-.41-.9-.79-1.81-1.19-2.71a.43.43,0,0,1,.14-.68c1.44,2.73,3.6,5.16,3.11,8.63a7.35,7.35,0,0,1-3.44,5.51c-2.49,1.59-4.92,3.3-7.85,4a.43.43,0,0,1-.17-.43C643.08,263.36,643.12,263.29,643.17,263.29Z" transform="translate(-37.6 -67.31)"/><path class="cls-38" d="M221.78,257.29c-1.33-1.85-.47-3.53,2.18-3.74,2.84-.23,5.77-.5,8.25,1.48-2.71.18-5.42.4-8.13.53C222.86,255.62,221.93,255.89,221.78,257.29Z" transform="translate(-37.6 -67.31)"/><path class="cls-62" d="M700.47,340.72c-.46-.06-.93-.09-1.15-.6,2.15-1.92,4-4.14,6.87-5.21,1-.35,1.59-1.58,2.37-2.41,0,.77,0,1.54.05,2.32Z" transform="translate(-37.6 -67.31)"/><path class="cls-63" d="M734.14,251.21a7,7,0,0,0,1.57,4,3.73,3.73,0,0,0,5.87.42c1.44-1.36,2.19-3.36,4.06-4.32a8.45,8.45,0,0,1-6.16,6.26C736.28,258.43,732.27,255,734.14,251.21Z" transform="translate(-37.6 -67.31)"/><path class="cls-64" d="M303.54,122.1l2.35.09c-7.66,1.55-15.29,3.27-23.06,4.26A136.86,136.86,0,0,1,303.54,122.1Z" transform="translate(-37.6 -67.31)"/><path class="cls-65" d="M655.72,314c-.83-.57-.44-1.46-.58-2.21,1.08-5.09,2.56-5.93,7.51-4.29.42.14.44.32.05.53a.93.93,0,0,0-1,1.05l-.55-.53a2.94,2.94,0,0,0-2.72,0C656.49,309.83,657,312.34,655.72,314Z" transform="translate(-37.6 -67.31)"/><path class="cls-66" d="M625.17,463.89c2.68-2.59,5.33-5.22,8.07-7.75.45-.42.66-1.68,1.78-.93-.09,1.89-1.65,2.64-2.86,3.65h0c-1.69,2-2.95,4.35-5.08,6C626.28,464.88,625.33,465.2,625.17,463.89Z" transform="translate(-37.6 -67.31)"/><path class="cls-67" d="M145.56,189.71c.59,0,1.25-.1,1.65.54-1.89,1.1-4.41.82-6,1.61-2.23,1.13-4.48.89-6.6,1.66A39.53,39.53,0,0,1,145.56,189.71Z" transform="translate(-37.6 -67.31)"/><path class="cls-68" d="M735.9,372.8c-2.18-.06-4.76-.22-5.74,2-1.11,2.48-.33,5.11,1.51,7.27a8.72,8.72,0,0,1,.81,1.36c-2.77-2-4.65-5.85-3.61-8C730.39,372.23,731.94,370.85,735.9,372.8Z" transform="translate(-37.6 -67.31)"/><path class="cls-69" d="M575.61,339.64c2.16-1.48,2.87-4.31,5.26-5.57-3.22,4.87-6.56,9.68-10.14,14.3.4-2.49,2.37-4.1,3.49-6.19C574.67,341.33,575.52,340.69,575.61,339.64Z" transform="translate(-37.6 -67.31)"/><path class="cls-70" d="M539.23,407.77l-.7,0c2.06-5.4,4.31-10.73,6.89-15.91.18-.37.59-.62.9-.93Z" transform="translate(-37.6 -67.31)"/><path class="cls-71" d="M225.18,276.35c-2.82.09-2.9-2.12-3.28-4s.52-3.86.52-5.81a14.24,14.24,0,0,1,1.07,5.11A9.49,9.49,0,0,0,225.18,276.35Z" transform="translate(-37.6 -67.31)"/><path class="cls-72" d="M612,279.61l.12.52a58.24,58.24,0,0,1-9.68,5.67l-.29-.28a2.2,2.2,0,0,1,1.2-2.26c2.35-1.33,4.52-3,7.09-4A1.73,1.73,0,0,1,612,279.61Z" transform="translate(-37.6 -67.31)"/><path class="cls-43" d="M672,378.34c-1.78-1.21-1.21-2.8-.48-4.21a21,21,0,0,1,3.32-5.09c.12.22.41.53.34.65A39.21,39.21,0,0,0,672,378.34Z" transform="translate(-37.6 -67.31)"/><path class="cls-73" d="M645,229.08c3,.22,4.19,1.75,4.94,6.06A14.54,14.54,0,0,1,645,229.08Z" transform="translate(-37.6 -67.31)"/><path class="cls-74" d="M632.16,458.86l2.86-3.65c1.71-1,1.7-2.55,1.62-4.22-.07-1.52,0-3.05,0-4.57.89.77.4,1.81.54,2.72-.26,2.79.91,5.85-1.64,8.18C634.42,457.85,633.75,459.36,632.16,458.86Z" transform="translate(-37.6 -67.31)"/><path class="cls-75" d="M655.67,451.33c-1.49.11-3-.27-4.49.33-1,.42-1.72-.18-2.25-.94s-.85-1.6-1.95-1.58l-.54-.58C649.64,449.06,652.88,449.45,655.67,451.33Z" transform="translate(-37.6 -67.31)"/><path class="cls-68" d="M735.61,385.47a4.81,4.81,0,0,1,1.07,0c5.91,1.1,6.78.4,6.77-5.52.17-.27.33-.25.5,0,.91,2.14,1.16,4.21-.94,5.81C740.74,387.48,738.3,387.35,735.61,385.47Z" transform="translate(-37.6 -67.31)"/><path class="cls-76" d="M694.32,406.66a26.57,26.57,0,0,1,6.36,5.71c1,1.28,2.71,2,4.09,3a.9.9,0,0,1-1.19.06A24.57,24.57,0,0,1,694.32,406.66Z" transform="translate(-37.6 -67.31)"/><path class="cls-77" d="M662.7,308a2.38,2.38,0,0,0-.05-.53c2.6.48,2.64,2.91,3.37,4.68s1.66,3.48,3.83,3.92c-1.74,1.31-2.75.36-3.67-1.13C664.81,312.73,664.53,310,662.7,308Z" transform="translate(-37.6 -67.31)"/><path class="cls-78" d="M696.66,264.36c-2.27.21-4.44-.93-6.73-.47l-2.62.05c-1.26-.34-2.66.2-3.86-.6,1.6-.46,3.32.4,4.88-.48.69-.64,1.44-.41,2.19-.16,2.3,1,4.82-.44,7.17,1C697.76,264.14,696.74,263.78,696.66,264.36Z" transform="translate(-37.6 -67.31)"/><path class="cls-79" d="M638.88,515.75c1-2.8,3.38-4.58,5.26-6.7a24.2,24.2,0,0,1,3.38-2.69.78.78,0,0,1,1.1,0Z" transform="translate(-37.6 -67.31)"/><path class="cls-48" d="M703.58,415.39l1.19-.06a2.56,2.56,0,0,1,.27.05c5.56,1.53,6.89.69,7.94-5,1.07,3.2-.4,5.9-3.53,6.35A7.45,7.45,0,0,1,703.58,415.39Z" transform="translate(-37.6 -67.31)"/><path class="cls-80" d="M643.14,237.7c-2.12-2.23-4.62-4.19-4.55-7.77,0-1.49-1.15-2.55-2-3.71a.43.43,0,0,1,.07-.73c1.46,1.16,2.73,2.6,2.81,4.45.13,2.9,1.84,4.76,3.61,6.68A.67.67,0,0,1,643.14,237.7Z" transform="translate(-37.6 -67.31)"/><path class="cls-41" d="M534.67,142.42l.67-.21,11.48,5.29c.63.29,1.39.45,1.63,1.27A124.4,124.4,0,0,1,534.67,142.42Z" transform="translate(-37.6 -67.31)"/><path class="cls-81" d="M637.73,266c-2.46,2.89-5.3,5.12-9.24,5.51-.3-1.57,1.3-.44,1.61-1.13h0c2.37-.77,3.41-3.19,5.46-4.36h0A2,2,0,0,1,637.73,266Z" transform="translate(-37.6 -67.31)"/><path class="cls-66" d="M641.08,436.59c-.28-3.17-.53-6.33.47-9.43.43-1.34,1.09-2.32,2.73-1.9l1.08.7c-3,.65-3.61,1.57-3.84,5.32C641.41,433.05,642,434.88,641.08,436.59Z" transform="translate(-37.6 -67.31)"/><path class="cls-82" d="M726.56,268.19l1.16-.09h0c.83.67,1.49,1.51,2.32,2.18q2.34,2.54,4.69,5l.6,1.58Z" transform="translate(-37.6 -67.31)"/><path class="cls-83" d="M121.05,203.35c0-1.58,1.74-2,2.16-3.33a9.36,9.36,0,0,1,4.91-3.16C125.66,198.91,124.1,201.94,121.05,203.35Z" transform="translate(-37.6 -67.31)"/><path class="cls-84" d="M638.14,363.68a.74.74,0,0,0-1,.56c-1.87-1.3-2.86-3.38-4.42-4.94-.24-.62.08-.95.61-1.17C634.88,360,636.87,361.55,638.14,363.68Z" transform="translate(-37.6 -67.31)"/><path class="cls-85" d="M651.39,245.77c0,.22-.09.45-.14.68-1.28-1.65-2.09-3.67-4.41-4.42a2.79,2.79,0,0,1-1.88-2.42,1.54,1.54,0,0,1,1.76.29,9.16,9.16,0,0,0,1.94,1.56A11,11,0,0,1,651.39,245.77Z" transform="translate(-37.6 -67.31)"/><path class="cls-86" d="M744,379.93h-.5c-.7-1.49-1.5-2.81-3.23-3.37-1.5-.47-1.88-2.07-2.77-3.16C740.54,374.66,742.94,376.6,744,379.93Z" transform="translate(-37.6 -67.31)"/><path class="cls-27" d="M395.19,115.58l0-.59a96.8,96.8,0,0,1,15.32.55,73.06,73.06,0,0,1-14.26.07Z" transform="translate(-37.6 -67.31)"/><path class="cls-87" d="M625.17,463.89c.57.91,1.4.35,2.13.37a.85.85,0,0,1,.08,1.24c-2.34,1.94-3.14,1.37-3.85-2.7C624.33,462.78,624.52,463.69,625.17,463.89Z" transform="translate(-37.6 -67.31)"/><path class="cls-88" d="M266,253.39c2.28-1.19,4.53-2.76,7.07-.54A24.38,24.38,0,0,1,266,253.39Z" transform="translate(-37.6 -67.31)"/><path class="cls-21" d="M396.27,115.61l14.26-.07a.55.55,0,0,1,.47,0v.56l-12.72,0C397.58,116.1,396.82,116.25,396.27,115.61Z" transform="translate(-37.6 -67.31)"/><path class="cls-89" d="M764.7,305.25c1.37-1.88,3.6-2.55,5.4-3.81-.16,1.34-1.18,2-2.13,2.72-.76.48-1.37,1.16-2.18,1.57-.61.35-.73,1.29-1.6,1.31C763.73,306.27,764.46,305.83,764.7,305.25Z" transform="translate(-37.6 -67.31)"/><path class="cls-90" d="M629.52,354.32l-1-3.37a25.51,25.51,0,0,1,3.23,5c.39.73.64,1.41-.51,1.67A3.9,3.9,0,0,1,629.52,354.32Z" transform="translate(-37.6 -67.31)"/><path class="cls-91" d="M637.73,266l-2.18,0c2.39-1.35,5.06-1.9,7.62-2.76,0,.21,0,.43,0,.65A20.79,20.79,0,0,1,637.73,266Z" transform="translate(-37.6 -67.31)"/><path class="cls-92" d="M705.86,403.88c-.73-1.09-1.87-1.92-2.12-3.32a36.07,36.07,0,0,1,5.43,3.85C707.89,405.31,706.88,404.54,705.86,403.88Z" transform="translate(-37.6 -67.31)"/><path class="cls-93" d="M646.39,240.46l-1.43-.85c-.6-.64-1.21-1.27-1.82-1.91,0-.36,0-.72,0-1.08,1.5,1.44,3.67,2,4.91,3.8A1.32,1.32,0,0,1,646.39,240.46Z" transform="translate(-37.6 -67.31)"/><path class="cls-63" d="M745.69,246.37c-2-1.58-4.09-2.68-6.72-1.66C741.45,242.77,744,243.4,745.69,246.37Z" transform="translate(-37.6 -67.31)"/><path class="cls-94" d="M607.73,469.3c-.2-1.62,1.42-2.81,1-4.47a3.73,3.73,0,0,1,1.73-1.9C609.85,465.17,609.4,467.5,607.73,469.3Z" transform="translate(-37.6 -67.31)"/><path class="cls-72" d="M598.05,289l-.7-.14c.95-2.46,2.54-3.53,4.88-3.28l.2.25Z" transform="translate(-37.6 -67.31)"/><path class="cls-48" d="M705.86,403.88c1.1.21,2.13.8,3.31.53.91.75,2,1.42,2.06,2.77C710,405.23,707.16,405.77,705.86,403.88Z" transform="translate(-37.6 -67.31)"/><path class="cls-91" d="M630.1,270.4l-1.61,1.13c-1.39.69-1.36,1.92-1.24,3.19l-1.49-1.66C626.83,271.56,627.89,270,630.1,270.4Z" transform="translate(-37.6 -67.31)"/><path class="cls-95" d="M636.71,225.49l-.07.73c-1.42-1.85-3.59-3.1-4.35-5.47A21.17,21.17,0,0,1,636.71,225.49Z" transform="translate(-37.6 -67.31)"/><path class="cls-96" d="M557.08,153.18a11.87,11.87,0,0,1-6-3.23A15.35,15.35,0,0,1,557.08,153.18Z" transform="translate(-37.6 -67.31)"/><path class="cls-97" d="M631.22,357.61c.65-.41.45-1.08.51-1.67.89.47,1.19,1.38,1.63,2.19l-.61,1.16A3.88,3.88,0,0,1,631.22,357.61Z" transform="translate(-37.6 -67.31)"/><path class="cls-63" d="M746.14,250.13c-.73-1.19-.5-2.5-.46-3.78C746.53,247.52,747.37,248.7,746.14,250.13Z" transform="translate(-37.6 -67.31)"/><path class="cls-98" d="M759.26,308v-.55l3.87.06C761.9,308.18,760.69,308.93,759.26,308Z" transform="translate(-37.6 -67.31)"/><path class="cls-51" d="M722.63,280.81c2,.12,2.49,1.62,2.81,3.24Z" transform="translate(-37.6 -67.31)"/><path class="cls-99" d="M660.56,284.51c-.42-1.29-2.11-1.06-2.64-2.22C659,282.75,660.93,282.28,660.56,284.51Z" transform="translate(-37.6 -67.31)"/><path class="cls-100" d="M626.86,294.85c.56.51.37,1.73,1.56,1.62-.19.55-.58,1.18-1.12.86C626.36,296.76,626.87,295.71,626.86,294.85Z" transform="translate(-37.6 -67.31)"/><path class="cls-59" d="M719.39,356.82a3.11,3.11,0,0,1-2.68,2.38A9.25,9.25,0,0,1,719.39,356.82Z" transform="translate(-37.6 -67.31)"/><path class="cls-47" d="M266.57,337.42c-1.15,1-2.54.36-3.8.55C263.92,337,265.29,337.56,266.57,337.42Z" transform="translate(-37.6 -67.31)"/><path class="cls-36" d="M648.62,506.37h-1.1c.86-.67,1.56-1.64,2.84-1.53A3.88,3.88,0,0,1,648.62,506.37Z" transform="translate(-37.6 -67.31)"/><path class="cls-101" d="M646.39,240.46l1.65,0a1.12,1.12,0,0,1,.62,1A1.88,1.88,0,0,1,646.39,240.46Z" transform="translate(-37.6 -67.31)"/><path class="cls-30" d="M730,270.29a3.49,3.49,0,0,1-2.32-2.18A4.08,4.08,0,0,1,730,270.29Z" transform="translate(-37.6 -67.31)"/><path class="cls-102" d="M765.79,305.73a2.65,2.65,0,0,1,2.18-1.57C767.45,305,766.89,305.73,765.79,305.73Z" transform="translate(-37.6 -67.31)"/><path class="cls-98" d="M764.7,305.25l-.51,1.79-1.08.48C763.46,306.63,763.72,305.69,764.7,305.25Z" transform="translate(-37.6 -67.31)"/><path class="cls-83" d="M133.53,193.92c-.57,1.11-1.6,1.24-2.68,1.25A4.8,4.8,0,0,1,133.53,193.92Z" transform="translate(-37.6 -67.31)"/><path class="cls-48" d="M713,410.41a2.58,2.58,0,0,1-1.16-2.15C712.79,408.68,712.93,409.53,713,410.41Z" transform="translate(-37.6 -67.31)"/><path class="cls-1" d="M269.62,485.92l16.58,9.56c6.13,3.54,12.23,7.11,18.39,10.59,1.65.93,1.85,1.77.65,3.32-9.19,12-21.29,18-36.33,17A41.12,41.12,0,0,1,231,491.15c-3-20.87,10.75-41.37,32.34-46.12,15.56-3.42,33.63,3.8,42.43,17.08,1.38,2.1-.14,2.45-1.27,3.12q-15.67,9.3-31.39,18.53C272.05,484.39,271,485.07,269.62,485.92Z" transform="translate(-37.6 -67.31)"/><path class="cls-1" d="M343.18,446.81c5.57,15.82,10.88,30.94,16.41,46.66,4.37-15.72,8.57-30.87,13-46.66,1.45,4,2.73,7.4,3.93,10.84q11.07,31.56,22.15,63.12c.65,1.86.76,2.8-1.72,2.59s-5.09,0-7.63-.06c-10.16-.27-20.32.69-30.47.39-11.43-.35-22.86-.41-34.29-.33-2.42,0-2.4-.84-1.87-2.72,4-14.38,8-28.79,12-43.18l7.68-27.75C342.53,448.93,342.77,448.16,343.18,446.81Z" transform="translate(-37.6 -67.31)"/><path class="cls-1" d="M216.29,520H134c14.37-24.64,28.54-49,43-73.73Z" transform="translate(-37.6 -67.31)"/><path class="cls-103" d="M216.5,601.75c-6.23-.57-13.73.38-21.24.66s-14.82.58-22.2,1.1c-8.26.59-16.5.42-24.74.34a68.81,68.81,0,0,1-24.64-4.37c-4.82-1.89-12.11-8.91-11.46-14.89a7.21,7.21,0,0,1,3.2-5.63c5.69-3.88,12.23-5.17,18.88-6.1,8.61-1.22,17.27-1.37,25.94-1.78,7.77-.36,15.54-.56,23.27-.23,4.2.18,8.48,0,12.69.82,3,.59,6.06-.29,9.13.06,10.76,1.22,21.58.19,32.35.67,3.33.15,6.67.46,10,.46,8.86,0,17.67-1.09,26.5-1.49,6.69-.3,13.28-1.45,20-1.31,25,.54,50.09.63,75.14.71a270.4,270.4,0,0,1,32.2,1.73,206.94,206.94,0,0,1,29.25,5.28c3.53,1,5,3.72,4.08,8.48-.73,3.9-1.48,7.79-2.19,11.69a4.34,4.34,0,0,1-4.35,3.77c-6.62,0-13.22.37-19.83.49-8.06.15-16.12.55-24.18.75-10.48.26-21,.51-31.46,1.12-7.65.45-15.39-.37-23,1.29-1.33.29-2.85-.38-4.28-.33-12,.44-24,1.15-36.05,1-1.63,0-2.24,1-2.9,2q-7.34,11.89-13.87,24.25c-7.86,14.84-15.37,29.88-25.09,43.65-6.71,9.51-14.13,18.34-24.11,24.69-5,3.15-9,2.79-12.22-2-3.5-5.17-6-10.67-6-17.31a49.31,49.31,0,0,1,4.43-21.6,120.72,120.72,0,0,1,14-22.13c6.07-7.87,12.5-15.46,18.17-23.63,1.49-2.14,2.67-4.48,4.08-6.68,1-1.55.7-2.29-1.11-2.81a74.12,74.12,0,0,0-16.78-2.78C224.72,601.61,221.26,601.75,216.5,601.75Z" transform="translate(-37.6 -67.31)"/><path class="cls-103" d="M74.19,538.29a255.64,255.64,0,0,1,3.15-41.9,352.92,352.92,0,0,1,9.71-45.74c3.69-12.94,8.24-25.58,14.71-37.43,1.47-2.69,2.88-6.15,7.15-5.5.36,0,.8-.09,1.08.08,4.09,2.44,8.18,4.89,12.22,7.4.94.57,1,1.61,1,2.66.32,5.28-.6,10.43-1.41,15.61-1.26,8.1-2.35,16.22-3.52,24.33q-1.72,11.9-3.45,23.79c-1,7.22-1.78,14.49-3.15,21.65-2.77,14.44-1.63,29-2.26,43.57-.42,9.7-.39,19.39-.32,29.08.06,7-8.45,14.18-14,13.87a14.22,14.22,0,0,0-3,0c-4.52.74-7.19-1.73-9.18-5.27a63.76,63.76,0,0,1-7.15-21.2A119.58,119.58,0,0,1,74.19,538.29Z" transform="translate(-37.6 -67.31)"/><path class="cls-1" d="M169,225.75c.29,6.83-2,12.94-5.47,18.66-2.34,3.91-6.34,5.48-9.71,4.2a10.3,10.3,0,0,1-6.58-11.5,38.83,38.83,0,0,1,4.55-13.22c1-1.8,1.91-3.66,2.93-5.45,1.82-3.18,5.26-4.91,8.25-4.22,3.5.81,5.82,3.77,6,7.72C169.09,223.21,169,224.48,169,225.75Z" transform="translate(-37.6 -67.31)"/><path class="cls-45" d="M156.47,188.62c.95-2.39,2.88-.86,4.37-1.07C159.52,188.46,157.85,188,156.47,188.62Z" transform="translate(-37.6 -67.31)"/><path class="cls-1" d="M532.11,339.63c1-4.48,3.63-8.13,5.9-12,1.83-3.07,3.32-6.42,6.56-8.4a3.16,3.16,0,0,1,.81-.05c3.4.63,6.93.83,9.86,3s3.17,5.06,2.74,8a32.71,32.71,0,0,1-3.8,11.22,82.4,82.4,0,0,1-5.51,7,4.86,4.86,0,0,1-2.3,1.82c-3,1.17-6,2.61-9,3.81a1.5,1.5,0,0,1-1.81-.53c-1.71-2.36-4-4.29-4.22-7.59C531.19,343.74,532.16,341.77,532.11,339.63Z" transform="translate(-37.6 -67.31)"/><path class="cls-104" d="M535.78,353.23a1.67,1.67,0,0,0,1.66.41c3.27-.37,6-2.11,8.72-3.69,3.12-2.23,5.2-5.41,7.56-8.33a.43.43,0,0,1,.09.72c-3.68,4.77-6.09,10.79-12.71,12.64-3.28.92-8.07-.65-9.83-3.37-2-3.12-1.88-8.14.31-10.87.85,1.37.14,2.82.06,4.2C531.46,348.56,533.24,351.05,535.78,353.23Z" transform="translate(-37.6 -67.31)"/><path class="cls-105" d="M553.81,342.34l-.09-.72c1.63-3.52,3.43-7,3.67-11,.17-2.92,0-5.78-2.25-8-2.89-2.53-6.48-2.74-10-3.06a2,2,0,0,0-.42-.05c-1.08,0-1.51,1.86-2.88,1a8.08,8.08,0,0,1,8.06-2.51c5.73,1.19,10.4,5.72,8.46,12.95C557.27,334.9,556.72,339.11,553.81,342.34Z" transform="translate(-37.6 -67.31)"/><path class="cls-18" d="M568,502.55a46.93,46.93,0,0,0,19-9.23,96.45,96.45,0,0,0,10.93-10.84,9.41,9.41,0,0,1,2.25-2.29c-1,3.07-3.56,5-5.48,7.28-6.12,7.36-13.68,12.6-23.17,14.76A17.27,17.27,0,0,1,568,502.55Z" transform="translate(-37.6 -67.31)"/><path class="cls-57" d="M535.78,353.23c-2.92-1.06-4.17-3.37-4.37-6.25a62,62,0,0,1,.17-6.24c.17-.37.35-.74.53-1.11a2.67,2.67,0,0,1,.33,2.55c-1,3.88-.3,7.19,2.91,9.81C535.68,352.25,536.41,352.56,535.78,353.23Z" transform="translate(-37.6 -67.31)"/><path class="cls-106" d="M541.8,320.52c1.11.1,1.69-1.31,2.88-1L538,327.65A14.83,14.83,0,0,1,541.8,320.52Z" transform="translate(-37.6 -67.31)"/><path class="cls-74" d="M627.38,465.5c0-.41-.06-.83-.08-1.24a28.47,28.47,0,0,1,4.88-5.4C630.62,461.1,630.15,464.13,627.38,465.5Z" transform="translate(-37.6 -67.31)"/><path class="cls-18" d="M557.05,501.48c3.63.43,7.2,1.45,10.9,1.07C564.16,503.78,560.57,503.05,557.05,501.48Z" transform="translate(-37.6 -67.31)"/><path class="cls-70" d="M528.17,453q0,3,0,6A7.31,7.31,0,0,1,528.17,453Z" transform="translate(-37.6 -67.31)"/><path class="cls-94" d="M605.57,472.58a5.69,5.69,0,0,1,2.16-3.28A4.14,4.14,0,0,1,605.57,472.58Z" transform="translate(-37.6 -67.31)"/><path class="cls-70" d="M528.7,447.48c-.18,1.28.51,2.68-.53,3.84C528.36,450.05,527.7,448.65,528.7,447.48Z" transform="translate(-37.6 -67.31)"/><path class="cls-70" d="M537.42,488.39a2.53,2.53,0,0,1,1.65,2.18A2.68,2.68,0,0,1,537.42,488.39Z" transform="translate(-37.6 -67.31)"/><path class="cls-70" d="M540.7,492.2a2.51,2.51,0,0,1,2.18,1.65A2.68,2.68,0,0,1,540.7,492.2Z" transform="translate(-37.6 -67.31)"/><path class="cls-70" d="M529.8,437.69c-.12.92.37,2-.54,2.73C529.38,439.5,528.91,438.46,529.8,437.69Z" transform="translate(-37.6 -67.31)"/><path class="cls-70" d="M529.25,442c-.12.93.37,2-.53,2.74C528.83,443.86,528.38,442.82,529.25,442Z" transform="translate(-37.6 -67.31)"/><path class="cls-107" d="M465.48,172.87c-3.25.25-6.14-1.44-9.26-1.75-7.36-.72-14.6-2.25-22-2.73-8.67-.55-17.35-.81-26-1.14-8.31-.31-16.63-.59-24.92-1.12-4.77-.31-9.6.16-14.33-.88-2.17-.47-4.29.51-6.47.49-5.5,0-11-.31-16.49.09-7.88.57-15.77.08-23.63.53-7.5.42-15,.68-22.48,1a3.43,3.43,0,0,1-2.79,0,6.87,6.87,0,0,1,4.38-1c7.41.47,14.69-2.6,22.12-.72a.9.9,0,0,0,.54,0c3.41-1.52,6.92-.62,10.41-.49,9.61.35,19.24-.22,28.8-.75,7.74-.43,15.37.28,23,.38,9.82.14,19.66.93,29.49,1.56,8.56.55,17.12,1,25.68,1.6a155.11,155.11,0,0,1,21.51,3.44C464,171.59,465.1,171.67,465.48,172.87Z" transform="translate(-37.6 -67.31)"/><path class="cls-108" d="M297.08,167.37l2.79,0c-1.22,1-2.83.86-4.13.9-4.68.18-9.32.86-14,1.13-6.73.41-13.48.32-20.13,1.72a16.77,16.77,0,0,1-3.25.06c.24-.52.63-1.06,1.17-1,3.48.35,6.68-1.2,10.15-1.29,7.05-.18,14.08-1,21.13-1.46C292.91,167.3,295,167.38,297.08,167.37Z" transform="translate(-37.6 -67.31)"/><path class="cls-108" d="M249.76,172.21c0-.52,0-1,0-1.56,2.66,1.1,5.46.25,8.18.56A19,19,0,0,1,249.76,172.21Z" transform="translate(-37.6 -67.31)"/><path class="cls-91" d="M635.56,266c-1.63,1.7-2.72,4.06-5.46,4.36C632.07,269.14,633.14,266.74,635.56,266Z" transform="translate(-37.6 -67.31)"/><path class="cls-108" d="M249.71,169c.16-2.91-.42-5.86.49-8.73C250,163.17,250.76,166.13,249.71,169Z" transform="translate(-37.6 -67.31)"/><path class="cls-108" d="M250.25,158.09c.17-2.91-.42-5.86.49-8.73C250.51,152.27,251.31,155.23,250.25,158.09Z" transform="translate(-37.6 -67.31)"/><path class="cls-108" d="M250.8,146.64c.2-2.35-.48-4.77.5-7.07C251,141.92,251.89,144.35,250.8,146.64Z" transform="translate(-37.6 -67.31)"/><path class="cls-1" d="M648.08,401.74a19.62,19.62,0,0,0,5.36,1.12c3.81.94,4.68,2.38,3.55,6.13-.26.84-.39,1.72-.7,2.54a7.22,7.22,0,0,1-7.43,2.67c-1.5-.27-3-.34-4.56-.5a1.29,1.29,0,0,0-.49-.23c-5.74-.69-6.51-1.81-5.06-7.38,0-.35,0-.7.08-1C641.44,400.59,643,400,648.08,401.74Z" transform="translate(-37.6 -67.31)"/><path class="cls-76" d="M665,364.67c-1.75,2.05-2.58,4.73-4.64,6.61-1.42,1.28-2.12.79-2.34-.72a11.56,11.56,0,0,1,0-4.31c1.5-6,1.71-12.09,2.05-18.19a80.63,80.63,0,0,1,2.6-15.09l.38.32c1.27,3.51-.05,7-.26,10.45-.37,5.94-1.14,11.85-1.52,17.79a24.78,24.78,0,0,0-.82,4.52c-.08,1,.38,1.12,1.09.47.13-.19.28-.37.41-.56.51-.79,1.07-1.56,1.65-2.31.58-.57.88-1.67,2.07-1.11C666,363.42,665.36,364,665,364.67Z" transform="translate(-37.6 -67.31)"/><path class="cls-109" d="M747.34,303.45c2.56,9.71,1.88,19.36-.85,28.9-1.25,4.39-2.49,8.84-5.23,12.64,1.44-5.08,3-10.15,4.29-15.27a52.54,52.54,0,0,0,1.24-21.18C746.52,306.75,747.16,305.14,747.34,303.45Z" transform="translate(-37.6 -67.31)"/><path class="cls-19" d="M675.31,325.41c2.13-2.53,5-4,7.9-5.37,2.06-1,3.76-.25,4.74,2a11.24,11.24,0,0,0,5.95,5.53c3.34,1.57,3.68,2.56,1,5.15-.51.5-1.11.9-1.67,1.35a1.4,1.4,0,0,1-.37-1.09c1.57-3.46,1.61-3.14-1.48-4.91a16.1,16.1,0,0,1-4.78-4.7c-1.93-2.65-2.87-2.75-5.37-.54-1.47,1.3-2.77,2.87-4.93,3.05A1.39,1.39,0,0,1,675.31,325.41Z" transform="translate(-37.6 -67.31)"/><path class="cls-49" d="M665,364.67c.17-.75.35-1.5.52-2.25-.37-1.13.4-1.85,1-2.63,1.7-2.3,3.58-4.47,5.22-6.82,2.14-1.85,3.63-4.43,6.36-5.61a1.28,1.28,0,0,1,1.08.4c-2.4,3-5.16,5.69-7.8,8.49-2.06,2.18-3.46,5.09-5.41,7.5A11.82,11.82,0,0,1,665,364.67Z" transform="translate(-37.6 -67.31)"/><path class="cls-110" d="M679.13,347.76H678c-.27-1.25.67-1.81,1.44-2.39a77.58,77.58,0,0,0,12-11.43c.47-.55.95-1.12,1.81-1,0,.38,0,.76,0,1.15A98.59,98.59,0,0,1,679.13,347.76Z" transform="translate(-37.6 -67.31)"/><path class="cls-79" d="M675.31,325.41l1.24.09c0,1.35-1.16,1.71-2.09,2.21a26.2,26.2,0,0,1-7.66,2.51,12.13,12.13,0,0,1-3.23.31,4.05,4.05,0,0,1-.35-.21c.17-1.61.69-2.19,2.62-1.88C669.38,329,672.23,326.69,675.31,325.41Z" transform="translate(-37.6 -67.31)"/><path class="cls-111" d="M638.75,406.09c-1,4.61,1.31,6.81,5.55,7.61-1.68-.12-3.5.54-5-.48C636.56,411.37,636.48,409.59,638.75,406.09Z" transform="translate(-37.6 -67.31)"/><path class="cls-68" d="M656.29,411.53c.09-.79.16-1.59.29-2.37.62-3.81.23-4.61-3.14-6.3,4.84.16,5.82,1.62,4,6C657,409.72,657,410.77,656.29,411.53Z" transform="translate(-37.6 -67.31)"/><path class="cls-112" d="M648.08,401.74c-4-1.4-6.9.15-9.25,3.3C640.14,400,643.79,398.74,648.08,401.74Z" transform="translate(-37.6 -67.31)"/><path class="cls-113" d="M709.72,269.24a17.63,17.63,0,0,1-6-2.74C705.84,267.11,708.66,266.25,709.72,269.24Z" transform="translate(-37.6 -67.31)"/><path class="cls-50" d="M737,322.69l0-12A29.43,29.43,0,0,1,737,322.69Z" transform="translate(-37.6 -67.31)"/><path class="cls-114" d="M738.07,322.59v-11h.41v11l-.19.39Z" transform="translate(-37.6 -67.31)"/><path class="cls-115" d="M703.12,266.05c-1.28.64-2.23-.24-3.27-.71C701.06,265,702.42,264,703.12,266.05Z" transform="translate(-37.6 -67.31)"/><path class="cls-116" d="M682.38,262.17h-6v-.47h6c.2.1.27.2.21.31S682.45,262.17,682.38,262.17Z" transform="translate(-37.6 -67.31)"/><path class="cls-117" d="M669.87,373.39c0,2,0,4-.08,5.94A7.44,7.44,0,0,1,669.87,373.39Z" transform="translate(-37.6 -67.31)"/><path class="cls-118" d="M682.38,262.17a1.85,1.85,0,0,0,0-.47c1.84.12,3.74-.48,5.53.4-.15.34-.36.38-.61.1Z" transform="translate(-37.6 -67.31)"/><path class="cls-119" d="M642.78,369.49c1.71-.89,3.53-.27,5.29-.39.15.1.2.19.13.26a.22.22,0,0,1-.17.11Z" transform="translate(-37.6 -67.31)"/><path class="cls-37" d="M680.8,358.66c-.75.91-1.1,2.15-2.22,2.77A2.55,2.55,0,0,1,680.8,358.66Z" transform="translate(-37.6 -67.31)"/><path class="cls-120" d="M654.08,322.77c0-1.16.09-2.23,1.65-2.18a3,3,0,0,1-1.17,2.12C654.42,323,654.26,323,654.08,322.77Z" transform="translate(-37.6 -67.31)"/><path class="cls-23" d="M651.88,333.59c.09-.86-.33-2,1.08-2.18,0,.76.28,1.6-.5,2.19-.2.31-.39.3-.58,0Z" transform="translate(-37.6 -67.31)"/><path class="cls-121" d="M655.7,320.49c0-1.46,0-2.93,0-4.4A4.16,4.16,0,0,1,655.7,320.49Z" transform="translate(-37.6 -67.31)"/><path class="cls-122" d="M694.4,315.62a5.12,5.12,0,0,1,2.18,2.19A2.31,2.31,0,0,1,694.4,315.62Z" transform="translate(-37.6 -67.31)"/><path class="cls-123" d="M684.07,309.61a3.12,3.12,0,0,1,3.79,0Z" transform="translate(-37.6 -67.31)"/><path class="cls-124" d="M690.47,311.27c1.54-.51,1.53.67,1.75,1.6Z" transform="translate(-37.6 -67.31)"/><path class="cls-125" d="M687.29,262.2l.61-.1c.85.29,1.9-.26,2.62.6l-2.19.16C687.88,262.81,687.4,262.8,687.29,262.2Z" transform="translate(-37.6 -67.31)"/><path class="cls-126" d="M650.76,354.78a2.39,2.39,0,0,1,0-3.2C650.8,352.65,650.78,353.72,650.76,354.78Z" transform="translate(-37.6 -67.31)"/><path class="cls-127" d="M697.65,372.86a2.8,2.8,0,0,1,2.73-1.07A3.42,3.42,0,0,1,697.65,372.86Z" transform="translate(-37.6 -67.31)"/><path class="cls-127" d="M694.92,374a2.85,2.85,0,0,1,2.77-1.2A3.92,3.92,0,0,1,694.92,374Z" transform="translate(-37.6 -67.31)"/><path class="cls-128" d="M690.55,375.58a3,3,0,0,1,2.73-1.1A3.19,3.19,0,0,1,690.55,375.58Z" transform="translate(-37.6 -67.31)"/><path class="cls-50" d="M738.07,322.59a.85.85,0,0,0,.42,0,2.19,2.19,0,0,1-.74,1.9C737.12,323.71,737.9,323.2,738.07,322.59Z" transform="translate(-37.6 -67.31)"/><path class="cls-126" d="M650.22,361.32c-.54-.73-1.11-1.47.14-2.08C650.31,359.93,650.27,360.63,650.22,361.32Z" transform="translate(-37.6 -67.31)"/><path class="cls-121" d="M648,369.47c0-.12,0-.25,0-.37.39-.55.4-1.34,1.09-1.7C649.19,368.32,649.17,369.2,648,369.47Z" transform="translate(-37.6 -67.31)"/><path class="cls-129" d="M651.86,341.71a1.81,1.81,0,0,1,0-2.65Z" transform="translate(-37.6 -67.31)"/><path class="cls-130" d="M651.88,333.59h.58c0,.88,0,1.76-.07,2.65C651.52,335.5,652,334.48,651.88,333.59Z" transform="translate(-37.6 -67.31)"/><path class="cls-131" d="M651.32,347.72a1.77,1.77,0,0,1,0-2.6C651.31,346,651.31,346.85,651.32,347.72Z" transform="translate(-37.6 -67.31)"/><path class="cls-132" d="M658.43,308.53a1.91,1.91,0,0,1,2.72,0Z" transform="translate(-37.6 -67.31)"/><path class="cls-76" d="M662.69,333c.2-.88-.2-1.87.53-2.65l.17,0c.7,1.08,1,2.09-.51,2.76Z" transform="translate(-37.6 -67.31)"/><path class="cls-133" d="M666.08,317.8c.89.18,2-.45,2.7.54C667.87,318.18,666.82,318.77,666.08,317.8Z" transform="translate(-37.6 -67.31)"/><path class="cls-134" d="M718.42,359.75a2.78,2.78,0,0,1,1.63-1.64A1.53,1.53,0,0,1,718.42,359.75Z" transform="translate(-37.6 -67.31)"/><path class="cls-135" d="M654.08,322.77l.48-.06c-.19.7-.37,1.39-.55,2.09C653.05,324.09,653.75,323.43,654.08,322.77Z" transform="translate(-37.6 -67.31)"/><path class="cls-136" d="M706.38,322.76c-.15.88.44,1.91-.52,2.63C706,324.51,705.41,323.48,706.38,322.76Z" transform="translate(-37.6 -67.31)"/><path class="cls-131" d="M674.78,381.56c.9.17,2-.43,2.7.54C676.57,381.94,675.52,382.54,674.78,381.56Z" transform="translate(-37.6 -67.31)"/><path class="cls-137" d="M252.93,207.17c-.76-.74-.48-1.69-.48-2.56,0-6.59,0-13.18,0-19.76,6.25.05,12.34-1.28,18.5-2,5.55-.67,11.2-.43,16.8-.78,6.47-.41,12.93-1,19.4-1.52,4.24-.32,8.52.27,12.73-.62,3.23-.68,6.44-.18,9.67-.11,5.51.13,11,.41,16.56-.33a39.91,39.91,0,0,1,8.65.26,70.92,70.92,0,0,0,12.18-.22c7.4-.59,14.82.14,22.21.81,3.42.32,6.85.26,10.28.55,8.37.68,16.8.69,25.19,1.27,8.54.6,17.18.59,25.58,2.25a177.11,177.11,0,0,1,21.49,5.24c4.43,1.48,9,2.61,13.48,3.9l.54.55a.59.59,0,0,1-.27.84,5.24,5.24,0,0,1-4-.14c-4.76-1.79-9.77-2.75-14.51-4.5-2.61-1-5.33-1.07-7.94-1.77A79.33,79.33,0,0,0,444.53,186c-7-.57-14.11-1-21.17-1.39-10.58-.63-21.17-1.34-31.75-2q-7.07-.44-14.13-.72c-3.71-.15-7.44.16-11.14-.48a3.85,3.85,0,0,0-1.62,0c-6.83,1.84-13.72,0-20.58.41-3.88.22-7.77,1.06-11.67.52a53.46,53.46,0,0,0-12.5-.37c-6.4.61-12.82.52-19.23,1.18s-13,2.21-19.75,1.08c-3.71-.62-7.51.78-11.29,1.13-4.45.41-9,.61-13.42,1.76-1.87.49-2.54,1.32-2.52,3.16.05,4.45,0,8.9,0,13.34C253.75,204.82,254,206.15,252.93,207.17Z" transform="translate(-37.6 -67.31)"/><path class="cls-138" d="M485.66,194.62v-.54c3.91-.8,7.27,1.23,10.65,2.47,7.53,2.74,15.09,5.42,22.36,8.82,9,4.2,18.18,7.81,26.9,12.57a251,251,0,0,1,36.23,23.47c6.86,5.46,12.74,12.06,18.72,18.47a51.72,51.72,0,0,1,9.94,15.4c.58,1.41,1,2.88,1.53,4.33l-1.53,0c-1.28-.53-1.47-1.81-1.81-2.88-2-6.36-5.87-11.54-10.4-16.31-3.11-3.29-6.52-6.29-9.55-9.63-7.57-8.35-16.76-14.56-26.14-20.56a12.57,12.57,0,0,1-2.41-1.75,4.4,4.4,0,0,0-2.11-1.74,5,5,0,0,1-.62-.3,5.31,5.31,0,0,0-2.38-1.33,20.59,20.59,0,0,1-4.15-2.32,4,4,0,0,0-2.45-1.4c-4.05-1.77-7.78-4.17-11.78-6.05a2.82,2.82,0,0,0-2.26-1A103.51,103.51,0,0,1,521,208.29c-.93-.59-1.75-1.41-2.94-1.51a4.25,4.25,0,0,1-2.11-.65,3.92,3.92,0,0,0-2.23-1,4.91,4.91,0,0,1-2.11-.72,7.35,7.35,0,0,0-3.34-1.41,4.12,4.12,0,0,1-2.13-.64,3.86,3.86,0,0,0-2.22-1,5.06,5.06,0,0,1-2.1-.72,7.61,7.61,0,0,0-3.31-1.43,9.41,9.41,0,0,1-1.48-.28c-1.35-.35-2.55-1.14-4-1.33a10,10,0,0,1-2.6-.77,20.13,20.13,0,0,0-4.25-1.65A1.56,1.56,0,0,1,485.66,194.62Z" transform="translate(-37.6 -67.31)"/><path class="cls-1" d="M78.57,124.79c-1.79-1.44-3.94-2.21-5.95-3.26-2.9-1.53-3.11-2.12-1.57-5.1.63-1.2,1.37-2.35,2.08-3.51,1.12-1.83.74-3.27-1.12-4.32s-3.46-2-5.23-2.92-1.81-2.05-.58-3.46a13.16,13.16,0,0,1,4.94-3.75c2-.83,2.67-2,2-4.27-1.62-5.11-.62-6.54,5.79-9,3-1.16,6.34.55,8.09,4.16,1.34,2.77,2,3,4.8,1.39.71-.41,1.44-.78,2.13-1.21,2-1.23,3.19-.46,4.15,1.36,1.83,3.49,2.39,3.59,5.26.87a13.15,13.15,0,0,1,12.11-3.4A28.2,28.2,0,0,1,132.8,99.22a6.41,6.41,0,0,1,.28,7.85,10.36,10.36,0,0,0-1.45,7c1,9.12-5.74,15.78-15.08,15a49.65,49.65,0,0,1-16.87-4.94c-1.8-.85-3.45-1.22-4.8.71a25.08,25.08,0,0,1-6.35,3.5c-3,1.28-5.77,1-8-1.73A13.66,13.66,0,0,0,78.57,124.79Z" transform="translate(-37.6 -67.31)"/><path class="cls-139" d="M78.57,124.79A2.51,2.51,0,0,1,80.31,126c2.54,3.32,5.65,3.39,9.09,1.68,1.84-.91,3.65-1.85,5.48-2.79a13.78,13.78,0,0,1-10,4.6C82,129.57,80.12,127.09,78.57,124.79Z" transform="translate(-37.6 -67.31)"/><path class="cls-5" d="M502,200.07a3.62,3.62,0,0,0,2.17.55,7.87,7.87,0,0,0,2.19,1.09c.57.79,1.42.47,2.17.54a12.6,12.6,0,0,0,3.28,1.64,3.53,3.53,0,0,0,2.17.54,8.19,8.19,0,0,0,2.19,1.1c.57.79,1.42.46,2.17.54a8.62,8.62,0,0,0,2.73,1.63,148.49,148.49,0,0,0,13.62,6c.63.58,1.56.53,2.19,1.1,3.56,1.91,7.36,3.39,10.66,5.78.32.24.88.15,1.32.21.76.5,1.42,1.14,2.19,1.63l4.36,2.18c.75.5,1.41,1.14,2.18,1.63h.54c.76.5,1.41,1.16,2.19,1.64l15.79,10.83a37.5,37.5,0,0,1,5.91,4.55q8.54,8.73,17.26,17.28a50.79,50.79,0,0,1,9.16,13.28c.91,1.76,1.21,3.93,2,5.84a41.1,41.1,0,0,1-6.54,3.88c-.95.4-1.12,1.36-1.69,2-2.1.39-3.49,1.84-4.88,3.28l-6.5,2.82c-1.4.67-3-.19-4.38.51-4.76,1.13-8.62,4.16-12.92,6.24-6.11,3-8.84,2.64-13.71-2.12-10.78-10.53-22.85-19.44-35.17-28a80.79,80.79,0,0,0-25.36-12.1,20.22,20.22,0,0,0-7.11,0c-6.69,6-10,14-13.22,22.08-5,12.54-10.15,25-14.25,37.86-5.61,17.6-11.19,35.21-16.22,53-1,3.61-2.45,3.72-5.34,3.8-17.41.48-34.83.13-52.24.59-10.73.29-21.53.24-32.21,1.93a42.81,42.81,0,0,1-6.8.08,2.21,2.21,0,0,1-2.46-2.56c0-.36,0-.72,0-1.09-.2-9.87-.08-19.77-.68-29.62-.77-12.43-.52-24.85-.3-37.26.17-9.65,1.35-19.28,1.95-28.93.32-5.23.81-10.46,1.07-15.68.4-8.31,1.55-16.59,1.25-24.94a6.86,6.86,0,0,0-5.83-7,48,48,0,0,0-7.5-1.07c-7.43-.18-14.84-1-22.28-.58-10.49.58-21,1.08-31.48,1.06a98.43,98.43,0,0,1-15.83,0l-2.18,0c-1-.65-2.25.14-3.27-.51-8.15-.33-9.85-2.75-10.9-13.08-.67-1.2.16-2.61-.5-3.81,0-1.09,0-2.18,0-3.27,0-6.08.07-12.17,0-18.25,0-1.87.85-2,2.38-2.63,3.87-1.67,8.16.2,11.84-1.91a1.79,1.79,0,0,1,.81-.1c3.48-.14,6.9-.05,10.42-.92,2.84-.7,6.2.8,9.12.23,5.21-1,10.63-.08,15.7-2a3.51,3.51,0,0,1,1.08-.08c7.42-.19,14.89-.94,22.26-.4,8.27.6,16.45-.57,24.67-.16a33.34,33.34,0,0,1,6.21.44,6.53,6.53,0,0,0,4.78-.52,6.43,6.43,0,0,1,4.53-.38c3.88.81,7.79.16,11.66.49,7.73.67,15.51.56,23.23,1.54,3.22.41,6.48.21,9.74.51,7.47.68,15,.74,22.47,1.23,6.47.42,13.14.29,19.34,1.9,4.83,1.25,9.93,1.33,14.59,3.5,2.94,1.37,6.32,1.8,9.49,2.71,2.79.81,5.4,2.35,8.44,2.21h.54a24.39,24.39,0,0,0,4.36,1.64l2.73.55a9.47,9.47,0,0,0,3.82,1.62h1.62A13.05,13.05,0,0,0,502,200.07Z" transform="translate(-37.6 -67.31)"/><path class="cls-137" d="M269.82,227.87h15.83c-4,1.13-8.14.28-12.21.47C272.24,228.4,270.92,228.79,269.82,227.87Z" transform="translate(-37.6 -67.31)"/><path class="cls-72" d="M492.2,256.2a10.15,10.15,0,0,1,7.1,0Z" transform="translate(-37.6 -67.31)"/><path class="cls-72" d="M586.47,292.16c1.36-1,2.92-.32,4.38-.51C589.49,292.67,587.93,292,586.47,292.16Z" transform="translate(-37.6 -67.31)"/><path class="cls-137" d="M253,210.44c1,1.16.32,2.54.5,3.81C252.52,213.09,253.12,211.71,253,210.44Z" transform="translate(-37.6 -67.31)"/><path class="cls-137" d="M264.37,227.33c1.09.16,2.3-.43,3.27.51C266.54,227.71,265.35,228.23,264.37,227.33Z" transform="translate(-37.6 -67.31)"/><path class="cls-1" d="M126.23,146.11a34.74,34.74,0,0,1,11.94,1.58,10.85,10.85,0,0,1,2.71,1.2c1.44,1,3.38,1.89,3,4.12-.36,2-2.36,2-3.85,2.43a47.89,47.89,0,0,1-23.6,1,9.52,9.52,0,0,1-2.09-.57c-1.9-.82-4.14-1.56-4.12-4.1s2.28-2.77,4.08-3.23C118.46,147.46,122.45,145.39,126.23,146.11Z" transform="translate(-37.6 -67.31)"/><path class="cls-140" d="M137.65,179.92a13.69,13.69,0,0,1-4.21-1c-.87-.27-1.44-.61-1.5-1.61a2,2,0,0,1,1.41-2.06c3.32-1.55,6.58-.51,9.71.5,1.55.5,1,1.94-.08,2.75A8.62,8.62,0,0,1,137.65,179.92Z" transform="translate(-37.6 -67.31)"/><path class="cls-4" d="M590.3,319.43l1.08,2.21c.36,1.92-.69,3.5-1.32,5.17a1.78,1.78,0,0,1-1.89,1.28c-3-.56-6.25-.52-8.61-3.23-1.82-2.1-4.13-3.76-6.13-5.71-2.79-2.72-3-6.14-.66-8.62,2-2.09,5.75-2.06,8.21.49,2.62,2.72,6.08,4.58,8.13,7.9C589.29,319.22,589.89,319.26,590.3,319.43Z" transform="translate(-37.6 -67.31)"/><path class="cls-4" d="M592,312.43a.73.73,0,0,1-.1.46c-1,.8-1,2.54-2.67,2.73-2.08-1.63-4.47-2.9-6-5.16-1.15-1.7-3.23-1.87-4.82-2.86-.77-.49-1.68-.63-1.71-1.77,3.16-1.77,6.29-3.6,9.49-5.28,3.46-1.82,3.76-1.64,4.68,2.09.13.52.36,1,.54,1.53.67,1-.14,2.28.53,3.3C591.71,309.13,591,310.79,592,312.43Z" transform="translate(-37.6 -67.31)"/><path class="cls-141" d="M589.22,315.62c.91-.89,1.22-2.36,2.67-2.73l-1.65,5.45C589.05,317.76,589.21,316.66,589.22,315.62Z" transform="translate(-37.6 -67.31)"/><path class="cls-141" d="M591.92,307.47c-.92-1-.37-2.2-.53-3.3C592.38,305.14,591.77,306.37,591.92,307.47Z" transform="translate(-37.6 -67.31)"/><path class="cls-60" d="M669.81,482.38a7.11,7.11,0,0,1-1.49,3.39A3.38,3.38,0,0,1,669.81,482.38Z" transform="translate(-37.6 -67.31)"/><path class="cls-142" d="M767,335.7a40.88,40.88,0,0,1,3.42,3.42,3.72,3.72,0,0,1-.78,5.28c-2.62,1.7-11.26.22-13.33-2.1-1.76-2-1.26-3.83-.1-5.67,1.3-2.08,3.4-2.31,5.53-1.73,1.75.48,3.44,1.14,5.3.81Z" transform="translate(-37.6 -67.31)"/><path class="cls-143" d="M174.37,573.41c8.75,0,16.36,0,24,.5,13.36.86,26.74.34,40.11.71,4.42.12,8.87.59,13.28.36,10.36-.54,20.71-1.37,31.06-2.08.81,0,1.63,0,2.45,0,20.52,0,41-.29,61.56.13,8.79.19,17.59,0,26.36.45,18.84.92,37.64,2.24,56,7,2.32.6,3.53,1.59,3.08,4.08-.7,3.9-1.47,7.79-2,11.71a2.87,2.87,0,0,1-3.36,2.73c-6-.25-11.94.57-17.91.55-8.16,0-16.31.47-24.45.7-10.67.3-21.34.68-32,1-10.4.36-20.8.7-31.19,1.09s-20.61,1-30.93,1a6.86,6.86,0,0,0-6.31,3.37c-4.87,7.65-9.24,15.58-13.46,23.58-5.7,10.82-11.35,21.66-17.58,32.17-6.71,11.31-14.4,21.93-24.3,30.75a44.9,44.9,0,0,1-9.17,6.25c-1.73.9-3.45.36-4.78-1.34-8.2-10.44-8.23-21.84-3.79-33.63,4-10.72,11-19.7,17.93-28.64,6.47-8.36,13.38-16.39,18.84-25.49a17.63,17.63,0,0,0,1-1.93c1.75-4,1.26-5-2.77-6.44a57.12,57.12,0,0,0-18.36-3c-6.35-.09-12.72-.26-19.06,0-11.73.54-23.43,1.72-35.15,2-10.14.24-20.3.58-30.45-.32a61,61,0,0,1-16.9-3.43C121.6,595.6,118,593,116,588.38c-1.62-3.72-1.08-5.82,2.46-7.94a39.59,39.59,0,0,1,15.15-4.83c7.6-1.06,15.27-1.37,22.93-1.82C162.86,573.42,169.19,573.75,174.37,573.41Z" transform="translate(-37.6 -67.31)"/><path class="cls-143" d="M92.48,587c-3.34.8-5.16-1.37-6.81-4.13-4.52-7.53-6.41-15.85-7.7-24.38C76.29,547.3,76.66,536,77,524.84A250.63,250.63,0,0,1,80,497.17a339.92,339.92,0,0,1,8.4-40.25c3.73-13.71,7.79-27.35,14.71-39.88,4.61-8.36,4-7.67,11.32-3.38.15.09.32.15.48.24,8.41,4.62,6.15,4.91,5.29,11.84-1,8-2.31,16-3.48,24.07s-2.34,16.22-3.53,24.33-2.41,16.22-3.55,24.33c-.93,6.6-1.76,13.21-2.62,19.82a19.92,19.92,0,0,0-.11,2.44c0,8.27.36,16.55-.11,24.79-.57,10.16-.26,20.3-.46,30.45C106.2,582,98.9,587.83,92.48,587Z" transform="translate(-37.6 -67.31)"/><path class="cls-144" d="M546.16,350c-2.39,2.44-4.94,4.52-8.72,3.69,2.25-1.83,5.38-1.95,7.6-3.87A.68.68,0,0,1,546.16,350Z" transform="translate(-37.6 -67.31)"/><path class="cls-57" d="M545.1,319.57c3.79-.43,7.43-.38,10,3.06C552,320.8,548.4,320.75,545.1,319.57Z" transform="translate(-37.6 -67.31)"/><path class="cls-1" d="M666.59,329.71c3.43-1.14,7.09-1.74,10-4.21,2-.83,3.38-2.39,5-3.73,2.27-1.91,3.7-1.74,5.32.71a15.86,15.86,0,0,0,5.35,5.3c3.63,2,3.64,2,1.08,5.19-4.43,5.59-10,10-15.23,14.79l-5.91,5.58a38.55,38.55,0,0,0-8.25,10.78l-1.64,2.16c-1.88-.22-1.7-1.64-1.54-2.87,1-7.59,1.34-15.23,2.08-22.84.23-2.33.55-4.66.61-7S664.39,330.06,666.59,329.71Z" transform="translate(-37.6 -67.31)"/><path class="cls-53" d="M666.59,329.71c-3.89,1.44-2.89,5.1-3.15,7.84-.81,8.61-1.2,17.26-2.26,25.86a2.83,2.83,0,0,0,1.05,2.87h0c-1.18.63-1.88.33-1.86-1.07a7.19,7.19,0,0,1,.2-2.88c.39-8.41,1.29-16.78,2.15-25.15.13-1.35.11-2.72.17-4.07l.51-2.76C664.34,329.56,665.48,329.69,666.59,329.71Z" transform="translate(-37.6 -67.31)"/><path class="cls-57" d="M663.87,364.12c-.13-.22-.42-.54-.36-.64a54.85,54.85,0,0,1,7.74-10.25.49.49,0,0,1,.87.11l-6.63,9.08Z" transform="translate(-37.6 -67.31)"/><path class="cls-1" d="M660.56,362.34c.65,1.28-1.31,3.66,1.66,4-.06,1-.59,1.82-1.65,1.58s-1-1.21-.75-2.17S660.32,363.46,660.56,362.34Z" transform="translate(-37.6 -67.31)"/><path class="cls-137" d="M490.56,196.26c-1.64,0-3.28-.09-4.36-1.64C488,194.38,489.19,195.49,490.56,196.26Z" transform="translate(-37.6 -67.31)"/><path class="cls-137" d="M497.11,198.43c-1.53,0-2.94-.16-3.82-1.62A12.4,12.4,0,0,1,497.11,198.43Z" transform="translate(-37.6 -67.31)"/><path class="cls-145" d="M502,200.07a3.49,3.49,0,0,1-3.28-1.63A6,6,0,0,1,502,200.07Z" transform="translate(-37.6 -67.31)"/><path class="cls-146" d="M511.82,203.89a3.51,3.51,0,0,1-3.28-1.64A6,6,0,0,1,511.82,203.89Z" transform="translate(-37.6 -67.31)"/><path class="cls-146" d="M521.08,207.7a2.62,2.62,0,0,1-2.73-1.63A5,5,0,0,1,521.08,207.7Z" transform="translate(-37.6 -67.31)"/><path class="cls-146" d="M560.33,227.87a2.62,2.62,0,0,1-2.19-1.64A2.57,2.57,0,0,1,560.33,227.87Z" transform="translate(-37.6 -67.31)"/><path class="cls-146" d="M557.6,226.23a2.58,2.58,0,0,1-2.18-1.63A2.58,2.58,0,0,1,557.6,226.23Z" transform="translate(-37.6 -67.31)"/><path class="cls-146" d="M551.06,222.42a2.64,2.64,0,0,1-2.19-1.63A2.55,2.55,0,0,1,551.06,222.42Z" transform="translate(-37.6 -67.31)"/><path class="cls-146" d="M536.89,214.8a2,2,0,0,1-2.19-1.1C535.64,213.65,536.48,213.79,536.89,214.8Z" transform="translate(-37.6 -67.31)"/><path class="cls-146" d="M516.18,205.53a2,2,0,0,1-2.19-1.1A3,3,0,0,1,516.18,205.53Z" transform="translate(-37.6 -67.31)"/><path class="cls-145" d="M506.37,201.71a2,2,0,0,1-2.19-1.09A2.92,2.92,0,0,1,506.37,201.71Z" transform="translate(-37.6 -67.31)"/><path class="cls-6" d="M97.43,111.9c-3.68-.48-7-.2-9.74,2.43-1.31,1.24-2,.32-2-1-.21-2.88.29-5.79-.29-8.67-.14-.73.31-1,.91-1,2.45.25,5.07-.83,7.36.93a4.39,4.39,0,0,0,2.85.68c2.36,0,4.73-.16,7.07,0a6.5,6.5,0,0,0,6.18-2.63c1.72-2.28,3.63-2.27,6.15-1.18,3.07,1.31,5,2.86,4.14,6.57a23.36,23.36,0,0,0-.06,4.88c0,3.39-1.21,4.34-4.57,3.61a35.12,35.12,0,0,1-7.4-2.59C104.57,112.35,101.12,111.11,97.43,111.9Z" transform="translate(-37.6 -67.31)"/><path class="cls-1" d="M431.4,244.27c-1.49-.08-2.62-.41-2.82-1.45-.29-1.54-.66-3.23.64-4.62a20.59,20.59,0,0,1,7.61-5c6.42-2.58,13.27-3.46,19.92-5.12a70,70,0,0,0,8.3-2.45c2.55-1,5.38.1,6.1,2.25,1,2.89,0,4.53-3.35,5.55l-34.71,10.54A16.59,16.59,0,0,1,431.4,244.27Z" transform="translate(-37.6 -67.31)"/><path class="cls-1" d="M384.29,260.2q0,4.21,0,8.44c0,2.46-2.89,5.68-5.47,6.1-3.54.57-6.77-1.07-7.59-4-1.93-7-1.21-13.8,1.2-20.51.73-2,2.66-2.51,4.4-2.61a24.14,24.14,0,0,1,5.9.64c1.2.23,1.62,1.19,1.59,2.47C384.23,253.86,384.29,257,384.29,260.2Z" transform="translate(-37.6 -67.31)"/><path class="cls-1" d="M437,266.6a46.08,46.08,0,0,1,1.72-12.35,4,4,0,0,1,2.73-3.05c4.84-1.83,8.71.3,9.53,5.31.93,5.65.09,11.22-1,16.74-.61,3.19-3.45,4.93-7.24,4.88-2.31,0-4.54-2-5.24-4.76A31.37,31.37,0,0,1,437,266.6Z" transform="translate(-37.6 -67.31)"/><path class="cls-1" d="M385.69,238.22a2.71,2.71,0,0,1-1.93-.7c-7.33-5.15-14.68-10.26-22-15.46-2.48-1.78-2.65-4.13-.78-6.24a2.47,2.47,0,0,1,2.87-.87,52.34,52.34,0,0,1,25.24,17.12c1.07,1.3,1.52,2.63.55,4.2A4.31,4.31,0,0,1,385.69,238.22Z" transform="translate(-37.6 -67.31)"/><path class="cls-147" d="M354.68,250.7c1.51,1.88,1.29,3.66,1.19,5.87C354.81,254.61,353.85,253.08,354.68,250.7Z" transform="translate(-37.6 -67.31)"/></svg>