<svg xmlns="http://www.w3.org/2000/svg" xmlns:xlink="http://www.w3.org/1999/xlink" width="1401" height="1173.117" viewBox="0 0 1401 1173.117">
  <defs>
    <clipPath id="clip-path">
      <rect x="522.772" y="310.154" width="375" height="239.855" fill="none"/>
    </clipPath>
  </defs>
  <g id="Layer_2" data-name="Layer 2">
    <g id="final-logos">
      <g id="logo">
        <g>
          <path d="M160.89,1173.117c-55.556,0-97.281-16.18-124.012-48.089-56.537-67.484-24.844-180.208-23.468-184.97L92.146,673.45c10.1-50.843,51.1-73.849,86.032-84.252l14.634-70.844c14.988-108.6,115.97-109.845,120.267-109.845H1087.81c4.4,0,105.387,1.244,120.375,109.845l14.636,70.844c34.927,10.4,75.931,33.407,86.035,84.252l78.721,266.559c1.391,4.811,33.084,117.535-23.456,185.019-26.733,31.909-68.453,48.089-124.012,48.089Z" fill="#070f60"/>
          <path id="main_body" data-name="main body" d="M1378.066,942.377l-78.832-266.935c-9.582-49.128-50.9-70.172-84.987-79.192l-15.8-76.486c-14.082-103.234-110.636-102.207-110.636-102.207H313.188s-96.554-1.027-110.636,102.207l-15.8,76.486c-34.082,9.02-75.405,30.063-84.987,79.192L22.933,942.377s-64.051,221.691,137.956,221.691H1240.11C1442.116,1164.068,1378.066,942.377,1378.066,942.377Z" fill="#002baf"/>
        </g>
        <g>
          <rect x="200.196" y="267" width="1000.607" height="149.56" rx="64.897" fill="#343535"/>
          <rect x="210.202" y="272.471" width="980.595" height="136.218" rx="61.312" fill="#c1c1c1"/>
          <path d="M1178.9,342.082v16.051c0,24.127-28.668,43.867-63.707,43.867H285.806c-35.039,0-63.706-19.74-63.706-43.867V342.082" fill="#b7b7b7"/>
        </g>
        <g>
          <path d="M261.771,267a65.087,65.087,0,0,0-64.9,64.9v19.767a65.087,65.087,0,0,0,64.9,64.9h6.295c-31.172,11.181-69.754,37.894-78.573,101.794L174.857,589.2c-34.927,10.4-75.931,33.407-86.035,84.252L10.1,940.009c-1.391,4.811-33.084,117.535,23.456,185.019,26.733,31.909,68.453,48.089,124.012,48.089l95.2-.117c-52.225,0-109.4-32.235-134.533-62.23C65.091,1047.335,94.883,941.375,96.19,936.852l74-250.565c9.5-47.8,48.041-69.418,80.872-79.2L264.819,540.5c8.289-60.065,44.556-85.176,73.858-95.686H332.76a61.182,61.182,0,0,1-61-61v-18.58C271.757,331.675,326.448,273,360,273Z" fill="#343535" opacity="0.38"/>
          <path d="M1139.229,267a65.087,65.087,0,0,1,64.9,64.9v19.767a65.087,65.087,0,0,1-64.9,64.9h-6.3c31.172,11.181,69.754,37.894,78.573,101.794l14.636,70.844c34.927,10.4,75.931,33.407,86.035,84.252L1390.9,940.009c1.391,4.811,33.084,117.535-23.456,185.019-26.733,31.909-68.453,48.089-124.012,48.089l-95.2-.117c52.225,0,109.4-32.235,134.533-62.23,53.148-63.435,23.356-169.395,22.049-173.918l-74-250.565c-9.5-47.8-48.041-69.418-80.872-79.2L1136.181,540.5c-8.289-60.065-44.556-85.176-73.858-95.686h5.917a61.182,61.182,0,0,0,61-61v-18.58c0-33.552-54.691-92.227-88.243-92.227Z" fill="#343535" opacity="0.38"/>
        </g>
        <path id="second_body" data-name="second body" d="M1336.1,904.048l-73.949-233.934c-8.988-43.055-47.751-61.5-79.723-69.4l-14.821-67.03c-13.211-90.471-103.784-89.571-103.784-89.571H337.176s-90.573-.9-103.783,89.571l-14.822,67.03c-31.971,7.906-70.735,26.347-79.723,69.4L64.9,904.048S4.815,1098.332,194.31,1098.332H1206.69C1396.185,1098.332,1336.1,904.048,1336.1,904.048Z" fill="#1ca0c9"/>
        <path id="second_body-2" data-name="second body" d="M1306.251,869.835,1235.9,641.772c-8.55-41.974-45.427-59.953-75.842-67.66l-14.1-65.348c-12.567-88.2-98.731-87.322-98.731-87.322H355.958s-86.164-.877-98.731,87.323l-14.1,65.348c-30.414,7.707-67.291,25.686-75.841,67.66L96.937,869.835s-57.159,189.407,123.111,189.407H1183.14C1363.41,1059.242,1306.251,869.835,1306.251,869.835Z" fill="#2ab4eb"/>
        <path d="M1238.911,774.051,1177.64,594.868c-6.56-28.21-29.812-48.321-67.442-58.449l-10.917-45.65c-12.179-75.665-93.536-76.542-97.083-76.542H398.718c-3.463,0-84.817.877-97,76.542L290.8,536.419c-37.633,10.13-60.883,30.241-67.44,58.449L162.076,774.1c-1.06,3.167-25.459,78.1,16.689,125.1,21.362,23.821,55.479,35.9,101.4,35.9h840.662c45.928,0,80.045-12.079,101.4-35.9C1264.386,852.2,1239.985,777.27,1238.911,774.051ZM1054.626,547.488H356.935V500.794c9.873-62.507,77.562-61.885,77.562-61.885H977.553s67.689-.622,77.562,61.885Z" fill="#fff"/>
        <path d="M1048.162,504.2c-9.679-61.282-76.041-60.672-76.041-60.672H439.713s-66.362-.61-76.041,60.672v45.777h684.011Z" fill="#9e9e9e"/>
        <g>
          <polygon points="1026.772 783 372.772 783 402.772 0 996.772 0 1026.772 783" fill="#5b5b5b"/>
          <polygon points="1027.772 783 373.772 783 403.772 0 997.772 0 1027.772 783" fill="#5b5b5b"/>
          <polygon points="1014.692 767.34 386.852 767.34 415.652 15.66 985.892 15.66 1014.692 767.34" fill="#fff"/>
          <path d="M985.892,15.66l28.8,751.68H386.852S711.772,51,985.892,15.66Z" fill="#f0f9ff"/>
        </g>
        <g>
          <path d="M1228.354,772.1l-60.069-175.67c-6.432-27.657-29.229-47.373-66.121-57.3l-10.7-44.755c-11.941-74.182-91.7-75.041-95.179-75.041H404.636c-3.4,0-83.154.859-95.1,75.041l-10.7,44.755c-36.9,9.932-59.689,29.648-66.118,57.3L172.633,772.154c-1.039,3.1-24.96,76.567,16.362,122.65,20.943,23.354,54.392,35.2,99.416,35.2h824.178c45.027,0,78.476-11.842,99.416-35.2C1253.33,848.721,1229.406,775.258,1228.354,772.1ZM1047.683,549.981H363.672V504.2c9.679-61.282,76.041-60.672,76.041-60.672H972.12s66.363-.61,76.042,60.672Z" fill="#bfbfbf"/>
          <path d="M1217.944,774.637l-60.2-176.065c-7.317-32.4-38.875-46.284-64.9-52.234l-12.066-50.448c-10.754-68.091-84.49-67.414-84.49-67.414H404.719s-73.736-.677-84.49,67.414l-12.067,50.448c-26.027,5.95-57.585,19.829-64.9,52.234l-60.2,176.065S134.143,920.86,288.412,920.86H1112.59C1266.858,920.86,1217.944,774.637,1217.944,774.637ZM1047.683,549.981H363.672V504.2c9.679-61.282,76.041-60.672,76.041-60.672H972.12s66.363-.61,76.042,60.672Z" fill="#303030"/>
        </g>
        <g>
          <g>
            <g>
              <ellipse cx="367.256" cy="655.099" rx="96.729" ry="57.34" fill="#bfbb1f"/>
              <path d="M367.256,720.851c-58.957,0-105.14-28.881-105.14-65.752s46.183-65.75,105.14-65.75S472.4,618.23,472.4,655.1,426.213,720.851,367.256,720.851Z" fill="#3a380c"/>
              <ellipse cx="367.256" cy="655.099" rx="96.729" ry="57.34" fill="#bfbb1f"/>
              <path d="M367.256,704.028c-54.24,0-96.729-25.188-96.729-57.34s42.489-57.339,96.729-57.339,96.729,25.187,96.729,57.339S421.5,704.028,367.256,704.028Z" fill="#e27a0a"/>
              <ellipse cx="367.256" cy="642.483" rx="88.318" ry="48.929" fill="#e5c507"/>
            </g>
            <g>
              <ellipse cx="592.665" cy="655.099" rx="96.729" ry="57.34" fill="#bfbb1f"/>
              <path d="M592.665,720.851c-58.957,0-105.141-28.881-105.141-65.752s46.184-65.75,105.141-65.75,105.14,28.881,105.14,65.75S651.621,720.851,592.665,720.851Z" fill="#3a380c"/>
              <ellipse cx="592.665" cy="655.099" rx="96.729" ry="57.34" fill="#bfbb1f"/>
              <path d="M592.665,704.028c-54.24,0-96.729-25.188-96.729-57.34s42.489-57.339,96.729-57.339,96.729,25.187,96.729,57.339S646.905,704.028,592.665,704.028Z" fill="#e27a0a"/>
              <ellipse cx="592.665" cy="642.483" rx="88.318" ry="48.929" fill="#e5c507"/>
            </g>
            <g>
              <ellipse cx="818.074" cy="655.099" rx="96.729" ry="57.34" fill="#bfbb1f"/>
              <path d="M818.074,720.851c-58.957,0-105.141-28.881-105.141-65.752s46.184-65.75,105.141-65.75,105.14,28.881,105.14,65.75S877.03,720.851,818.074,720.851Z" fill="#3a380c"/>
              <ellipse cx="818.074" cy="655.099" rx="96.729" ry="57.34" fill="#bfbb1f"/>
              <path d="M818.074,704.028c-54.24,0-96.729-25.188-96.729-57.34s42.489-57.339,96.729-57.339S914.8,614.536,914.8,646.688,872.313,704.028,818.074,704.028Z" fill="#e27a0a"/>
              <ellipse cx="818.074" cy="642.483" rx="88.318" ry="48.929" fill="#e5c507"/>
            </g>
            <g>
              <ellipse cx="1043.483" cy="655.099" rx="96.729" ry="57.34" fill="#bfbb1f"/>
              <path d="M1043.483,720.851c-58.957,0-105.141-28.881-105.141-65.752s46.184-65.75,105.141-65.75,105.14,28.881,105.14,65.75S1102.439,720.851,1043.483,720.851Z" fill="#3a380c"/>
              <ellipse cx="1043.483" cy="655.099" rx="96.729" ry="57.34" fill="#bfbb1f"/>
              <path d="M1043.483,704.028c-54.24,0-96.729-25.188-96.729-57.34s42.489-57.339,96.729-57.339,96.729,25.187,96.729,57.339S1097.722,704.028,1043.483,704.028Z" fill="#e27a0a"/>
              <ellipse cx="1043.483" cy="642.483" rx="88.318" ry="48.929" fill="#e5c507"/>
            </g>
          </g>
          <g>
            <g>
              <ellipse cx="475.091" cy="737.181" rx="96.729" ry="57.34" fill="#bfbb1f"/>
              <path d="M475.091,802.933c-58.957,0-105.14-28.881-105.14-65.752s46.183-65.75,105.14-65.75,105.14,28.881,105.14,65.75S534.048,802.933,475.091,802.933Z" fill="#3a380c"/>
              <ellipse cx="475.091" cy="737.181" rx="96.729" ry="57.34" fill="#bfbb1f"/>
              <path d="M475.091,786.11c-54.24,0-96.729-25.188-96.729-57.34s42.489-57.339,96.729-57.339,96.729,25.187,96.729,57.339S529.331,786.11,475.091,786.11Z" fill="#e27a0a"/>
              <ellipse cx="475.091" cy="724.565" rx="88.318" ry="48.929" fill="#e5c507"/>
            </g>
            <g>
              <ellipse cx="700.5" cy="737.181" rx="96.729" ry="57.34" fill="#bfbb1f"/>
              <path d="M700.5,802.933c-58.957,0-105.14-28.881-105.14-65.752s46.183-65.75,105.14-65.75,105.14,28.881,105.14,65.75S759.457,802.933,700.5,802.933Z" fill="#3a380c"/>
              <ellipse cx="700.5" cy="737.181" rx="96.729" ry="57.34" fill="#bfbb1f"/>
              <path d="M700.5,786.11c-54.24,0-96.729-25.188-96.729-57.34s42.489-57.339,96.729-57.339,96.729,25.187,96.729,57.339S754.74,786.11,700.5,786.11Z" fill="#e27a0a"/>
              <ellipse cx="700.5" cy="724.565" rx="88.318" ry="48.929" fill="#e5c507"/>
            </g>
            <g>
              <ellipse cx="925.909" cy="737.181" rx="96.729" ry="57.34" fill="#bfbb1f"/>
              <path d="M925.909,802.933c-58.957,0-105.14-28.881-105.14-65.752s46.183-65.75,105.14-65.75,105.14,28.881,105.14,65.75S984.866,802.933,925.909,802.933Z" fill="#3a380c"/>
              <ellipse cx="925.909" cy="737.181" rx="96.729" ry="57.34" fill="#bfbb1f"/>
              <path d="M925.909,786.11c-54.24,0-96.729-25.188-96.729-57.34s42.489-57.339,96.729-57.339,96.729,25.187,96.729,57.339S980.149,786.11,925.909,786.11Z" fill="#e27a0a"/>
              <ellipse cx="925.909" cy="724.565" rx="88.318" ry="48.929" fill="#e5c507"/>
            </g>
          </g>
          <g>
            <g>
              <ellipse cx="357.517" cy="826.22" rx="96.729" ry="57.34" fill="#bfbb1f"/>
              <path d="M357.517,891.971c-58.956,0-105.14-28.881-105.14-65.752s46.184-65.75,105.14-65.75,105.141,28.881,105.141,65.75S416.474,891.971,357.517,891.971Z" fill="#3a380c"/>
              <ellipse cx="357.517" cy="826.22" rx="96.729" ry="57.34" fill="#bfbb1f"/>
              <path d="M357.517,875.148c-54.239,0-96.729-25.188-96.729-57.34s42.49-57.339,96.729-57.339,96.729,25.187,96.729,57.339S411.757,875.148,357.517,875.148Z" fill="#e27a0a"/>
              <ellipse cx="357.517" cy="813.603" rx="88.318" ry="48.929" fill="#e5c507"/>
            </g>
            <g>
              <ellipse cx="582.926" cy="826.22" rx="96.729" ry="57.34" fill="#bfbb1f"/>
              <path d="M582.926,891.971c-58.956,0-105.14-28.881-105.14-65.752s46.184-65.75,105.14-65.75,105.141,28.881,105.141,65.75S641.883,891.971,582.926,891.971Z" fill="#3a380c"/>
              <ellipse cx="582.926" cy="826.22" rx="96.729" ry="57.34" fill="#bfbb1f"/>
              <path d="M582.926,875.148c-54.239,0-96.729-25.188-96.729-57.34s42.49-57.339,96.729-57.339,96.729,25.187,96.729,57.339S637.166,875.148,582.926,875.148Z" fill="#e27a0a"/>
              <ellipse cx="582.926" cy="813.603" rx="88.318" ry="48.929" fill="#e5c507"/>
            </g>
            <g>
              <ellipse cx="808.335" cy="826.22" rx="96.729" ry="57.34" fill="#bfbb1f"/>
              <path d="M808.335,891.971c-58.956,0-105.14-28.881-105.14-65.752s46.184-65.75,105.14-65.75,105.141,28.881,105.141,65.75S867.292,891.971,808.335,891.971Z" fill="#3a380c"/>
              <ellipse cx="808.335" cy="826.22" rx="96.729" ry="57.34" fill="#bfbb1f"/>
              <path d="M808.335,875.148c-54.24,0-96.729-25.188-96.729-57.34s42.489-57.339,96.729-57.339,96.729,25.187,96.729,57.339S862.575,875.148,808.335,875.148Z" fill="#e27a0a"/>
              <ellipse cx="808.335" cy="813.603" rx="88.318" ry="48.929" fill="#e5c507"/>
            </g>
            <g>
              <ellipse cx="1033.744" cy="826.22" rx="96.729" ry="57.34" fill="#bfbb1f"/>
              <path d="M1033.744,891.971c-58.957,0-105.14-28.881-105.14-65.752s46.183-65.75,105.14-65.75,105.14,28.881,105.14,65.75S1092.7,891.971,1033.744,891.971Z" fill="#3a380c"/>
              <ellipse cx="1033.744" cy="826.22" rx="96.729" ry="57.34" fill="#bfbb1f"/>
              <path d="M1033.744,875.148c-54.24,0-96.729-25.188-96.729-57.34s42.489-57.339,96.729-57.339,96.729,25.187,96.729,57.339S1087.984,875.148,1033.744,875.148Z" fill="#e27a0a"/>
              <ellipse cx="1033.744" cy="813.603" rx="88.318" ry="48.929" fill="#e5c507"/>
            </g>
          </g>
        </g>
        <path d="M1365.078,1002.281s-7.5,103.663-92.076,116.143H128c-84.575-12.48-92.076-116.143-92.076-116.143-.021.609-25.584,141.953,92.828,141.55h1143.5C1390.662,1144.234,1365.1,1002.89,1365.078,1002.281Z" fill="#2371e2"/>
        <path d="M1318.215,973s-6.973,81.488-85.583,91.3H168.368c-78.61-9.81-85.583-91.3-85.583-91.3-.019.479-23.78,111.587,86.282,111.269H1231.933C1342,1084.582,1318.234,973.474,1318.215,973Z" fill="#d2e1f7"/>
        <path d="M1291.464,899.78s-6.671,99.36-81.877,111.322H191.413C116.207,999.14,109.537,899.78,109.537,899.78c-.019.583-22.751,136.061,82.545,135.674H1208.918C1314.214,1035.841,1291.482,900.363,1291.464,899.78Z" fill="#1ca0c9"/>
        <g clip-path="url(#clip-path)">
          <path d="M708.772,406.081c-104.382,0-189,84.618-189,189s84.618,189,189,189,189-84.618,189-189S813.154,406.081,708.772,406.081Zm0,321.3a132.3,132.3,0,1,1,132.3-132.3A132.3,132.3,0,0,1,708.772,727.381Z" fill="#232323"/>
          <path d="M708.772,421.981a170.1,170.1,0,1,0,170.1,170.1A170.1,170.1,0,0,0,708.772,421.981Zm0,289.17a119.07,119.07,0,1,1,119.07-119.07A119.069,119.069,0,0,1,708.772,711.151Z" fill="#666"/>
          <path d="M708.772,438.991a153.09,153.09,0,1,0,153.09,153.09A153.09,153.09,0,0,0,708.772,438.991Zm0,260.253A107.163,107.163,0,1,1,815.935,592.081,107.163,107.163,0,0,1,708.772,699.244Z" fill="#414444"/>
          <polygon points="708.772 496.316 665.744 570.842 751.8 570.842 708.772 496.316" fill="#343535"/>
          <polygon points="708.772 520.316 665.744 594.842 751.8 594.842 708.772 520.316" fill="#494949"/>
        </g>
      </g>
    </g>
  </g>
</svg>
